<?xml version="1.0" standalone="no"?>
<!DOCTYPE svg PUBLIC "-//W3C//DTD SVG 1.1//EN" "http://www.w3.org/Graphics/SVG/1.1/DTD/svg11.dtd" >
<svg xmlns="http://www.w3.org/2000/svg">
<metadata></metadata>
<defs>
<font id="LondrinaSolidRegular" horiz-adv-x="950" >
<font-face units-per-em="2048" ascent="1638" descent="-410" />
<missing-glyph horiz-adv-x="487" />
<glyph horiz-adv-x="0" />
<glyph horiz-adv-x="2048" />
<glyph unicode=" "  horiz-adv-x="487" />
<glyph unicode="&#x09;" horiz-adv-x="487" />
<glyph unicode="&#xa0;" horiz-adv-x="487" />
<glyph unicode="!" horiz-adv-x="395" d="M62 1087q0 188 10 351h6q15 1 57.5 6t68.5 7t62.5 0.5t63.5 -9.5q-13 -757 2 -1084q-39 -4 -264 -10h-2q2 134 -1 342.5t-3 396.5zM72 19q-1 17 0.5 46t4 59.5t5 64t2.5 53.5v2q29 12 71 13t98.5 -4t80.5 -5q-6 -228 -6 -246h-15q-17 0 -39.5 1t-37.5 1h-5l-153 -2 q-5 0 -6 17z" />
<glyph unicode="&#x22;" horiz-adv-x="763" d="M68.5 1214.5q-0.5 39.5 0.5 98t5 125.5v4h2q5 0 42 4t73 7.5t69 2.5t37 -10q0 -51 2 -271t2 -233q1 1 -44.5 0t-104.5 -2t-82 0v2q0 72 -0.5 152.5t-1 120zM463.5 1214.5q-0.5 39.5 0.5 98t5 125.5v4h2q5 0 42 4t73 7.5t69 2.5t37 -10q0 -51 2 -271t2 -233q1 1 -44.5 0 t-104.5 -2t-82 0v2q0 72 -0.5 152.5t-1 120z" />
<glyph unicode="#" horiz-adv-x="1343" d="M37 537q18 -18 225 -11q6 6 12 27t25.5 86.5t46.5 144.5q-16 0 -283 -2l-4 222h2q50 -16 291 -11h64q0 1 1 2t1 2q13 26 48.5 140.5t47.5 167.5v2q11 -3 244 -11q0 -4 -90 -301q36 -1 114.5 0t128.5 0q34 52 103 314h2h2q38 -7 115.5 -4.5t115.5 -4.5q0 -12 1.5 -14 t-2 -16.5t-6 -23.5t-10.5 -35t-16 -51.5t-22 -72.5t-29 -98q21 0 64 -1t65 -1v-8l15 -188l-217 -7q-15 -44 -42.5 -129t-43.5 -129q9 -1 48 -1t98 -1.5t120 -5.5q7 -19 8 -37.5t1.5 -61.5t4.5 -91v-4q-39 -4 -75.5 -5t-113 -1.5t-161.5 -2.5h-2h-4q-4 -6 -23.5 -63t-47 -131 t-50.5 -117l-2 -2h-4h-10q-10 -1 -28 -1.5t-43.5 -1t-65.5 0t-87 2.5q17 65 55 170t50 150h-2q-52 4 -238 0q-15 -44 -24 -69t-14.5 -37t-21 -48.5t-36.5 -91.5q-11 -37 -29 -72q-4 -4 -16 -4q-87 6 -219 0q7 33 15.5 65t20.5 68t20.5 58.5t25 65.5t22.5 60q-20 0 -66 -2.5 t-69 -1.5q-3 32 -4 69.5t-1 83.5t-1 71zM506 526l256 2q0 1 1 3.5t1 3.5q10 46 40.5 128t41.5 121v2h-2h-2q-220 5 -244 5h-4v-3q-15 -44 -44 -131t-44 -131z" />
<glyph unicode="$" horiz-adv-x="897" d="M33 391q0 30 1 43t5 28.5t14.5 20.5t27.5 9t46 4q18 0 47.5 -3.5t32.5 -3.5q20 -2 40 -1t38 -1t32 -7t22.5 -19.5t8.5 -38.5q0 -12 1 -32.5t1 -31.5q0 -90 86 -90q34 0 64 21.5t30 52.5q0 60 -42.5 121.5t-96 104.5t-125 100.5t-106.5 95.5q-49 56 -80 129.5t-31 144.5 q0 111 74 185q35 35 85.5 63.5t98.5 42.5q6 3 7.5 6.5t0 11t-1.5 11.5q0 5 -5 75.5t-5 75.5q0 8 3.5 14.5t11.5 10t16 5.5t21 3t21.5 1t23.5 -0.5t22 -0.5q105 0 142 -8q28 -7 34 -18v-168q0 -26 27 -29q69 -7 125.5 -59t85.5 -111q5 -10 9 -20t7 -21.5t5 -19t3.5 -21 t2 -19.5t1 -22.5t0.5 -20.5v-23.5v-23.5q0 -29 -17.5 -41t-51.5 -12h-33q-20 0 -57 -2t-58 -2q-49 0 -73 17t-28 41.5t-6.5 49t-17.5 41.5t-51 17q-34 0 -65 -28.5t-31 -63.5q0 -34 19.5 -68.5t60 -70t71.5 -59t87.5 -61t74.5 -50.5q76 -55 122 -152t46 -186 q0 -139 -121 -238q-11 -11 -66.5 -44.5t-62.5 -33.5q0 -9 -1 -72.5t-1 -72.5v-8q0 -56 -78 -56q-13 0 -41.5 -1t-44.5 -1h-57q-35 0 -52.5 13.5t-18.5 34.5t-0.5 47.5t0.5 50.5t-15 45t-47 31q-49 16 -85 37t-59.5 48t-38.5 55t-22 67t-9.5 74.5t-2.5 86.5z" />
<glyph unicode="%" horiz-adv-x="1249" d="M41 1051l4 51q1 7 5 44t7 51t9.5 41.5t17.5 46.5t27 36q62 75 151 78q96 4 154 -58t78 -155q10 -74 8 -119q2 -40 -3 -81.5t-16 -84t-30.5 -79.5t-46 -65.5t-65 -43.5t-83.5 -13q-51 3 -98 27q-46 30 -68 64t-33 86q-2 17 -7.5 57.5t-8.5 62.5v2zM203 1130l10 -149 q1 -14 2 -39t2 -39q0 -24 21 -35.5t45 -3.5q7 3 13.5 6.5t10.5 7t8 10t5.5 10t4 12t3 11.5t2.5 13t2 12q0 4 1 11.5t1 11.5q11 140 -19 243q-1 3 -3 5.5t-3 5.5q-26 34 -61 16q-18 -6 -33 -27q-15 -25 -12 -79v-3zM229 -2q-11 0 1.5 41t32 90.5t20.5 54.5q36 117 65 181 q12 44 193 532q18 46 43.5 129.5t33.5 108.5q4 6 19.5 50t39.5 120.5t42 146.5q46 -8 90 -4t98 3t82 -15q-3 -7 -6 -18.5t-6 -18.5q-4 -15 -90 -297q-9 -26 -25.5 -71.5t-30 -83t-24.5 -70.5q-16 -47 -47 -140.5t-55.5 -166t-49.5 -138.5q-21 -62 -45 -123l-116 -295 q-2 -5 -7 -10q-14 -3 -35.5 -3t-83 -0.5t-137.5 -2.5h-2zM743 401l5 52q1 10 5 44.5t6.5 50t9 42t17.5 46t27 36.5q62 75 152 78q96 4 153.5 -58t77.5 -155q10 -74 8 -119q2 -62 -10 -124.5t-38.5 -120t-77 -92t-117.5 -30.5q-53 3 -99 27q-46 30 -67.5 63.5t-32.5 85.5 q-16 113 -17 121v2zM905 481l10 -149q1 -13 2.5 -39t2.5 -39q0 -24 20.5 -35.5t44.5 -3.5q7 3 13.5 6.5t10.5 7t8 10t5.5 10t4 12t3 11.5t2.5 13t2 12q0 4 1 11t1 11q11 144 -18 244q-1 3 -3 5t-3 5q-27 35 -62 17q-17 -6 -32 -27q-16 -27 -13 -80v-2z" />
<glyph unicode="&#x26;" horiz-adv-x="1179" d="M49 451q0 101 59 204t146 185q-158 211 -158 348q0 84 58 156t149 112.5t189 40.5q153 0 252.5 -92t99.5 -219q0 -18 -3 -37t-6 -33.5t-12.5 -35.5t-13.5 -31t-17.5 -33t-17.5 -29t-20.5 -31.5t-18.5 -29.5q-4 -6 -21.5 -31.5t-25.5 -40.5q-14 -20 -14 -27q0 -1 -1 -8.5 t-0.5 -15t2.5 -21t7.5 -29.5t14.5 -36t25.5 -45.5t37.5 -53.5q20 33 20 82q11 95 119 95h145q39 0 57.5 -16t18.5 -60q0 -41 -10 -83.5t-18 -62.5t-31 -73v2q-12 -28 -17 -43q-3 -4 -10 -18.5t-10 -20.5q-4 -9 -14.5 -30t-15.5 -33.5t-5 -18.5q0 -7 6.5 -17.5t23 -30 t23.5 -28.5v2q3 -4 16.5 -21t19 -23.5t17 -22t17 -26t13.5 -25t12.5 -29t7.5 -29.5v-18l-2 -11q-6 -21 -21 -34t-40.5 -18.5t-44.5 -7t-50 -1.5h-10q-82 0 -124.5 13.5t-98.5 66.5q-103 -69 -293 -80q-78 0 -146 26t-116 70.5t-82.5 102.5t-51 123t-16.5 131zM360 410 q5 -52 36 -88.5t98 -36.5q13 0 55 6q51 19 51 24q0 3 4 33.5t6 60t-4 67t-22 64t-53.5 41.5t-92.5 7q-36 -4 -61 -66t-17 -112zM403 1182q0 -43 22.5 -100.5t41.5 -53.5v-2q65 11 65 197q0 43 -40 43q-42 0 -65.5 -21.5t-23.5 -62.5z" />
<glyph unicode="'" horiz-adv-x="358" d="M64.5 1214.5q-0.5 39.5 0.5 98t5 125.5v4h2q5 0 42 4t73 7.5t69 2.5t37 -10q0 -51 2 -271t2 -233q1 1 -44.5 0t-104.5 -2t-82 0v2q0 72 -0.5 152.5t-1 120z" />
<glyph unicode="(" horiz-adv-x="643" d="M49 416q14 330 12 444v49q1 42 1.5 91.5t1 93.5t12.5 92t35 86q94 181 307 184q83 -4 149 -12l2 -2q5 -38 5.5 -76.5t-2.5 -102t-3 -73.5q-168 -51 -188 -164q-9 -27 -12 -53q-12 -58 -25 -195q0 -21 -1.5 -109.5t3 -144.5t19.5 -108q29 -65 88.5 -107.5t121.5 -44.5h3 v-10q-3 -36 -3.5 -119t-3.5 -117q-5 -7 -11.5 -11t-17.5 -5.5t-17 -2t-21.5 0t-18.5 0.5h-34q-71 3 -134 23q-62 22 -112 61q-41 31 -78 80q-2 2 -8 14q-59 107 -70 238z" />
<glyph unicode=")" horiz-adv-x="643" d="M63 254v10h3q62 2 121.5 44.5t88.5 107.5q15 52 19.5 108t3 144.5t-1.5 109.5q-13 137 -25 195q-3 26 -12 53q-20 113 -188 164q0 19 -2 60t-2.5 66t0.5 61t4 65l2 2q66 8 149 12q213 -3 307 -184q23 -38 35 -86t12.5 -92t1 -93.5t1.5 -91.5v-49q-2 -114 12 -444 q-11 -131 -70 -238q-6 -12 -8 -14q-37 -49 -78 -80q-50 -39 -112 -61q-63 -20 -134 -23h-34q-3 0 -18.5 -0.5t-21.5 0t-17 2t-17.5 5.5t-11.5 11q-3 34 -3.5 117t-3.5 119z" />
<glyph unicode="*" horiz-adv-x="757" d="M39 1255q11 3 86 80.5t92 89.5l2 2q8 -2 80 -69t82 -74q2 2 41 38t76 70t34 31q4 -6 43 -45t84 -82.5t46 -44.5q-3 -26 -66 -87t-70 -81q6 0 73 -79.5t71 -81.5q3 -10 -9.5 -25t-30 -30t-20.5 -19l-133 -107q-3 -3 -6 0q-5 7 -20 22.5t-19 16.5q-96 96 -108 101 q-12 -5 -64.5 -56.5t-71.5 -64.5q-8 -8 -14 -8q-130 123 -176 161q7 12 31.5 39t59 64t50.5 55q1 1 -2 10q-8 17 -72 89.5t-69 84.5z" />
<glyph unicode="+" horiz-adv-x="884" d="M27 786q10 -3 129 7.5t131 13.5q0 15 4 129q1 23 4.5 59t3.5 41q1 9 3 20t3 17q14 -10 77.5 -10.5t133.5 2t86 0.5q0 -13 -0.5 -46.5t-0.5 -63v-61.5t1.5 -54.5t3.5 -28.5q26 -3 120 -3t128 -5q-2 -48 -2 -145t-6 -152q-7 -4 -118 -4.5t-126 -9.5q3 -27 -5.5 -133 t-8.5 -117v-4q0 -8 -75 -8t-152.5 2.5t-81.5 0.5q0 1 -1.5 2t-1.5 5q-5 45 -3.5 100t-0.5 109q0 36 -4 40h-4q-35 0 -123.5 6.5t-103.5 14.5q-2 2 -2 4q2 41 0.5 93t-5 114.5t-3.5 64.5z" />
<glyph unicode="," horiz-adv-x="350" d="M43 8q0 58 8 236v2h2q25 8 56.5 10t56 0t66.5 -6t67 -6h2l-8 -236h-4q0 -1 -1 -3t-1 -3q0 -6 -3.5 -23t-4.5 -22l-17 -82q-3 -13 -8 -39.5t-8 -40.5q-6 3 -25 3.5t-47.5 0t-69.5 0.5q-3 3 4.5 36t20 83t16.5 80l-96 8q-4 0 -6 2z" />
<glyph unicode="-" horiz-adv-x="1048" d="M63 414q0 37 3.5 181t3.5 146h907q1 -38 -1.5 -108t-1.5 -127t9 -107h-2q-22 0 -459.5 7.5t-458.5 7.5z" />
<glyph unicode="." horiz-adv-x="385" d="M65.5 77q-0.5 48 1 102.5t1.5 60.5q39 16 134.5 16.5t121.5 -12.5q0 -1 -3 -53t-6.5 -111t-3.5 -76v-2v-2h-4l-231 2h-6q-4 27 -4.5 75z" />
<glyph unicode="/" horiz-adv-x="806" d="M33 -2q-11 0 1 41t31.5 90.5t20.5 54.5q34 110 66 181q14 54 192 532q18 46 44.5 131t33.5 107q4 6 19.5 50t39 120.5t41.5 146.5q31 -6 140 -1.5t131 -14.5q-3 -8 -7 -19t-6 -18q-4 -15 -90 -297q-9 -26 -25.5 -71.5t-30 -83t-24.5 -70.5q-17 -51 -46.5 -141.5 t-55 -164.5t-49.5 -139q-21 -62 -45 -123l-117 -295q-2 -6 -6 -10q-14 -3 -35.5 -3t-83 -0.5t-137.5 -2.5h-2z" />
<glyph unicode="0" horiz-adv-x="1058" d="M58 773.5q-1 48.5 2.5 124.5t14 131t33.5 119t58 118q9 15 20 26q137 154 318 162q82 3 153.5 -20.5t124 -65.5t94 -100t67 -122.5t38.5 -135.5q23 -147 16 -246q4 -82 -5 -169t-31.5 -175.5t-63 -165t-95 -135.5t-133 -90t-171.5 -25q-73 3 -144 27q-58 21 -103 54.5 t-74.5 68t-51 86.5t-32.5 92t-18 104t-8.5 102.5t-3.5 106.5q-4 80 -5 128.5zM362 684q2 -114 29 -213q3 -9 8 -29t9.5 -33t12.5 -27.5t20.5 -23.5t29.5 -12q46 -15 76 -4q37 11 54 34t30 64q10 31 14.5 60.5t6.5 75.5t3 63q14 349 -57 451q-47 59 -125 32q-20 -4 -39.5 -20 t-30.5 -35q-15 -25 -30 -149q-13 -120 -11 -234z" />
<glyph unicode="1" horiz-adv-x="733" d="M12 1001q5 59 114.5 246t133.5 211q126 4 186 4q117 0 216 -8q10 -146 10 -344q0 -156 -11.5 -465t-11.5 -465q0 -96 2 -143q0 -37 -125 -37q-72 0 -200 14v2v199q0 132 12 393t12 393q0 23 -2 37q-9 2 -19 -15t-18 -38.5t-22 -40t-29 -18.5q-27 0 -137.5 29.5 t-110.5 45.5z" />
<glyph unicode="2" horiz-adv-x="1026" d="M66 4q4 50 4.5 169.5t13.5 197t53 141.5q57 64 133.5 116t162.5 102.5t140 94.5q40 26 59 74t14 94t-33 82.5t-74 42.5q-32 0 -57 -11t-40.5 -32.5t-26 -43t-16 -54t-8 -54t-4.5 -53.5v-4h-2q-193 -22 -303 -10h-2v4q-25 142 1.5 265.5t100.5 207.5q51 66 165.5 97 t229.5 25.5t191 -36.5q89 -45 139.5 -135.5t61.5 -206.5q5 -150 4 -184q-6 -72 -38 -128.5t-77.5 -91t-104 -67.5t-112.5 -57t-109 -60t-88 -77q-1 -2 -5.5 -14l-7.5 -20t-7 -21t-6 -22t-3.5 -18.5t0.5 -15.5t7 -8q57 -5 254.5 -0.5t251.5 4.5q15 -36 16.5 -94t-2.5 -103 q0 -8 -0.5 -22.5t-0.5 -23t1 -21t4 -23.5q0 -2 -8 -2l-778 -10h-92q-2 2 -2 6z" />
<glyph unicode="3" horiz-adv-x="974" d="M41 1133.5q2 32.5 12 58.5q24 79 86.5 137.5t143 86.5t173.5 34t176.5 -12t153 -60t103.5 -102q33 -52 29 -148q8 -314 -5 -677q-1 -19 -2.5 -59t-3.5 -63.5t-9 -56.5t-19 -59q-62 -143 -205 -190q-135 -42 -334 -15q-17 3 -35.5 7.5t-41.5 11.5t-36 10q-60 17 -96 53 q-58 58 -68 146q-5 33 -9 102t-9 108q0 3 2 3h2q40 -3 127 9t139 9h2l2 -2q17 -50 68 -89t107 -41t100 52q26 40 17.5 93.5t-50.5 84.5q-41 30 -109.5 35t-115.5 -8q-14 31 -14.5 83.5t4 111t0.5 87.5v3q23 8 65 10t78 3.5t71 10t54 36.5t16 77q-2 52 -28.5 80t-65.5 28 t-80 -14t-74.5 -43.5t-46.5 -63.5q-29 -4 -270 -4v4q0 13 -3 56.5t-1 76z" />
<glyph unicode="4" horiz-adv-x="958" d="M23 694q17 24 64.5 113.5t147.5 258.5t234 370q0 2 2 2q4 0 85 2.5t140 3.5t97 -2h4q0 -1 -2.5 -77.5t-5.5 -179.5t-5.5 -217.5t-3 -191.5t1.5 -102l13 2q8 4 63.5 0t61.5 -4l-13 -297q-24 -8 -64 -5.5t-61 -0.5l-3 -41q-19 -295 -25 -320q-5 -5 -17.5 -8t-41 -4 t-54.5 -1.5t-82 -0.5h-100q-3 3 2.5 97t12.5 192.5t7 103.5q-13 3 -122 3.5t-211 1.5t-105 5q-4 12 -9.5 47t-9.5 105.5t-1 144.5zM266 672q26 -1 61.5 -2t122 -2t87.5 2l6 438q-4 29 -169 -249q-92 -155 -108 -187z" />
<glyph unicode="5" horiz-adv-x="1015" d="M47 1425h2q1 0 226.5 5t402.5 8t244 0q3 0 2.5 -49t-3 -102.5t-4.5 -102.5l-2 -49q-38 -5 -264 -10t-295 -5h-2v-4v-2q0 -1 1 -3t1 -3q2 -8 4.5 -34.5t8.5 -35.5l2 -2l2 -2h2q116 21 215 4q80 -12 143 -51t103 -97.5t66.5 -130.5t36.5 -155t9 -164.5t-12 -165.5 q-20 -92 -95 -160.5t-173.5 -100.5t-208.5 -31t-201.5 35t-151 113t-57.5 189q0 55 12 119v4l291 11v-2q0 -1 1 -4.5t1 -4.5q7 -71 43 -100t86 -18q46 8 78 37t46.5 68.5t14.5 85t-13.5 86t-42.5 72.5t-68 44q-65 12 -230 4t-213 -4q-4 0 -4 2q0 138 -2 359t-2 347z" />
<glyph unicode="6" horiz-adv-x="1067" d="M77 719.5q1 83.5 3.5 142t7.5 139.5q1 8 4 71.5t12 96.5q3 16 11 29q52 117 191.5 184.5t295.5 67.5q75 2 141 -24t110.5 -71t75 -104.5t34.5 -125t-11 -132.5q-47 -8 -147.5 -10.5t-122.5 -3.5h-4v2q-4 95 -47 141q-30 31 -75 29.5t-75 -31.5q-36 -30 -50.5 -88 t-12.5 -111.5t7 -132.5t3 -120v-2q61 33 104 45q161 39 248 14q87 -26 142 -88q54 -51 69 -172l4 -49q10 -95 -18.5 -172t-85 -125.5t-133.5 -81.5t-165 -39.5t-179 0.5q-60 11 -109 39.5t-84 66t-61 94t-42 111t-25.5 129.5t-13 136.5t-2.5 145zM521 373.5 q12 -37.5 46 -56.5q22 -11 59 -10t66 17q52 23 60 67v19v4v4q0 20 -2 26q-14 57 -66 66q-95 14 -152 -61q-23 -38 -11 -75.5z" />
<glyph unicode="7" horiz-adv-x="985" d="M51 14q67 145 256.5 535t282.5 600q-381 24 -522 18h-5q3 31 5.5 71.5t3 69.5t1.5 74t1 64v2q33 1 210.5 5.5t252.5 5.5t204.5 -2.5t223.5 -12.5v-2q-5 -26 -1.5 -142.5t3.5 -142.5q-72 -166 -177 -361t-229.5 -415.5t-198.5 -366.5q-25 0 -93 -5t-125 -5t-93 10z" />
<glyph unicode="8" horiz-adv-x="1105" d="M128.5 308q-21.5 110 9.5 222.5t112 190.5q-52 54 -80 129.5t-30.5 154t19.5 157.5t64 141t109 102.5t149 44.5q162 5 237 -2.5t138 -44.5q6 -4 21 -14.5t21 -16t18 -17t23.5 -27t25.5 -38.5q19 -34 30 -78q15 -64 21 -104q4 -28 4 -37v-8v-12v-37q0 -40 -8 -64 q-18 -76 -52 -132.5t-98 -108.5v-2q97 -70 132.5 -186t9 -231t-100.5 -198q-50 -60 -147.5 -90t-199.5 -27t-198 40t-143 102q-65 81 -86.5 191zM453.5 468q-5.5 -31 7.5 -60.5t45 -42.5q47 -19 117 -7q21 6 30 15q9 5 27 37q3 4 4.5 8.5t2 10t1.5 7.5l1 5q1 5 1 8 q0 16 -2 22q-11 42 -35 61q-55 48 -125 33q-28 -11 -48.5 -38.5t-26 -58.5zM471 1032q-5 -49 19 -91t77 -46q60 -5 88 50q25 48 3 95q-27 57 -102 47q-9 -2 -19 -4q-16 -5 -17 -6q-6 -3 -24 -16q-2 -2 -8 -7t-10 -9t-5 -7q-2 0 -2 -2v-4z" />
<glyph unicode="9" horiz-adv-x="1001" d="M41.5 998q-6.5 141 32.5 227q23 40 45 69q125 147 389 158q18 -1 68.5 -2t74 -2.5t65.5 -8t67 -17.5t53.5 -32.5t48.5 -52.5q29 -45 45 -112t19.5 -119t4.5 -141l4 -303q1 -26 4 -89.5t3 -89.5t-4 -90q-23 -164 -103 -276q-62 -74 -172 -104.5t-222 -18t-215 62 t-155 125.5q-70 105 -49 262v11q28 1 104 5t111.5 4.5t106.5 -5.5q11 -43 47.5 -72t81.5 -25q121 14 108 252l-2 2q-138 -56 -279 -9t-219 167q-56 83 -62.5 224zM395 1032q3 -42 15 -76v-2q19 -40 62 -56.5t86.5 -5t64.5 43.5q4 7 6.5 13.5t5.5 11.5q3 7 4 13t4 13 q2 6 2 27q3 40 -26.5 70.5t-72 37t-87.5 -11.5q-64 -26 -64 -78z" />
<glyph unicode=":" horiz-adv-x="387" d="M65.5 77q-0.5 48 1 102.5t1.5 60.5q39 16 134.5 16.5t121.5 -12.5q0 -1 -3 -53t-6.5 -111t-3.5 -76v-2v-2h-4l-231 2h-6q-4 27 -4.5 75zM65.5 765q-0.5 48 1 102.5t1.5 60.5q39 16 134.5 16.5t121.5 -12.5q0 -1 -3 -53t-6.5 -111t-3.5 -76v-2v-2h-4l-231 2h-6 q-4 27 -4.5 75z" />
<glyph unicode=";" horiz-adv-x="360" d="M46.5 765q-0.5 48 1 102.5t1.5 60.5q39 16 134.5 16.5t121.5 -12.5q0 -1 -3 -53t-6 -111t-3 -76v-2v-2h-4l-232 2h-6q-4 27 -4.5 75zM47 8q0 58 8 236v2h2q25 8 56.5 10t56 0t66.5 -6t67 -6h2l-8 -236h-4q0 -1 -1 -3t-1 -3q0 -6 -3.5 -23t-4.5 -22l-17 -82 q-3 -13 -8 -39.5t-8 -40.5q-6 3 -25 3.5t-47 0t-69 0.5q-3 3 4.5 36t20 83t16.5 80l-97 8q-4 0 -6 2z" />
<glyph unicode="&#x3c;" horiz-adv-x="727" d="M8 553q46 58 109.5 125.5t151 155.5t124.5 127q62 64 117 120q25 -14 79 -69.5t77 -71.5q-38 -48 -172.5 -186.5t-188.5 -206.5q55 -48 181 -173.5t198 -183.5l-22 -20l-33 -33q-48 -48 -105 -98l-2 2q-50 52 -126.5 121t-135 120.5t-129 125t-123.5 145.5z" />
<glyph unicode="=" horiz-adv-x="915" d="M63 244q0 32 3.5 154.5t3.5 125.5h776q1 -32 -1 -93t-1 -110t8 -90h-2q-20 0 -393 6.5t-394 6.5zM63 668q0 32 3.5 154.5t3.5 125.5h776q1 -32 -1 -93t-1 -110t8 -90h-2q-20 0 -393 6.5t-394 6.5z" />
<glyph unicode="&#x3e;" horiz-adv-x="729" d="M45 190q72 58 198 183.5t181 173.5q-55 66 -188 204.5t-173 188.5q22 15 76 71t80 70q55 -56 117 -120q37 -39 124.5 -127t151 -155.5t109.5 -125.5q-69 -91 -158.5 -178.5t-192.5 -179.5t-163 -154l-2 -2q-57 50 -105 98l-32 33z" />
<glyph unicode="?" horiz-adv-x="919" d="M23 1020v2q5 105 55.5 199.5t143 158t204.5 68.5q93 9 179.5 -19t148 -81t94.5 -132.5t22 -168.5q-13 -114 -96 -218q-22 -30 -62.5 -72.5t-60.5 -68.5q-72 -101 -100 -250q-13 -50 -8 -69v-2q-46 -5 -126 -4t-126 -1h-2q-8 8 -8 46l4 77q13 82 29.5 137.5t50.5 106.5 q11 22 35 55t46.5 63t46 65t36 66t15 59.5t-16.5 52t-60 38.5q-39 14 -61 11.5t-40.5 -20t-29.5 -37t-28 -39.5t-36 -27q-58 -3 -83.5 -3t-83 3t-82.5 4zM278.5 77q-0.5 48 1 102.5t1.5 60.5q39 16 134.5 16.5t121.5 -12.5q0 -1 -3.5 -53t-6.5 -111t-3 -76v-2v-2h-4l-231 2 h-6q-4 27 -4.5 75z" />
<glyph unicode="@" horiz-adv-x="1134" d="M55 770v61q2 119 22.5 209.5t80.5 167.5q52 66 124.5 94.5t174.5 40.5q36 7 104 7q67 0 170 -15q127 -16 219 -102q36 -32 61.5 -77.5t38 -87t19.5 -99.5t8.5 -95.5t1.5 -95.5v-110q0 -109 -12 -185q-13 -77 -73.5 -121.5t-149.5 -46.5q-36 0 -84 27q-23 23 -37 41 q-67 -55 -166 -55q-107 0 -174 73q-64 73 -59 244q3 132 86 227q34 43 108.5 76t151.5 33q74 0 121 -31l6 -4q23 -26 20 -69q0 -7 -1 -27.5t-1 -32.5q-2 -35 -2 -119q0 -206 43 -213q14 11 23.5 70t9.5 100q2 46 -2 123v58q-12 227 -146 301h2q-46 21 -147 34q-40 5 -55 5 q-129 0 -203 -74q-28 -30 -46 -69t-26.5 -92t-11.5 -85t-6 -94q-2 -31 -2 -92q0 -138 20 -258q13 -88 39 -143.5t78 -88.5q64 -39 203 -39q12 0 33 1t28 1h-2q69 4 170.5 37.5t181.5 73.5l78 -168q-60 -38 -144.5 -74t-139.5 -43q-72 -16 -203 -16q-74 0 -142 6 q-179 23 -274 150q-37 54 -67 141t-35 149q-15 261 -15 371zM498 586q0 -38 26.5 -56.5t61.5 -1.5q55 21 55 127q0 28 3 77.5t7 49.5q-47 5 -77.5 -4t-47.5 -43q-5 -8 -9 -16t-7 -17l-5 -15t-3.5 -16.5t-2 -15.5t-1 -16.5t-0.5 -15v-16.5v-15v-6z" />
<glyph unicode="A" d="M33 4q1 5 40 231.5t112.5 567.5t160.5 631q28 4 42 2q7 -1 26 -1q18 1 47 1q59 2 137 8q8 -34 78.5 -340t89.5 -385l154 -717v-2q-52 -10 -110 -10q-77 0 -165 18h-2q-14 38 -45 164.5t-51 169.5q-31 4 -47.5 4.5t-37.5 -1t-42 -1.5q-16 -38 -40.5 -166t-49.5 -176 q-1 0 -3 -1t-3 -1q-20 -2 -34 -2h-10q-18 1 -92 3q-50 1 -100 1h-51q-2 0 -4 2zM406 586h151q-50 429 -77 429q-13 0 -27 -82q-3 -14 -44 -321q-1 -14 -3 -26z" />
<glyph unicode="B" horiz-adv-x="993" d="M66 712q2 255 2 431.5t-2 273.5l2 2q73 20 148.5 31.5t155.5 12.5h13q74 -1 141 -11q73 -12 138.5 -42.5t113 -77.5t75.5 -122t28 -170q0 -150 -101 -319q-6 -15 -3.5 -22t14.5 -21q29 -36 37.5 -46.5t32.5 -43.5t32 -50t22.5 -49.5t17.5 -58.5q4 -31 4 -66q0 -33 -7 -67 q-11 -63 -35 -112.5t-61 -82t-77.5 -55.5t-96 -34t-103.5 -17q-44 -6 -103 -6h-10q-65 0 -111.5 2.5t-112 6.5t-103.5 5q-36 0 -45 4q-7 145 -7 468q0 108 1 236zM336 376q4 -56 26 -87l5 -2q8 0 46 -1h33q14 -1 22 0q16 1 45 5.5t49 16t36 30.5q23 30 23 72q0 36 -17 79 q-12 25 -37 44.5t-51 25.5q-30 8 -90 11.5t-70 4.5q-12 -47 -18 -95q-3 -28 -4 -58q0 -22 2 -46zM347 1000q-1 -21 -1 -40q0 -70 12 -100q44 -4 88 -7h14q38 0 74 14q42 17 62 55q27 49 27 85q0 21 -9 37q-32 60 -100 76q-51 9 -88 9q-49 0 -76 -15v-9q0 -24 -3 -105z" />
<glyph unicode="C" horiz-adv-x="1079" d="M55 1100q-2 12 -2 25q0 50 25 112q38 110 112 178q41 31 105 47q69 23 140 25h16q61 1 119 -13q64 -16 124 -48t107.5 -75.5t82.5 -99.5q35 -55 53 -117q17 -57 17 -122v-10q-2 -70 -26 -140q-46 -11 -100 -12h-18q-44 0 -78 4q-42 5 -103 16q-3 21 -5 58t-3.5 63.5 t-9.5 57.5t-21 51t-40 32q-25 12 -59 11h-6q-4 -1 -17.5 -3t-19.5 -3t-18 -4t-18.5 -5.5t-14.5 -7t-14 -10.5q-5 -5 -12 -27q-4 -8 -9.5 -116.5t-6.5 -236.5v-28q0 -111 7 -202q16 -160 117 -189q10 -1 19 -2q35 -1 67 15q40 18 60 59q18 36 19.5 108.5t6.5 94.5 q19 -3 74 -3q27 0 63 1h28q85 0 110 -11q23 -78 22 -155v-15q-2 -84 -37 -160.5t-88.5 -135t-131.5 -93.5t-165 -37q-45 -5 -91 -5q-15 0 -30 1q-61 2 -120 22.5t-106.5 51.5t-79 84t-38.5 119q-9 174 -9 471q0 169 3 379z" />
<glyph unicode="D" horiz-adv-x="987" d="M79 954q2 170 2 294q0 93 -1 159q1 1 3 4t3 4q68 17 152 21q48 2 102 2q42 0 86 -1q62 -2 105 -2q29 0 49 1q65 -17 125.5 -64t97.5 -108q84 -131 123 -301q14 -43 18 -129q-1 -29 -3.5 -94.5t-4 -102.5t-7 -90.5t-14.5 -97.5q0 -1 -1 -2.5t-1 -2.5q-65 -193 -260 -434 q-180 -6 -538 -6l-2 -2q-26 192 -32 424q-4 139 -4 301q0 108 2 227zM371 985q3 -46 3 -132q0 -52 -1 -119t-2 -123q0 -93 4 -156q21 -18 63 -19h10q36 0 66 6q6 -1 11.5 0.5t13.5 6t12 6.5q34 20 63 65q59 89 59 183q0 36 -9 73q-7 39 -15 66.5t-23 61t-39 56.5t-57 35 q-40 5 -76 5q-42 0 -77 -7h-4h-2v-8z" />
<glyph unicode="E" horiz-adv-x="1003" d="M74 972q0 230 12 439q240 12 543 17q101 2 169 1q135 0 136 -6q6 -43 6 -91.5t-3 -107.5t-3 -91v-3q-76 -17 -176 -20q-46 -1 -89 -1q-49 -1 -91 1q-24 1 -51 2q-60 0 -130 -6h-6l-2 -2q0 -6 1 -13q0 -25 -4 -64q-4 -49 -3.5 -89.5t8.5 -73.5l2 -2q36 -3 78 -4t94 -1 t80 -1v-2q7 -42 7 -88v-19q0 -39 -2 -85q-1 -39 -1 -67v-26q-35 -10 -92 -10.5t-100.5 -1t-55.5 -10.5q-8 -44 -7.5 -108t7.5 -148l2 -2q69 -1 251 -7q125 -4 213 -4q41 0 73 1v-5q4 -51 4 -96q0 -104 -20 -172h-41q-89 0 -227 -3q-153 -4 -282 -4q-16 1 -32 1 q-141 0 -258 10q0 155 -6 443q-5 264 -5 480q1 20 1 39z" />
<glyph unicode="F" horiz-adv-x="999" d="M61 4q0 230 2.5 640.5t2.5 746.5v2q80 14 246 25q130 9 281 9q41 0 83 -1q200 -3 305 -29q0 -21 1.5 -89.5t1.5 -125.5t-3 -88q-37 -3 -242.5 -13.5t-304.5 -19.5q-19 -50 -19 -92v-11q3 -46 23 -81q3 -3 4 -3q56 -7 120.5 -7t137.5 7q7 -16 7 -90q0 -25 -1 -56 q-1 -53 -1 -95q0 -56 2 -94q0 -4 -7 -4q-42 -7 -131.5 -15.5t-130.5 -15.5h-2q-11 -139 -16 -502q-84 -8 -210 -8q-7 0 -13 -1q-115 0 -134 9z" />
<glyph unicode="G" horiz-adv-x="999" d="M54 730q-1 15 -1 30t1 30q0 29 1 62q4 159 21 268q12 79 39 138.5t82 97.5q68 58 198 76q47 5 92 5q43 0 83 -5q84 -8 153 -44.5t117 -90t70 -133.5q14 -54 14 -115q0 -31 -4 -64l-2 -12q-2 -2 -5 -3.5t-9 -2t-11.5 -1t-18 -1t-22.5 -0.5q-19 0 -50.5 -0.5t-46.5 -0.5 t-41 1.5t-55 5.5q-8 26 -18 50.5t-27 54t-41.5 47.5t-52.5 18q-19 3 -39 3q-14 0 -29 -2q-36 -3 -57 -24q-10 -10 -22 -55q-28 -95 -36 -267q-3 -66 -3 -129q0 -101 8 -194q14 -139 68 -182q19 -13 47 -19q12 -2 25 -2q45 0 102 21q50 22 63 74q6 25 9 67.5t-7 54.5 q-8 2 -35 2q-17 0 -42 -1h-29q-37 0 -45 4q-5 40 -5 94q0 6 0.5 11.5t0.5 11.5q0 54 -5 98v2q0 2 3 2q2 0 4 2q31 19 118 21h38q72 0 154 -6q105 -7 109 -7h5l2 -2q16 -145 16 -260.5t-16 -202.5q-10 -98 -60 -155t-135 -89q-152 -44 -268 -44q-95 0 -166 30q-79 34 -123 92 t-70 150q-15 56 -24 143q-1 13 -5 54.5t-5 52.5t-4 45.5t-3.5 48.5t-2.5 45t-2 51v50z" />
<glyph unicode="H" horiz-adv-x="1005" d="M70 1430v2h2h4q20 -4 54 -4q32 0 78 4q31 2 55 2q49 0 73 -9q11 -83 18 -263.5t25 -274.5h2q19 -5 40 -7t49.5 -1t41.5 2t49.5 4.5t40.5 3.5h2q12 148 12 319q0 103 -4 215q50 16 132 22q45 3 85 3q34 0 63 -2l56 -1434q-54 -9 -160.5 -9.5t-125.5 -2.5h-3 q-14 95 -16.5 288t-13.5 277l-2 2q-57 10 -112 10q-65 0 -126 -14q-4 -48 -4 -135q0 -62 2 -146q1 -50 1 -91q0 -125 -11 -177q-25 -15 -76 -15q-7 1 -15 1q-62 2 -109 8q-15 2 -29 3q-28 0 -50 -9q-14 189 -24 661q-7 300 -6 529q0 131 2 238z" />
<glyph unicode="I" horiz-adv-x="507" d="M76 -8q11 134 11 355q-1 167 -7 385q-5 180 -5 323q0 256 17 391v4h7q11 0 36 -2q35 -2 41 -2q148 -6 209 -6h16h50v-8q0 -159 -6.5 -473.5t-6.5 -477.5v-13q0 -162 11 -458q-20 -20 -104 -22h-31q-66 0 -126 6q-32 3 -58 2q-32 0 -54 -4z" />
<glyph unicode="J" horiz-adv-x="960" d="M20 590q50 10 124 10h26q92 -2 168 -14v-2v-11q16 -226 123 -233q12 -2 22 -2q41 0 67 34q31 43 36 111q-7 340 -7 594q0 211 5 363v14l299 4q-1 -38 -1 -88q0 -118 5 -301t5 -304q0 -51 -1 -91q-1 -26 -2.5 -77t-2.5 -84t-4.5 -82.5t-10.5 -85t-17.5 -79t-28 -75.5 t-41 -64t-57 -55.5t-74.5 -38.5q-82 -41 -189 -48q-25 -2 -50 -2q-77 0 -144 17q-64 19 -112.5 67t-75.5 108.5t-42.5 136t-19.5 142.5q-1 36 -1 73q0 31 1 63z" />
<glyph unicode="K" horiz-adv-x="993" d="M74 481q2 173 7 475q5 258 5 423v53h28q46 0 116 -2q94 -3 130 -3q3 -67 2 -199v-46v-47q0 -133 3 -199q0 -1 1 0.5t3.5 5t5.5 6.5q60 78 146.5 241.5t140.5 240.5q18 -1 61 -1q32 1 78 1h32q80 0 107 -7q-29 -99 -93.5 -219t-140.5 -249.5t-114 -219.5l350 -727 q-31 -6 -71 -8q-32 -2 -58 -2h-12q-30 0 -76.5 3t-67.5 3q-51 58 -100.5 155t-100 211.5t-81.5 168.5q-1 -36 -1 -90q0 -79 2 -197q4 -196 5 -242q-57 -14 -144 -14h-7q-92 0 -148 14q-9 259 -9 424q1 24 1 47z" />
<glyph unicode="L" horiz-adv-x="946" d="M61 -2v37q6 151 9.5 282.5t5.5 221.5q1 68 1 156q-1 30 -1 62q0 128 -0.5 194.5t-3.5 232.5t-4 256q38 18 154.5 18t172.5 -24q-3 -84 -3 -231q0 -135 2 -324q4 -255 4 -411q0 -85 -2 -142v-2q12 4 62 4q67 0 205 -8q191 -10 246 -10q13 0 19 1q0 -31 -2 -45 q-3 -37 -3 -60q0 -12 1 -20q5 -84 5 -113q-1 -31 -7 -49q-6 -20 -13.5 -22t-29.5 -2h-9q-10 1 -32 1t-56 -1q-70 -2 -231 -4q-54 -1 -126 -1q-145 0 -364 3z" />
<glyph unicode="M" horiz-adv-x="993" d="M64 302v45q0 288 6 1058q33 9 85 11q17 0 34 1q33 0 63 -2q22 -2 46 -1.5t50 1.5h2q28 -31 72 -156t63 -153q6 -6 13 -6q4 -2 13.5 24t21.5 67.5t25.5 85.5t29.5 84.5t30 57.5q19 -1 41 -1h36q44 2 119 5.5t108 3.5q-2 -58 -2 -149q0 -100 2 -239q2 -108 3 -193 q0 -123 -5 -195l-7 -653q-37 4 -87 4q-12 0 -25 1q-39 1 -83 -1q-58 -2 -75 -2q-1 29 -7 345t-22 452q-14 -22 -42 -98.5t-52.5 -138.5t-34.5 -62q-8 0 -19.5 16.5t-23 41.5t-24 55.5t-23 61t-18.5 55.5t-13.5 40t-5.5 14q-11 -120 -11 -284q0 -210 18 -492q-40 -6 -86 -8 q-23 -1 -51 0h-64q-68 2 -86 2q-3 0 -6 6q-8 27 -8 296z" />
<glyph unicode="N" horiz-adv-x="983" d="M63 885q0 313 19 549q36 8 92 8q37 0 103.5 -6.5t66.5 -14.5q20 -52 52 -113.5t55 -115.5q13 -33 90.5 -187.5t81.5 -154.5q6 4 10 40t4 73q0 56 -3 152.5t-3 144.5q0 46 4 182q71 12 147 12q78 0 136 -12v-660q2 -115 2 -350q0 -40 -1 -114.5t-1 -112.5q0 -27 1 -81.5 t1 -82.5v-41q-30 -10 -68 -10q-28 0 -94 5t-94 5q-27 62 -84.5 186.5t-96.5 213.5t-67 167l-21 62q-20 61 -26 61t-10.5 -170t-4.5 -350q0 -123 2 -170q-39 -10 -90 -10q-33 0 -99 6t-97 6v143q0 131 -3.5 372t-3.5 368z" />
<glyph unicode="O" horiz-adv-x="989" d="M61 820q0 91 5 167q4 231 108 350q24 25 47 37q90 44 197 56q37 4 74 5q70 1 138 -15q106 -24 183 -83q60 -54 84 -125q22 -51 33 -127q5 -59 5 -134q0 -32 -1 -68q-4 -68 -4 -207t-6 -213l-6 -68q-10 -166 -78 -276q-59 -84 -211 -125q-77 -23 -171 -23q-30 0 -63 2 q-101 9 -169 39.5t-101 104.5q-45 79 -49 227q-2 40 -7 154.5t-6.5 172.5t-1.5 149zM285 637q2 -15 12.5 -125.5t26.5 -163.5q26 -53 84 -76q36 -14 74 -14q22 0 46 4q64 14 105 60q19 25 26.5 43t9 29t2 46t3.5 68q1 22 2 49l1.5 40.5t0.5 16.5v99l-4 139l-2 20 q-1 19 -3 47.5t-3 49.5q-5 58 -33 104.5t-74 69.5q-28 10 -55 10q-16 1 -30 -3q-40 -8 -75 -36q-72 -57 -96 -141q-21 -94 -21 -228q0 -51 3 -108z" />
<glyph unicode="P" horiz-adv-x="991" d="M61 1423q73 20 155 30q68 8 141 8h29q88 -2 170 -17.5t156.5 -50t131 -85.5t92.5 -128.5t41 -173.5v-2q0 -38 -2 -54q-16 -127 -100 -230q-83 -102 -207 -152q-87 -35 -176 -35q-38 0 -76 6q2 -30 2 -71t1 -158t5 -285v-2q-1 0 -3 -1.5t-3 -1.5q-53 -14 -165 -16h-31 q-90 0 -146 8q-8 186 -8 627q0 28 0.5 56.5t0.5 56.5q0 443 -8 671zM360 1137q2 -37 2 -71v-34v-31q0 -37 2 -77q4 -58 15 -95h6q12 1 66 3t79.5 4.5t63.5 16t61 36.5q28 35 28 82q-1 13 -3 27q-10 64 -62 94q-50 41 -118 53q-27 5 -54 5q-40 0 -79 -11q-5 0 -7 -2z" />
<glyph unicode="Q" horiz-adv-x="1021" d="M68 496q-1 9 -1 26t1 42v65v97q-1 39 -1 67t1 45q0 33 2 104t6.5 116t14 103t22.5 105q29 87 142 141.5t269 54.5q56 0 89 -2t73 -9t66 -21.5t55 -39.5t52 -64t46 -93q60 -188 60 -479q0 -117 -7 -213q-2 -23 -3.5 -64.5t-4.5 -75.5t-10 -63q-5 -37 -10 -53 q-11 -45 -47 -125q4 -5 11 -13.5t11 -13.5t8.5 -11.5t6.5 -12.5t2 -11q0 -18 -9 -33.5t-17 -22t-30 -22.5q-59 -36 -88 -36q-11 0 -37 23t-39 42q-25 -29 -92 -47q-54 -15 -104 -15q-14 0 -27 1q-98 7 -162.5 35.5t-126.5 87.5q-22 21 -40 44.5t-30.5 52t-22 50.5t-15 58 t-9 56t-4.5 63.5t-1 60.5zM318 526q0 -41 4.5 -94.5t13.5 -81.5q43 -114 184 -114q23 0 37 2q-8 8 -23 24t-22 23q-43 50 -43 82q0 18 9 28t29.5 20t29.5 17q8 5 20.5 17t24.5 19t26 7q15 0 27.5 -17t27 -44.5t27.5 -40.5q3 14 8.5 64.5t8.5 64.5q3 26 3 68q1 14 1 30 q0 31 -1 69q-1 57 -1 70q0 105 -15 252q-7 81 -46 123.5t-130 42.5q-62 0 -93.5 -4.5t-52.5 -23t-27.5 -46.5t-10.5 -84q-15 -172 -15 -297q0 -9 -1 -72q-1 -43 -1 -75q0 -16 1 -29z" />
<glyph unicode="R" horiz-adv-x="1163" d="M61 1432q80 12 125.5 18t122.5 13q67 6 131 6h18q72 -1 142 -9q79 -4 151 -34.5t125.5 -79t89.5 -113.5t50 -135q7 -36 8 -73q0 -36 -7 -74q-13 -77 -54 -146q-87 -167 -267 -178h-8h-2v-2q41 -72 121.5 -190t144 -224t99.5 -205h2q-16 0 -160 -5q-65 -2 -109 -2 q-52 0 -71 3h-2q-146 344 -285 514l-4 6q-4 -29 -5 -74t-1 -85t2.5 -99.5t4.5 -90.5t5.5 -87t3.5 -63q-41 -17 -123 -21q-53 -3 -101 -3q-27 1 -53 1q-40 1 -60 1q-16 0 -19 -1q8 0 8 328.5t-7 684t-16 419.5zM360 1145q2 -28 3 -123t8 -129h2q64 -6 115.5 -6t91.5 6 q49 11 72 59q16 33 16 69q0 17 -4 35q-11 54 -48 83q-28 26 -71 34q-22 4 -44 4t-45 -4q-46 -8 -96 -28z" />
<glyph unicode="S" horiz-adv-x="1126" d="M121 410v6v6q42 6 98 6q55 0 119 -2q45 -2 75 -2h21q5 -78 77 -114q37 -17 74 -17q28 0 56 10q68 26 72 97q1 17 -2 36q-2 19 -9 36t-16 30t-24 24.5t-27.5 20t-33.5 16.5t-34.5 12.5t-38 10t-37 8t-38 7.5t-35.5 7q-72 13 -139 70q-91 86 -121 198q-16 60 -17 118 q0 48 12 94q26 100 95 185.5t166 125.5q86 32 186 32q20 0 42 -1q124 -8 226 -54q104 -54 154 -156q32 -65 32 -149q0 -47 -10 -100h-2q-91 -15 -166 -15q-80 0 -141 17q3 14 3 28q0 52 -50 87q-42 28 -88 28q-16 0 -33 -3q-70 -13 -86 -77l-2 -12q-5 -14 0 -55 q16 -45 48.5 -63t84.5 -25q108 -12 201 -69t154 -146q47 -60 65 -137q12 -51 13 -102q1 -26 -3 -53q-10 -78 -43 -149q-32 -81 -94.5 -136t-138.5 -79q-67 -21 -143 -20h-19q-73 2 -144 21t-134.5 55t-110.5 85t-73 117q-22 57 -22 118q0 12 1 24z" />
<glyph unicode="T" horiz-adv-x="944" d="M38 1236q-1 35 -2 69q0 68 5 133q0 1 -1 2t-1 2q128 4 293 4q66 0 138 -1q252 -2 433 -22q4 -67 4 -128q0 -102 -12 -189q-61 6 -95.5 6t-154.5 -6h-4h-2q0 -1 -1 -3t-1 -3q-4 -34 -4 -142v-79q2 -175 14 -863v-2v-2q-44 -7 -143 -7h-25.5h-25.5q-98 0 -142 -7v12 q-1 25 1 100q1 59 2 168q0 88 -1 208q-2 270 -16 604l-2 2q-37 19 -138 20.5t-108 3.5q-7 16 -11 120z" />
<glyph unicode="U" horiz-adv-x="1015" d="M59 301q0 135 6 511q4 251 4 424q0 87 -1 155l-2 2h2q12 1 85 3q33 1 61 1q32 0 58 -2q46 -3 84 -13v-2q-7 -172 -7 -344q0 -329 26 -661q19 -63 75 -84q24 -9 48 -9q31 0 62 16q54 28 67 87q8 187 11.5 534.5t6.5 456.5q7 1 66 7q59 5 91 7q9 0 18 1q25 0 57 -3 q44 -4 67 -18q9 -207 9 -398q0 -360 -33 -663q-18 -140 -105.5 -232.5t-230.5 -105.5q-32 -3 -64 -3q-56 0 -114 10q-90 16 -167 54.5t-126.5 108.5t-53.5 160z" />
<glyph unicode="V" horiz-adv-x="952" d="M43 1395v2q15 17 79 23q49 5 97 5h29q62 -2 86 -8q6 -30 11 -184t27 -367.5t70 -408.5q56 239 105.5 548.5t75.5 409.5q0 4 4 4q48 -11 149.5 -11t145.5 -7q-63 -330 -142.5 -650t-197.5 -749q-7 0 -51.5 -4t-77.5 -4q-121 0 -170 16q-179 642 -240 1385z" />
<glyph unicode="W" horiz-adv-x="966" d="M51 1423v2q75 11 133 11q13 0 160 -6q9 -106 9 -209q0 -34 -1 -68q-2 -52 -2 -108q0 -91 4 -197q6 -170 33 -273q16 55 31 114.5t33 134.5t28 114q3 9 4 10q11 -8 31.5 -88.5t44.5 -179t37 -131.5q12 118 19 434t18 436v2q61 13 145 13q58 0 137 -7l3 -2 q-19 -219 -67 -691.5t-69 -723.5q-12 -4 -69 -4h-74h-25q-24 32 -60 171t-60 177h-2q-26 -26 -59 -167.5t-52 -172.5q-58 -10 -100 -10q-32 0 -78 6h-2q-3 25 -32 225.5t-36 252t-27.5 218t-28 254t-16 218.5t-10.5 245z" />
<glyph unicode="X" horiz-adv-x="1009" d="M53 1411q117 8 205 8h28.5t24 0.5t18 0t14.5 -1t10 -1.5t7.5 -3t4.5 -5q7 -23 29 -102t37 -131.5t35 -118t34 -101.5q29 65 81 253t60 214v2q108 9 313 9h2q0 -1 -1 -2t-1 -2q-21 -65 -77.5 -222.5t-91.5 -276.5t-52 -233q22 -131 97 -373.5t94 -320.5q-18 2 -54 2 q-21 0 -64 -2t-67 -2q-54 0 -90 8l-2 2q-28 61 -66 226t-73 233l-2 2q-35 -78 -78 -238.5t-76 -230.5q-62 -4 -96 -4q-131 0 -182 18q20 74 102.5 319t110.5 374q-11 58 -28.5 123t-31.5 110.5t-42.5 123.5t-40 108.5t-47.5 122.5t-44 112z" />
<glyph unicode="Y" horiz-adv-x="966" d="M55 -2q64 197 269 709v4q-29 120 -129.5 355t-128.5 351q27 0 86.5 6.5t89.5 6.5q58 0 96 -17q20 -87 70 -227.5t88 -220.5q31 55 89 228t77 216q69 14 215 14q45 0 77 -4v-2q-51 -164 -135.5 -360.5t-161 -351t-164 -350.5t-141.5 -355q-16 2 -51 2q-28 0 -94 -3t-98 -3 q-34 0 -50 2h-4z" />
<glyph unicode="Z" horiz-adv-x="1026" d="M57 1413q127 13 261 15q48 1 106 0q106 0 248 -2q220 -4 282 -5q6 -17 6 -84q0 -33 -2 -79q-4 -137 -4 -162v-2q-91 -154 -281 -427.5t-245 -357.5l-2 -2q99 12 168.5 16t170 6t177.5 5v-6q6 -46 6 -114q0 -88 -10 -214v-4q-230 13 -448 13q-200 0 -390 -11 q-16 42 -18 102q-1 25 -1 49q1 33 3 63q1 21 1 44q0 33 -3 70q42 93 112 207.5t118.5 184.5t148 207t123.5 171q-84 11 -245 18.5t-249 7.5q-17 28 -17 123q1 3 1 6v7q0 95 -13 145v2q0 4 -4 8z" />
<glyph unicode="[" horiz-adv-x="653" d="M72 -4v8q3 258 0.5 474t1 486t18.5 478v2q84 13 255 4t245 -2q0 -13 0.5 -52.5t0 -58t-1.5 -48t-3.5 -49t-7.5 -34.5h-2h-5q-34 3 -107.5 -2t-109.5 -2h-2q-12 -184 -10.5 -298.5t9 -316t7.5 -292.5v-2q32 -7 70 -11t84 -6t66 -4q12 -178 6 -268l-199 -2q-276 0 -315 -4z " />
<glyph unicode="\" horiz-adv-x="806" d="M14 1436q37 18 131 14t140 2q18 -70 41.5 -146.5t39 -120.5t19.5 -50q7 -22 33.5 -107t44.5 -131q178 -478 192 -532q32 -71 66 -181q1 -5 20.5 -54.5t31.5 -90.5t1 -41h-2q-62 2 -114 2.5t-74.5 0.5t-39.5 0.5t-28 2.5q-4 4 -6 10l-117 295q-24 61 -45 123 q-24 65 -49.5 139t-55 164.5t-46.5 141.5q-11 33 -24.5 70.5t-30 83t-25.5 71.5q-86 282 -90 297q-2 7 -6 18t-7 19z" />
<glyph unicode="]" horiz-adv-x="651" d="M61 1354.5v48v43.5q74 -7 245 2t255 -4v-2q19 -274 19 -721.5t2 -716.5v-8q-39 4 -316 4l-198 2q-6 90 6 268q20 2 65.5 4t83.5 6t70 11v2q0 91 7.5 292.5t9 316t-10.5 298.5h-2q-36 -3 -109.5 2t-107.5 2h-4h-2q-4 12 -6.5 30.5t-4 34t-2 43.5t-0.5 42.5z" />
<glyph unicode="^" horiz-adv-x="901" d="M23 979q41 57 98.5 119t96.5 99.5t121 111.5t112 102l430 -430q-3 2 -45.5 -5.5t-105 -12.5t-150.5 6q-15 0 -68 60t-68 67q-17 -5 -71.5 -64.5t-67.5 -62.5q-25 -2 -42 -2t-34 1t-74 4.5t-132 6.5z" />
<glyph unicode="_" horiz-adv-x="1294" d="M63 -86q23 0 583 5t583 5h2q-6 -40 -8 -68.5t-2 -44.5t1 -51t1 -67q-42 0 -328.5 1t-556 2t-270.5 1q0 2 -2.5 90t-2.5 127z" />
<glyph unicode="`" horiz-adv-x="522" d="M27 1270l141 143q56 -44 186 -177t156 -157q-32 -8 -119.5 -11.5t-154.5 3.5q-12 18 -54 57.5t-91 83t-62 56.5z" />
<glyph unicode="a" horiz-adv-x="991" d="M49 545q0 202 99 335t245 138q47 0 70 -1.5t54.5 -10t51 -28.5t33.5 -54q-1 24 3.5 57.5t4.5 46.5q0 4 20 4h14q14 0 34 -1q30 -1 31 -1q142 -6 200 -10q4 -32 4 -49v-21q-1 -44 -1 -116q0 -120 3 -318q2 -99 2 -179q0 -175 -8 -255q0 -3 0.5 -20.5t0 -23.5t-3 -17 t-8.5 -16t-15 -7h-25q-22 0 -67 3t-66 3q-15 0 -44 -3t-44 -3q-25 8 -25 45q0 16 4.5 37.5t4.5 34.5q-51 -51 -126 -85t-145 -34q-61 0 -112 36t-85 94t-58.5 131.5t-35 146.5t-10.5 141zM301 504q0 -95 49 -158t133 -63q19 0 34.5 2.5t27.5 7.5t21.5 12t16.5 16.5 t11.5 20.5t7.5 25t5 29.5t2.5 32.5t0.5 36.5v40.5v24v31v55t-1.5 41.5t-3.5 33t-8 21.5t-12.5 16.5t-19 8.5t-26.5 5.5t-35 0.5q-80 0 -130 -38t-61 -93q-12 -42 -12 -108z" />
<glyph unicode="b" horiz-adv-x="933" d="M74 2q-2 88 -2 215q0 189 5 463q9 457 9 627v135q41 8 105 8h16q55 0 93 -4q44 -4 44 -6v-23q2 -43 5 -81t4 -60q1 -14 1 -50v-42q0 -70 -4 -211q5 25 71 41q57 14 135 14h24q94 -2 163 -29q85 -30 125.5 -144.5t40.5 -270.5q-2 -55 -4 -92t-7.5 -88.5t-12.5 -86.5 t-20.5 -78.5t-30.5 -73t-43 -60t-57.5 -49.5t-74.5 -32.5t-94 -17.5q-20 -3 -38 -3q-107 0 -152 91q-9 19 -21 -8q0 -16 -1 -35.5t-1 -32.5q0 -12 -2 -14q-38 -4 -84 -4q-12 0 -24 -1q-38 -1 -83 1q-61 2 -85 2zM342 555q0 -61 2 -98t10 -79.5t23 -65.5t43 -38.5t69 -15.5 q84 0 135.5 80t51.5 188q0 80 -14 119q-21 146 -195 146q-31 0 -50 -2t-34.5 -12.5t-22.5 -23.5t-11.5 -43.5t-5.5 -63t-1 -91.5z" />
<glyph unicode="c" d="M82 662q0 74 12 147q1 14 7 36t15.5 52t10.5 33q27 59 114 89t193 30q16 -2 41 -2q17 0 38 1t38 1q26 0 43 -2q148 -10 227 -86q12 -8 21.5 -19.5t16.5 -22.5t12.5 -28.5t9.5 -30.5t7 -37t4.5 -38.5t3 -44.5t2 -45.5t1.5 -50.5t2 -52q-28 -7 -73 -7q-72 0 -187 17 q-11 75 -61 113q-33 25 -77 25q-23 0 -50 -7q-44 -12 -70 -45q-13 -9 -18 -41q-6 -48 -8.5 -141t-4.5 -125q-1 -6 -1 -11q1 -36 25 -62q28 -28 66 -37q24 -5 50 -5q16 0 31 2q41 5 65 21q29 19 49 108q6 -1 23 -1q32 0 106 3q32 1 56 1q60 0 75 -7q-5 -71 -8 -107.5t-10 -89 t-16.5 -82t-22.5 -42.5q-27 -38 -68 -60.5t-97 -29.5q-55 -6 -99 -6q-5 0 -12 -1q-40 -1 -100 3q-68 4 -99 4q-105 18 -177 90q-42 37 -65 93t-29.5 121.5t-6.5 127.5q1 60 1 132v11q0 64 -6 105z" />
<glyph unicode="d" horiz-adv-x="933" d="M25 584q0 157 40 271t125 144q68 27 162 29h25q77 0 135 -14q66 -16 72 -41q-4 141 -4 211v42q0 36 1 50q1 22 4 60t5 81v23q0 2 44 6q39 3 93 4h16q64 0 105 -8v-135q0 -172 9 -628q5 -274 5 -463q0 -126 -2 -214q-24 0 -85 -2q-46 -1 -83 -1q-12 1 -24 1q-46 0 -84 4 q-2 2 -2 14q0 13 -1 32.5t-1 35.5q-12 27 -21 8q-45 -91 -152 -91q-18 0 -38 3q-65 5 -116 25.5t-86 50.5t-61 76t-40.5 90t-23.5 106t-12.5 112t-4.5 118zM258 526q0 -109 51 -188.5t135 -79.5q41 0 69 15.5t43.5 38.5t23.5 65t10 79.5t2 98.5q0 59 -1 91.5t-5.5 63 t-11.5 43.5t-22.5 23.5t-34.5 12.5t-50 2q-174 0 -195 -146q-14 -39 -14 -119z" />
<glyph unicode="e" horiz-adv-x="933" d="M51 582q1 7 3.5 41t3.5 44.5t3.5 39t5.5 43t7 37.5t9.5 41.5t12.5 37.5q26 59 82 102t125 63q69 19 148 23q12 1 23 1q66 0 128 -17q91 -15 151.5 -63.5t87.5 -122.5t35 -150q4 -41 4 -87q0 -40 -3 -85q-45 -13 -263 -20q-85 -3 -148 -3q-98 0 -138 7v-37q0 -7 0.5 -32 t1 -31t1.5 -24.5t3 -25.5t5 -20t7.5 -23t11.5 -20q24 -47 69 -69q35 -17 68 -18q9 0 19 2q42 6 74 52q27 41 26 107v18q6 -1 23 -1q33 0 105 3q31 1 54 1q60 0 76 -7q-15 -205 -29 -262q-12 -43 -28 -57q-22 -31 -57 -52t-70.5 -30t-85.5 -12q-37 -2 -67 -2h-19 q-37 1 -90.5 3.5t-81.5 2.5q-56 9 -106 36q-69 49 -114 143q-46 95 -62 201q-12 81 -12 167q0 27 1 55zM334 719q-3 -15 -3 -24q0 -11 4 -14q9 -8 76 -8h15q67 1 100 1q42 0 90 -3h17q13 0 17 1q4 2 5 17v9q0 42 -21.5 78t-58.5 55q-35 21 -71 21q-89 0 -125 -34.5 t-45 -98.5z" />
<glyph unicode="f" horiz-adv-x="823" d="M29 975q104 0 147 -2q-1 20 -1 41q0 35 4 71q7 56 28.5 114t67.5 104t112 67q121 41 302 41q40 0 83 -2q5 -14 8 -28.5t4.5 -32t2.5 -30.5q1 -6 1 -15t-1 -19l-1.5 -31.5t-3 -33.5t-3 -29t-4 -31t-3.5 -26q-11 4 -55.5 0t-67 -6.5t-69.5 -9.5t-64 -9q-44 -7 -58 -45 q-7 -20 -7 -45q0 -23 6 -49h313q-4 -8 -2.5 -44.5t0.5 -50.5q0 -55 -10 -161q-256 15 -309 16v-446v-275q-18 2 -42 2q-39 0 -96 -5t-92 -5q-22 0 -35 2q-7 45 -8 190v86q0 113 2 247q2 188 2 202q-90 0 -145 -2z" />
<glyph unicode="g" horiz-adv-x="962" d="M55 365q0 215 16 312q43 268 237 326q41 12 89 15q12 1 24 1q56 0 101 -19q54 -24 78 -78q8 -4 10 9q1 8 -1 33q-3 44 3 56q40 4 86 4q11 1 23 1q37 0 81 -1q59 -2 87 -2q9 -292 9 -557q0 -294 -11 -553v-50v-48t-5 -43.5t-14 -36.5q-51 -80 -106.5 -109t-120.5 -35 q-12 -3 -37.5 -3t-78.5 1.5t-95 1.5q-94 0 -170 40.5t-125 111.5q-17 30 -27 84q-8 37 -8 64q0 13 2 24q51 14 115 14h13q73 -2 135 -12q0 -51 33.5 -84t75.5 -38h12q36 0 70 22q40 27 52 82q4 57 4 74v5q-2 17 -2 35t2 37q-19 -21 -50.5 -32.5t-54.5 -14t-68.5 -4 t-59.5 -2.5q-204 0 -266 129q-47 90 -58 240zM287 467q0 -105 61 -178q35 -42 98 -54q24 -5 47 -5q36 0 68 12q22 7 35.5 30.5t17 42t7.5 52.5q0 225 -27 329q-17 41 -58 58q-29 13 -61 13q-12 0 -25 -2q-45 -7 -77 -34q-68 -78 -82 -166q-4 -18 -4 -80v-18z" />
<glyph unicode="h" horiz-adv-x="911" d="M68 1037.5q0 283.5 4 443.5q36 -4 71.5 -3.5t71.5 3.5q6 0 21.5 2t32 4t32.5 3h12h15q10 -2 10 -7q3 -13 4 -103q1 -60 1 -122q-1 -32 -1 -62q0 -94 -1 -188t-1 -95q38 22 51 31q89 65 206 70h16q107 0 190 -64q30 -27 41 -141q8 -84 8 -182q0 -36 -1 -73 q-4 -142 -6 -294q-1 -61 -1 -114q0 -80 2 -142q-34 -5 -69 -7t-57.5 -2t-64.5 0.5t-65 0.5q-4 52 -4 176v53v53q0 127 -4 193q0 5 -2 30t-3.5 34.5t-4 31.5t-6 33.5t-8.5 27t-12 25.5t-16 17q-1 1 -4 2t-4 2q-19 10 -48 12.5t-61.5 -4t-57 -37.5t-27.5 -82q-1 -26 -1 -65 q0 -78 5 -212q3 -73 3 -129q0 -98 -9 -143v-8q-40 -12 -78 -13h-17q-29 1 -56 3q-14 1 -34 1q-29 0 -69 -3q0 94 -2 427t-2 616.5z" />
<glyph unicode="i" horiz-adv-x="417" d="M68 0q8 99 8 264q0 115 -4 262q-3 124 -3 223q0 187 11 285v2q6 1 29.5 -0.5t27.5 -1.5q77 -4 144 -4h43h34v-6q-1 -98 -5.5 -335.5t-4.5 -341t8 -335.5q-12 -14 -78 -15h-24q-53 -1 -101 3q-27 2 -48 3q-23 0 -37 -3zM72 1477l278 -7q0 -12 3 -113.5t3 -148.5 q-11 -16 -54 -18q-15 -1 -34 -1q-34 1 -80 3q-49 3 -82 3q-15 0 -26 -1q0 28 -4 120q-4 75 -4 137v26z" />
<glyph unicode="j" horiz-adv-x="696" d="M24 -257q1 22 1 31.5t3 33.5t3.5 29t4.5 31l3 26q25 -2 52 -2q29 0 59 2q58 5 118.5 25.5t85.5 55.5q2 95 2 372.5t6 395.5v275q17 -2 42 -2q39 0 96 5t92 5q22 0 35 -2q6 -45 6 -144q0 -49 -1 -111q-3 -99 -3 -158q0 -52 2 -72q0 -48 1 -149q1 -68 1 -114q0 -24 -1 -42 q0 -53 -2.5 -134.5t-10 -154t-19.5 -148.5q-25 -59 -85 -99t-142 -57.5t-163 -22.5q-45 -3 -93 -3q-38 0 -78 2q-5 14 -8 28.5t-4.5 32.5l-2.5 30v15.5v19.5zM350 1477l273 -7q0 -12 3 -113.5t3 -148.5q-11 -16 -52 -18q-15 -1 -33 -1q-33 0 -78 3q-48 3 -81 3q-15 0 -27 -1 q0 29 -4 120q-4 75 -4 137v26z" />
<glyph unicode="k" horiz-adv-x="921" d="M70 500q0 178 5 493q3 251 3 417v77q26 0 87.5 2t110.5 2t80 -4v-449q0 -30 -2 -90t-2 -104t4 -72q52 45 113.5 149.5t95.5 143.5q32 -12 94 -12t132 4q47 3 75 3q14 0 23 -1q-45 -70 -99 -144t-130 -172.5t-109 -142.5q28 -46 90 -144t97.5 -155.5t84 -142t84.5 -158.5 q-23 0 -96.5 -3.5t-135 -3.5t-97.5 7q-31 49 -100 188t-122 207q0 -19 3 -109q2 -54 2 -102q0 -32 -1 -60q-2 -70 -12 -124q-10 1 -33 1q-34 -1 -94 -3q-43 -2 -76 -1q-43 0 -67 3q-8 303 -8 479v21z" />
<glyph unicode="l" horiz-adv-x="425" d="M76 0q10 126 10 331q0 177 -8 413q-6 197 -6 354q0 246 16 391l279 -6q0 -101 -4 -457q-5 -356 -5 -560v-28q0 -194 7 -426q-12 -14 -79 -15h-24q-53 -1 -101 3q-27 2 -48 3q-23 0 -37 -3z" />
<glyph unicode="m" horiz-adv-x="1425" d="M68 668v29q0 119 4 323q49 -4 71 -4t72 4q6 0 21.5 2t32 4t32.5 3h12q9 -1 15 -1q10 -2 10 -6q4 -27 4 -63v-46q38 22 51 31q89 65 206 70h16q107 0 190 -64q11 -11 20 -35q42 24 49 29q89 65 206 70h16q107 0 190 -64q30 -27 41 -141q8 -84 8 -182q0 -36 -1 -73 q-4 -142 -6 -294q-1 -61 -1 -114q0 -80 2 -142q-34 -5 -69 -7t-57.5 -2t-64.5 0.5t-65 0.5q-4 52 -4 176v53v53q0 127 -4 193q-1 8 -2.5 30.5t-2.5 33.5t-3.5 31.5t-6 33t-8.5 27.5t-12 25.5t-16 17.5q-1 1 -4 2t-4 2q-19 9 -44 12.5t-55.5 -3t-54.5 -24.5q1 -33 1 -82 q0 -96 -4 -252q-3 -128 -3 -212q0 -70 2 -109q-34 -5 -69 -7t-57.5 -2t-64.5 0.5t-65 0.5q-4 52 -4 176v53v53q0 127 -4 193q0 5 -2 30t-3.5 34.5t-4 31.5t-6 33.5t-8.5 27t-12 25.5t-16 17q-1 1 -4 2t-4 2q-19 10 -48 12.5t-61.5 -4t-57 -37.5t-27.5 -82q-1 -26 -2 -65 q0 -78 6 -212q3 -73 3 -129q0 -98 -9 -143v-8q-40 -12 -78 -13h-17q-29 1 -56 3q-14 1 -34 1q-29 0 -69 -3q0 117 -3 334.5t-3 339.5z" />
<glyph unicode="n" horiz-adv-x="937" d="M66 668v29q0 119 4 323q49 -4 71.5 -4t71.5 4q6 0 21.5 2t32 4t32.5 3h12q9 -1 15 -1q10 -2 10 -6q4 -27 4 -63v-46q38 22 51 31q89 65 206 70h16q107 0 190 -64q30 -27 41 -141q8 -84 8 -182q0 -36 -1 -73q-4 -142 -6 -294q-1 -61 -1 -114q0 -80 2 -142q-34 -5 -69 -7 t-57.5 -2t-64.5 0.5t-65 0.5q-4 52 -4 176v53v53q0 127 -4 193q0 5 -2 30t-3.5 34.5t-4 31.5t-6 33.5t-8.5 27t-12 25.5t-16 17q-1 1 -4 2t-4 2q-19 10 -48 12.5t-61.5 -4t-57 -37.5t-27.5 -82q-1 -26 -2 -65q0 -78 6 -212q3 -73 3 -129q0 -98 -9 -143v-8q-40 -12 -78 -13 h-17q-29 1 -56 3q-14 1 -34 1q-29 0 -69 -3q0 117 -3 334.5t-3 339.5z" />
<glyph unicode="o" horiz-adv-x="958" d="M84 666q0 83 10 147q1 19 17 69.5t16 51.5q27 59 114 89t193 30q16 -2 41 -2q17 0 38 1t38 1q26 0 43 -2q146 -10 227 -88q26 -17 42.5 -52t24.5 -91t11 -103t5 -124v-12.5t0.5 -11t0.5 -12.5q-10 -276 -26 -370q-15 -87 -39 -111q-27 -38 -68 -60.5t-97 -29.5 q-55 -6 -99 -6q-5 0 -12 -1q-40 -1 -100 3q-68 4 -99 4q-105 18 -177 90q-42 37 -66 94.5t-30 118.5q-4 61 -6 130q0 23 -1 45q0 44 2 84q1 20 1 40q0 40 -4 78zM352 385v-7q0 -53 42 -80q43 -28 95 -27q3 -1 5 -1q56 2 94 23q35 15 47 67q1 5 2 16q11 96 11 160q0 39 -4 66 q-1 8 -3 16q-11 74 -61 106q-31 21 -73 20q-25 0 -54 -7q-44 -12 -70 -45q-13 -9 -18 -41q-6 -50 -8.5 -142t-4.5 -124z" />
<glyph unicode="p" horiz-adv-x="929" d="M72 1022q24 0 85 2q46 1 83 1q13 0 24 -1q47 0 84 -4q2 -2 2 -14q0 -13 1 -32.5t1 -35.5q12 -27 21 -8q45 91 152 91q18 0 38 -3q51 -4 94 -17.5t74.5 -32.5t57.5 -49.5t43 -60t30.5 -73t20.5 -78.5t12.5 -86.5t7.5 -88.5t4 -92q0 -156 -40.5 -270.5t-125.5 -144.5 q-69 -26 -163 -29h-24q-78 0 -135 14q-66 17 -71 41q3 -141 4 -211v-42q0 -36 -1 -50q-1 -22 -4 -60t-5 -81v-23q0 -3 -44 -6q-39 -4 -93 -4h-16q-64 1 -105 8v135q0 170 -9 627q-5 274 -5 463q0 127 2 215zM340 469q0 -59 1 -91.5t5.5 -63t11.5 -43.5t22.5 -23.5 t34.5 -12.5t50 -2q173 0 194 146q15 42 15 119q0 108 -51.5 188t-135.5 80q-41 0 -69 -15.5t-43 -38.5t-23 -65.5t-10 -79.5t-2 -98z" />
<glyph unicode="q" horiz-adv-x="929" d="M23 440q1 68 4.5 118t12.5 112t23.5 106t40.5 90t61 76t86 50.5t116 25.5q20 3 38 3q107 0 152 -91q9 -19 21 8q0 16 1 35.5t1 32.5q0 12 2 14q37 4 84 4q11 1 24 1q37 0 83 -1q61 -2 85 -2q2 -88 2 -215q0 -189 -5 -463q-9 -457 -9 -627v-135q-41 -7 -105 -8h-16 q-54 0 -93 4q-44 3 -44 6v23q-2 43 -5 81t-4 60q-1 14 -1 50v42q1 70 4 211q-5 -24 -72 -41q-57 -14 -135 -14h-25q-93 3 -162 29q-85 30 -125 144t-40 271zM256 498q0 -80 14 -119q21 -146 195 -146q31 0 50 2t34.5 12.5t22.5 23.5t11.5 43.5t5.5 63t1 91.5q0 50 -1.5 82.5 t-6 70.5t-14.5 61t-26 43.5t-41 30t-59 9.5q-84 0 -135 -79.5t-51 -188.5z" />
<glyph unicode="r" horiz-adv-x="743" d="M66 668v29q0 119 4 323q49 -4 71.5 -4t71.5 4q6 0 44.5 3t58.5 3q2 0 4 1q18 0 26 -5q0 -24 1 -38t1 -32q19 11 96 39q48 15 120 23q65 8 104 8h9q41 -1 50 -4q0 -69 -1.5 -151t-1.5 -127.5t3 -82.5l-18 7q-7 3 -21.5 7t-21.5 7q-58 14 -78 14q-43 6 -82 6h-19 q-47 -2 -81 -14q-34 -10 -52 -44q-16 -30 -17 -78q0 -5 1 -11q8 -251 8 -537v-8q-42 -12 -84 -13h-18q-34 1 -64 3q-16 1 -37 1q-30 0 -71 -3q0 117 -3 334.5t-3 339.5z" />
<glyph unicode="s" horiz-adv-x="1024" d="M98 311v6v5q40 4 94 4q13 0 27 1q43 1 93 -1q66 -2 89 -2q3 -60 68 -94q41 -21 80 -21q24 -1 48 7q60 20 60 88v7q1 9 1 17q0 28 -12 46q-16 24 -51.5 36.5t-74 20.5t-92 20.5t-92.5 29.5q-74 25 -125 72.5t-72 103.5q-19 51 -19 107v10q2 62 27 115t73 94.5t112 58.5 q75 21 204 21h12q138 -1 243 -25q178 -76 178 -329q-81 -13 -154 -13t-139 13q2 10 2 20q0 39 -39 71q-44 36 -92 37q-6 0 -12 -1q-59 -12 -83 -54q-12 -21 -12 -43q0 -21 12 -45q24 -46 85 -69q142 -21 230.5 -49t131.5 -84q31 -52 45 -99q11 -38 11 -84q-1 -11 -1 -23 q-4 -60 -28 -134q-45 -95 -143 -141q-94 -44 -214 -44h-10q-16 -1 -32 -1q-185 0 -302 88q-127 94 -127 257z" />
<glyph unicode="t" horiz-adv-x="823" d="M29 766l6 250q55 -2 145 -2q0 34 -2 124q-1 68 -1 122q1 18 1 34q0 66 4 113q13 2 35 2q35 0 91.5 -5t95.5 -5q24 0 42 2v-275q0 -17 1.5 -55t1.5 -59q53 1 309 16q17 -20 18 -66v-14q0 -40 -4 -90q-3 -34 -4 -58q0 -17 2 -28h-317q0 -291 2 -414q36 -52 131 -70 q72 -14 140 -14q22 0 44 2q1 -4 3.5 -23.5t3.5 -26.5t3 -26.5t2 -29.5t2 -28q1 -14 2 -25v-6q0 -12 -1 -28.5t-3 -29t-5 -27t-7 -26.5q-40 -2 -78 -2q-48 0 -93 3q-81 5 -163 22.5t-142 57.5t-85 99q-23 143 -29 273q-4 95 -5 220q0 45 1 95q-43 -2 -147 -2z" />
<glyph unicode="u" horiz-adv-x="940" d="M87 470q4 142 6 294q1 61 1 114q0 80 -2 142q34 5 69 7t57.5 2t64.5 -0.5t65 -0.5q4 -52 4 -176v-53v-53q0 -127 4 -193q0 -5 2 -30t3.5 -34.5t4 -31.5t6 -33.5t8.5 -27t12 -25.5t16 -17q1 -1 4 -2t4 -2q19 -10 48 -12.5t61.5 4t57 37.5t27.5 82q2 32 2 73q0 50 -3 112 q-5 112 -7 184q0 11 -1 24q0 65 11 156v8q40 12 78 13h17q29 -1 56 -3q14 -1 34 -1q29 0 69 3q0 -117 2 -335q4 -217 4 -339v-29q0 -119 -4 -323q-50 4 -72 4t-71 -4q-6 0 -21.5 -2t-32 -4t-32.5 -3h-12q-9 1 -15 1q-10 2 -10 6q-4 27 -4 63v46q-38 -22 -51 -31 q-89 -65 -206 -70h-16q-107 0 -190 64q-30 27 -41 141q-8 84 -8 182q0 35 1 73z" />
<glyph unicode="v" horiz-adv-x="921" d="M35 1024q35 -4 94 -4q24 0 51.5 1t50.5 1q58 0 88 -4q13 -64 37 -220t48.5 -282.5t50.5 -198.5q28 77 76.5 344.5t82.5 354.5q30 0 120 4q54 3 99 3q30 0 56 -1q-67 -179 -149 -555t-107 -469q-47 -7 -115 -8h-40q-53 0 -116 2q-88 2 -114 2q-98 609 -213 1030z" />
<glyph unicode="w" horiz-adv-x="1462" d="M45 1024q35 -4 95 -4q24 0 52 1t51 1q59 0 89 -4q13 -66 36.5 -220t47 -281.5t49.5 -199.5q21 58 37.5 119t26.5 108.5t31 149.5t40 187l27 143q22 -2 49 -2q32 0 72 3q29 2 52 2q34 0 54 -5q5 -23 50.5 -315.5t80.5 -389.5q35 86 90.5 364.5t77.5 334.5q25 0 114 6 q47 3 86 2q36 0 66 -2q-67 -179 -149 -555t-107 -469q-47 -7 -109 -8h-37q-47 0 -105 2q-80 2 -109 2q-2 11 -32 197t-48 278q-14 -65 -36.5 -228t-43.5 -243q-47 -7 -115 -8h-40q-53 0 -116 2q-88 2 -114 2q-98 609 -213 1030z" />
<glyph unicode="x" d="M55 1018q91 6 144 6q170 0 176 -6q7 -26 27.5 -105t38.5 -145t30 -98q19 43 53.5 182t44.5 168q49 6 326 6h2q0 -2 -2 -2q-18 -56 -58 -161t-68 -192.5t-42 -166.5q17 -91 73.5 -266.5t71.5 -237.5q-14 2 -36 2q-15 0 -49.5 -1t-51.5 -1q-142 0 -160 6h-2q-21 47 -49 162 t-49 162v2q-24 -54 -54 -169.5t-54 -164.5q-10 0 -74 -1t-76 -1q-117 0 -147 12q17 61 76.5 236t80.5 262q-9 49 -23 99t-35 111t-34 96t-42.5 110t-37.5 96z" />
<glyph unicode="y" horiz-adv-x="1009" d="M50 -224q-1 16 -1 31q0 60 10 103q21 0 66 -2q27 -3 53 -3q15 0 30 1q40 3 70 13t44 43q9 20 9 50q0 17 -3 37q-14 79 -33 169.5t-34 156.5t-43 174t-40.5 154t-46 169t-41.5 152q35 -4 99 -4q26 0 56 1t55 1q63 0 93 -4q8 -42 32 -170.5t41 -215t41.5 -190.5t45.5 -161 q28 78 64.5 367t70.5 374h20q37 0 121 2q42 1 75 1q54 0 83 -3q-18 -70 -108 -453q-13 -49 -29.5 -123.5t-28.5 -131t-31.5 -129.5t-40 -128.5t-53 -117.5t-70.5 -106.5t-93 -86.5t-120 -66t-152 -36q-58 -8 -123 -8q-32 0 -66 2q-19 58 -22 138z" />
<glyph unicode="z" horiz-adv-x="968" d="M63 264q56 72 143.5 156.5t178.5 170t147 152.5q-317 -13 -456 -32q-3 43 -3 90q-1 36 1 74q3 53 3 94q0 27 -1 49q120 0 312.5 1t256.5 1q12 -3 54 -3q33 0 84.5 2t81.5 2q38 0 42 -3q0 -36 -2 -92.5t-2 -99.5t4 -83q-63 -68 -221.5 -220.5t-232.5 -235.5q31 2 106 2 q47 -1 113 -1h51q126 0 174 11q0 -43 2 -139.5t2 -145.5q-504 -12 -833 -12q1 30 1 58q0 52 -3.5 97.5t-3.5 76.5q0 17 1 30z" />
<glyph unicode="{" horiz-adv-x="655" d="M23 604q-16 75 4 201q62 -7 107.5 11t69.5 52.5t39 81.5t14.5 98.5t-3.5 102.5q-18 84 21 152.5t114 80.5q121 12 199 5q13 -85 2 -191q-30 -10 -46.5 -16.5t-36 -24t-24.5 -41.5q-8 -48 -4.5 -97.5t2.5 -99.5t-6.5 -92t-31 -76t-72.5 -51q118 -64 108 -264 q-14 -214 117 -225q0 -15 1 -63t0.5 -83t-3.5 -63q-160 -19 -255.5 50t-90.5 169q8 50 8.5 99.5t-10.5 103t-33.5 93t-67 64t-106.5 21.5q-14 0 -16 2z" />
<glyph unicode="|" horiz-adv-x="360" d="M68 -51v1282v256q33 0 66 -1.5t48.5 -2t43.5 1.5t67 8v-2q0 -23 2 -774t2 -774h-18q-39 0 -124 3t-87 3z" />
<glyph unicode="}" horiz-adv-x="655" d="M57.5 65q-0.5 35 0.5 83t1 63q131 11 117 225q-10 199 109 264q-47 17 -72.5 51t-31.5 76t-7 92t2.5 99.5t-4.5 97.5q-5 24 -24.5 41.5t-35.5 24t-46 16.5q-11 106 2 191q78 7 198 -5q75 -12 114 -80.5t21 -152.5q-3 -51 -3 -102.5t14.5 -98.5t38.5 -81.5t70 -52.5 t108 -11q20 -126 4 -201q-2 -2 -17 -2q-62 3 -106 -21.5t-67 -64t-33.5 -93t-10 -103t8.5 -99.5q5 -100 -91 -169t-256 -50q-3 28 -3.5 63z" />
<glyph unicode="~" horiz-adv-x="1177" d="M37 279q19 75 66 184.5t94 163.5q72 72 172.5 88.5t189.5 -37.5q29 -21 66.5 -68.5t58.5 -62.5q29 -26 59 -26.5t53 18t43 46.5t32.5 55t17.5 48q36 3 221 8l6 -6q30 -155 -98 -338q-46 -55 -107 -76q-64 -21 -126 -17t-116 39.5t-81 96.5q-22 31 -44.5 46t-60.5 14 q-40 0 -92 -25q-33 -20 -43 -49q-10 -33 -9 -52t9 -55v-2q-37 9 -180 9q-84 0 -131 -2z" />
<glyph unicode="&#xa1;" horiz-adv-x="395" d="M61 1047q0 10 3.5 104t3.5 141h14q17 0 40 -1t38 -1h4l153 2q5 0 6 -17t-0.5 -45.5t-4 -59t-5 -64t-2.5 -53.5v-2q-29 -12 -71 -13t-98.5 4t-80.5 5zM63 936q39 4 265 10h2q-2 -119 1.5 -540t-7.5 -549h-7q-15 -1 -57.5 -6t-68.5 -7t-62 -0.5t-63 9.5q13 740 -3 1083z " />
<glyph unicode="&#xa2;" horiz-adv-x="722" d="M51 531q-2 81 1 198t3 176q-8 79 20 154t93.5 118t150.5 23q4 15 4.5 37.5t0 42.5t0.5 43q7 11 30 15t41 -7v-2q0 -17 -1.5 -45t-1.5 -49.5t3 -38.5h2q70 -2 128.5 -42t89.5 -99.5t43 -131t-11 -135.5v-2q-100 -13 -205 7q-4 17 -4 60t-9 72.5t-34 45.5 q-5 -30 -2.5 -263.5t2.5 -285.5h2q25 9 38.5 32t16 44t4 54t3.5 48q16 -2 92.5 -0.5t93.5 -7.5v-2q-1 -24 5 -81t3 -87q-12 -89 -86 -153t-168 -76h-4v-3q-3 -20 -0.5 -66t-1.5 -63q-1 0 -3 -1t-3 -1q-47 -20 -61 2q-3 18 -3.5 39.5t0 41t-0.5 48.5q-85 -13 -166.5 34.5 t-92.5 135.5q-10 90 -12 171zM262 815q-9 -144 2 -272q4 -91 58 -121q4 342 -3 545q-19 0 -30.5 -10t-16.5 -29t-6.5 -36t-2 -41.5t-1.5 -35.5z" />
<glyph unicode="&#xa3;" horiz-adv-x="970" d="M24 708.5q-1 8.5 1 28.5q0 4 2 6q36 14 83 15.5t84 -2.5t85 2h6h10h2q-7 182 -3.5 384.5t11.5 227.5q186 0 240 12v-2q9 -316 0 -630q26 -1 56 -2.5t47.5 -2.5t38 -2t31.5 -1.5t24.5 -1t20.5 0t15 1t13.5 1.5l11 2t10.5 3h2q7 -53 3 -123t-8 -100t3 -50q-107 3 -149 2.5 t-76.5 -2.5t-44.5 -2q-7 -11 4.5 -67t17.5 -62q310 -15 379 -22q-6 -98 -9.5 -177t-4.5 -108.5t-2 -32.5q-485 0 -550 4q-72 4 -85 15q10 137 -4 458q-88 3 -158 3t-76.5 -0.5t-25.5 1.5q0 82 -2 148.5t-3 75z" />
<glyph unicode="&#xa4;" horiz-adv-x="1267" d="M49 227q57 67 152 183v2q-9 26 -23 108q-10 87 -5 243.5t28 242.5q-52 69 -85.5 100.5t-66.5 77.5l211 180q159 -178 197 -221q9 1 51 8.5t55 7.5q119 9 250 -14q33 36 98 110t97 109l211 -180q-25 -29 -83.5 -94.5t-86.5 -98.5q30 -59 41 -119q4 -19 5.5 -42t1.5 -38.5 t-0.5 -44t-0.5 -40.5q0 -185 -60 -297q124 -155 183 -183l-39 -32q-14 -6 -92.5 -76.5t-100.5 -67.5q-48 53 -94.5 96.5t-91.5 96.5q-205 -41 -379 -2q-14 -18 -33 -44t-50.5 -69t-57.5 -78q-23 -2 -120.5 84t-111.5 92zM390 740q-1 -37 1 -86t2 -70q0 -52 30 -91t83 -49 q113 -9 203 9q5 0 14 2t16 2h4q57 7 84 43t35 96q5 23 10.5 65t6.5 52q15 102 -31 159q-26 37 -60 46q-121 38 -292 8q-84 -27 -99 -113q-6 -36 -7 -73z" />
<glyph unicode="&#xa5;" horiz-adv-x="1069" d="M45 567q0 27 2 62t2 59h4q67 8 193.5 8t167.5 2q0 1 -1 2t-1 2q-29 99 -126.5 343t-121.5 372q49 -5 147 0t148 0q11 -33 35.5 -113.5t45.5 -141.5t46 -113q70 124 162 350q1 1 4 2t4 2q63 8 151 11.5t135 -3.5q-127 -377 -301 -698q18 -14 98 -12t101 -7h2v-2 q0 -11 -0.5 -93t4.5 -87v-2q-22 7 -137.5 2t-146.5 -4q-18 -8 -32 -45t-22 -47l-2 -2q38 0 109.5 1.5t127 1.5t99.5 -3q0 -9 -1 -56t0 -79t5 -52q-130 2 -416 -10q-20 -37 -49.5 -116t-38.5 -99v-2h-2q-26 9 -135.5 4t-150.5 -2h-7q3 24 15 59t30.5 79.5t26.5 66.5 q-19 7 -85.5 5t-86.5 13v2q1 33 0.5 64.5t1.5 65.5t8 51q47 -3 129.5 1t108.5 3v2q7 13 37 80q0 4 2 6v2h-2q-27 2 -86 -0.5t-111 -1t-86 13.5q-4 26 -4 53z" />
<glyph unicode="&#xa6;" horiz-adv-x="1705" />
<glyph unicode="&#xa7;" horiz-adv-x="1705" />
<glyph unicode="&#xa8;" horiz-adv-x="714" d="M69.5 1134.5q-0.5 41.5 1 88.5t1.5 53q39 12 116 13t107 -11q0 -1 -3 -45t-6 -95t-3 -67v-2v-2h-4l-199 2h-6q-4 24 -4.5 65.5zM425.5 1134.5q-0.5 41.5 1 88.5t1.5 53q39 12 116 13t107 -11q0 -1 -3 -45t-6 -95t-3 -67v-2v-2h-4l-199 2h-6q-4 24 -4.5 65.5z" />
<glyph unicode="&#xa9;" horiz-adv-x="1140" d="M63 913q9 99 76 177q83 107 248 131q9 0 47 2.5t51 3t45.5 1.5t50.5 0.5t45 -2t49.5 -4.5t45.5 -8q94 -16 170 -65q4 -3 12 -8t12 -8q30 -21 53 -47.5t37.5 -59t24 -63t12.5 -71.5t4 -73t-3 -78t-7.5 -76.5t-9 -79t-8.5 -75.5q-24 -95 -98 -166q-26 -26 -61 -45.5 t-61.5 -30t-75 -18t-69.5 -9.5t-78.5 -5.5t-70.5 -4.5q-130 0 -221 29q-190 86 -209 246q-28 164 -11 407zM205 746.5q0 -20.5 2 -55t3 -49.5t3.5 -54t3.5 -49q0 -66 61.5 -111.5t143.5 -50.5q18 2 130.5 6.5t168.5 15.5q74 11 116 72.5t50 140.5q11 126 8 219 q0 4 -0.5 26.5t-1 29t-3 24.5t-6 27.5t-10.5 23.5t-16 25q-48 61 -168 84q-152 18 -303 0q-3 0 -5 -1t-5 -1q-67 -12 -111.5 -58t-52.5 -108q-3 -26 -5 -51.5t-2.5 -55t-0.5 -50zM362 868q-2 21 11 52q14 43 43 69q9 7 41 21q69 21 136 -7.5t100 -92.5t9 -136q-46 -6 -114 4 q-1 5 -3 27.5t-4 31.5t-8 23.5t-17 20.5t-28 6q-4 -2 -19.5 -6.5t-19.5 -8.5q-3 -3 -6 -12q0 -1 -1 -28.5t-2 -59t-1 -71t2 -64.5q4 -61 43 -74q43 -3 62 27q3 11 4 24t1 29t1 25q4 0 53 1t55 -5q25 -84 -22 -157t-133 -73q-39 -5 -77 2.5t-68 33.5t-33 67q-8 98 -5 331z " />
<glyph unicode="&#xaa;" horiz-adv-x="561" d="M49 1239q0 104 50 173t124 69q23 0 35 -1t29 -5t27 -14.5t16 -28.5q0 12 2 29t2 24q0 3 11.5 3t23 -1t16.5 0q44 -4 102 -6q0 -4 2.5 -12.5t2.5 -12.5v-8q-3 -67 -1 -223.5t-4 -220.5v-9.5v-9.5t-0.5 -8t-2 -8t-4.5 -5.5t-7 -2.5h-12q-11 0 -34 1t-34 1q-8 0 -23.5 -1 t-23.5 -1q-12 3 -12 22q0 8 3 19t3 18q-25 -27 -64 -44.5t-75 -17.5q-51 0 -87 47.5t-50.5 109t-14.5 124.5zM176 1219q0 -48 26.5 -81.5t67.5 -33.5q19 0 31.5 6t19 13.5t9.5 25.5t3.5 30.5t0.5 40.5v13v24q0 57 -7 69.5t-46 12.5q-42 0 -67 -18.5t-30 -48.5q-8 -16 -8 -53 z" />
<glyph unicode="&#xab;" horiz-adv-x="1206" d="M25 537q46 58 110 125.5t150.5 154.5t124.5 127q102 108 116 121q25 -14 79 -69.5t77 -71.5q-38 -48 -172 -187t-188 -207q55 -48 180.5 -173t197.5 -183l-22 -20l-33 -33q-55 -55 -104 -98l-2 2q-50 52 -126.5 121t-135 120.5t-129 125t-123.5 145.5zM100 455zM477 537 q46 58 110 125.5t150.5 154.5t124.5 127q82 86 117 121q25 -14 79 -69.5t77 -71.5q-38 -48 -172.5 -187t-188.5 -207q55 -48 181 -173t198 -183l-23 -20l-32 -33q-48 -48 -105 -98l-2 2q-50 52 -126.5 121t-135 120.5t-129 125t-123.5 145.5z" />
<glyph unicode="&#xac;" horiz-adv-x="919" d="M4 967q12 0 424 -2t424 -2q0 -1 -1 -3.5t-1 -3.5h2q0 -22 -1.5 -131t-2.5 -210l-2 -101h-113q0 3 -0.5 61t-1 137t-0.5 132q-721 6 -725 10q0 2 -0.5 23.5t-1 48t-0.5 41.5z" />
<glyph unicode="&#xad;" horiz-adv-x="735" d="M63 623q11 0 303.5 2t305.5 2q-4 -19 -5 -34.5t-0.5 -24.5t1 -26.5t0.5 -33.5q-8 0 -33.5 -0.5t-62 -0.5t-81.5 0.5t-93.5 0.5t-96 0.5t-89.5 0.5t-74.5 0.5t-51.5 0.5h-20q0 2 -1 23.5t-1.5 48t-0.5 41.5z" />
<glyph unicode="&#xae;" horiz-adv-x="1130" d="M63 913q9 99 76 177q83 107 248 131q9 0 47 2.5t51 3t45.5 1.5t50.5 0.5t45 -2t49.5 -4.5t45.5 -8q94 -16 170 -65q4 -3 12 -8t12 -8q27 -20 48.5 -46.5t36.5 -50.5t24 -60t14.5 -61t6 -69t0.5 -68t-4.5 -73.5t-7 -70t-9.5 -73.5q-3 -11 -5.5 -36.5t-6.5 -39.5 q-27 -79 -92 -141q-26 -26 -61 -45.5t-61.5 -30t-75 -18t-69.5 -9.5t-78.5 -5.5t-70.5 -4.5q-130 0 -221 29q-190 86 -209 246q-28 164 -11 407zM205 754q0 -24 2.5 -82.5t3.5 -81.5q2 -71 23 -117t81 -70q22 -11 54 -18q29 -4 59.5 -5.5t67.5 0t61 3t69.5 5.5t63.5 5l31 6 q74 11 116 72.5t50 140.5q11 126 8 219q0 4 -0.5 26.5t-1 29t-3 24.5t-6 27.5t-10.5 23.5t-16 25q-48 61 -168 84q-152 18 -303 0q-3 0 -5 -1t-5 -1q-67 -12 -111.5 -58t-52.5 -108l-6 -67q-2 -58 -2 -82zM354 1020q134 18 219 12q98 -8 146.5 -93.5t-0.5 -174.5 q-39 -69 -107 -72h-4h-2v-2q15 -24 50 -74.5t59 -92t39 -81.5q-14 0 -60 -2.5t-73 -1.5h-3q-2 5 -28 59.5t-46.5 90t-41.5 59.5l-2 4q-5 -36 -4 -65.5t4.5 -76.5t3.5 -60q-43 -11 -146 -11q3 0 3.5 133.5t-1.5 278t-6 170.5zM475 905q1 -16 1 -53t1 -51h2q65 -4 82 0 q31 7 37 45t-18 57q-36 27 -105 2z" />
<glyph unicode="&#xb0;" horiz-adv-x="616" d="M63 983q-12 148 7 221q34 100 155 123q4 0 13.5 1t13.5 1q31 2 80 2q50 0 84 -10q7 -3 18.5 -7t18.5 -7q28 -10 57 -35q39 -32 49 -96q4 -21 4 -91q0 -198 -125 -243q-18 -8 -41 -11q-129 -23 -231 9q-71 36 -90 84q-9 27 -13 59zM178.5 1103.5q-0.5 -20.5 0.5 -47.5 t1 -38q0 -30 16.5 -51t45.5 -25q63 -3 110 4q3 0 8.5 1t8.5 1h2q32 4 46 23t19 53q4 14 8 63q11 57 -16 89q-15 18 -33 24q-66 19 -159 4q-45 -16 -54 -61q-3 -19 -3.5 -39.5z" />
<glyph unicode="&#xb1;" horiz-adv-x="999" d="M41 23q0 37 3 181t3 146h907q1 -38 -1 -108.5t-1 -127t9 -106.5h-3q-22 0 -459 7.5t-458 7.5zM76 1077q10 -3 129 7.5t131 13.5q0 15 4 129q1 23 4.5 59t3.5 41q1 9 3 20t3 17q14 -10 77.5 -10.5t133.5 2t86 0.5q0 -13 -0.5 -46.5t-0.5 -63v-61.5t1.5 -54.5t3.5 -28.5 q26 -2 120 -2t128 -6q-3 -48 -3 -145t-5 -152q-7 -4 -118 -5t-126 -10q3 -27 -5.5 -133t-8.5 -117v-4q-12 -9 -78 -8t-146.5 3.5t-84.5 0.5l-1 1q-1 1 -1 5q-5 45 -3.5 100t-0.5 109q0 36 -5 41h-4q-35 0 -123.5 6.5t-103.5 14.5q-2 2 -2 4q2 41 0.5 93t-5 114.5t-3.5 64.5z " />
<glyph unicode="&#xb2;" horiz-adv-x="524" d="M57 682v4q2 23 2.5 75t6.5 87.5t24 66.5q36 39 107 82t92 60q24 16 30.5 47t-6.5 57t-39 29q-71 0 -71 -113v-2q-67 -7 -137 -4v2q-12 61 0 119t47 96q35 42 125 52.5t141 -13.5q79 -39 90 -156q4 -54 4 -84q-3 -47 -33 -80.5t-66 -49t-79 -39t-64 -48.5q-21 -50 -10 -57 q42 0 115.5 1t114.5 1q10 -25 6 -88q0 -4 -0.5 -10t-1 -10t0.5 -9t3 -10h-4l-355 -6h-43z" />
<glyph unicode="&#xb3;" horiz-adv-x="495" d="M42 1158.5q-1 20.5 0 35.5t5 27q15 52 68 82.5t113.5 33.5t118 -18t81.5 -62q16 -20 12 -65q4 -210 -2 -307q-1 -5 -3.5 -47.5t-12.5 -63.5q-24 -63 -90 -84q-66 -20 -156 -8q-23 3 -49 14q-12 3 -21.5 8t-15.5 9.5t-8 5.5q-18 16 -31 65q-3 14 -4 47t-4 52h2q19 -1 58 3 t63 3h2q14 -37 54 -53t71 18q11 18 7.5 43t-21.5 37q-35 30 -103 12q-10 10 -7 64.5t1 66.5q15 6 52 5.5t58 10t21 46.5q0 39 -30.5 48t-63.5 -9t-41 -45q-14 0 -68 -1.5t-55 -1.5v3q0 5 -1 25.5z" />
<glyph unicode="&#xb4;" horiz-adv-x="522" d="M12 1083q26 24 156 157t186 177l142 -143l-2 -2q-12 -12 -62.5 -55.5t-93 -83.5t-51.5 -58q-69 -7 -157 -3.5t-118 11.5z" />
<glyph unicode="&#xb5;" horiz-adv-x="892" d="M63.5 19.5q-0.5 118.5 0.5 241.5t4 163q0 74 4.5 291.5t1.5 304.5q34 5 69 7t57.5 2t64.5 -0.5t65 -0.5q5 -62 4 -229t4 -246q1 -8 2.5 -30.5t2.5 -33.5t3.5 -31.5t6 -33t8.5 -27.5t12 -25.5t16 -17.5q1 -1 4 -2t4 -2q19 -10 48.5 -12.5t62 4t57 37.5t27.5 82 q4 74 -2 188.5t-9 187t9 181.5q68 8 130.5 6t127.5 6q0 -117 2.5 -335t3 -339.5t-3.5 -351.5q-8 0 -40 -2.5t-68 -5t-72 -4t-60.5 1t-25.5 8.5q-4 27 -4 63v46q-17 -29 -42.5 -48.5t-62 -30.5t-60.5 -15t-69 -9q0 -197 4 -255.5t4 -76.5q-12 -14 -78.5 -15t-124.5 3.5 t-85 -0.5q0 2 -1 119.5t-1.5 236z" />
<glyph unicode="&#xb6;" horiz-adv-x="1388" d="M61 1321q24 100 101 135q25 12 63 18.5t67.5 8t83 3.5t77.5 3l360 2l332 4l194 -4q0 -10 3.5 -122t3.5 -159q-11 -19 -74 -20t-131 6q-1 -69 -5.5 -320t-6.5 -392t-4 -343.5t-1 -337t6 -209.5q-12 -14 -78.5 -15t-124.5 3.5t-85 -0.5q19 239 19.5 835t6.5 781l-157 2 q-22 -1339 -6 -1606q-12 -14 -79 -15t-125 3.5t-85 -0.5q27 298 14 1073q-54 -8 -94.5 -9t-74.5 7t-59 21.5t-48.5 39.5t-42.5 55.5t-43 74.5q-44 202 -7 477z" />
<glyph unicode="&#xb7;" horiz-adv-x="305" d="M59 805l185 -2q0 -12 3 -113.5t3 -148.5q-10 -16 -29.5 -19t-67.5 -0.5t-85 0.5q0 30 -5 121.5t-4 161.5z" />
<glyph unicode="&#xb8;" horiz-adv-x="389" d="M35 -301q46 129 66.5 191.5t37.5 109.5q3 -1 9.5 -2t9.5 -2l20 -4l178 -4h-2q-4 -18 -24 -78t-43.5 -128t-28.5 -83v-2q-223 0 -223 2z" />
<glyph unicode="&#xb9;" horiz-adv-x="358" d="M12 1116q0 13 16 46t35 64t36.5 58.5t17.5 28.5q16 0 42.5 1t39.5 1q30 0 92 -4q4 -33 4 -150q0 -65 -5 -196.5t-5 -202.5v-62q0 -14 -52 -14q-13 0 -88 6v2v84q0 58 6.5 169t6.5 169v17q-4 0 -17 -25t-24 -25q-8 0 -56.5 14t-48.5 19z" />
<glyph unicode="&#xba;" horiz-adv-x="520" d="M54 1060.5q-1 44.5 10.5 93.5t37.5 87q0 1 9 10q65 72 141 74q85 4 140.5 -55t68.5 -142q9 -58 6 -108q4 -56 -6.5 -113.5t-35 -109.5t-70.5 -83.5t-107 -27.5q-26 0 -64 10q-35 14 -59.5 37.5t-37.5 47t-20 59t-8.5 61.5t-1.5 66q-2 49 -3 93.5zM195 1087 q-13 -122 6 -196q1 -4 4 -13.5t5 -14.5t5.5 -11.5t9 -10t13.5 -5.5q16 -8 32 -2q24 8 37 43q6 22 10 88q14 146 -24 198q-21 27 -55 15q-18 -2 -31 -25q-8 -11 -12 -66z" />
<glyph unicode="&#xbb;" horiz-adv-x="1206" d="M53 174q72 58 198 183t181 173q-55 66 -187 205t-173 189q22 15 75.5 71t79.5 70q35 -35 117 -121q38 -40 124.5 -127t150.5 -154.5t110 -125.5q-69 -91 -158.5 -178.5t-192.5 -179.5t-163 -154l-2 -2q-49 43 -104 98l-33 33zM506 174q72 58 198 183t181 173 q-55 66 -187.5 205t-173.5 189q22 15 76 71t80 70q35 -35 117 -121q38 -40 124.5 -127t150.5 -154.5t110 -125.5q-69 -91 -158.5 -178.5t-192.5 -179.5t-163 -154l-2 -2q-57 50 -105 98l-33 33z" />
<glyph unicode="&#xbc;" horiz-adv-x="1214" d="M29 1116q4 30 58 123t65 104q16 0 46 1.5t46 1.5q18 0 106 -5q4 -38 4 -170q0 -78 -5 -230t-5 -230q0 -47 2 -72q0 -18 -63 -18q-17 0 -50.5 3t-48.5 3v2v98q0 65 6.5 194t6.5 195q0 15 -2 21q-3 0 -16.5 -29t-26.5 -29q-12 0 -67.5 15t-55.5 22zM254 2q60 183 163 466 t186.5 527t141.5 457q11 -4 95 0.5t94 -8.5v-2q-32 -94 -148 -441.5t-191.5 -564t-154.5 -420.5q-1 -1 -2 -3t-2 -3l-4 -8q-11 -3 -88 0t-90 0zM723 379v2q4 4 6 8q34 57 219 338q5 0 79 1t85 1h2q1 -14 0 -87t0 -165t4 -104q5 5 30 0.5t28 -4.5l-7 -156h-2q-9 -3 -26.5 -2 t-26.5 -2h-2q1 1 -2.5 -45t-8 -95t-5.5 -57q-1 -1 -4 -2t-8 -2t-10 -1.5t-14 -0.5h-17h-20.5h-23h-27h-30.5q0 1 1 107t1 112q-7 3 -61 3t-97 -0.5t-53 1.5v2q-12 50 -10 148zM877 371q0 -1 44.5 -1t57.5 1h2v2l4 143q0 10 -25.5 -24.5t-53.5 -77t-29 -43.5z" />
<glyph unicode="&#xbd;" horiz-adv-x="1220" d="M29 1116q4 30 58 123t65 104q16 0 46 1.5t46 1.5q18 0 106 -5q4 -38 4 -170q0 -78 -5 -230t-5 -230q0 -47 2 -72q0 -18 -63 -18q-17 0 -50.5 3t-48.5 3v2v98q0 65 6.5 194t6.5 195q0 15 -2 21q-3 0 -16.5 -29t-26.5 -29q-12 0 -67.5 15t-55.5 22zM254 2q60 183 163 466 t186.5 527t141.5 457q11 -4 95 0.5t94 -8.5v-2q-32 -94 -148 -441.5t-191.5 -564t-154.5 -420.5q-1 -1 -2 -3t-2 -3l-4 -8q-11 -3 -88 0t-90 0zM729 4v2q1 18 1.5 82.5t7.5 102t26 69.5q38 43 118 92t101 66q27 16 35 50t-7 63t-46 32q-42 0 -59 -37.5t-17 -85.5v-2 q-114 -11 -152 -6h-2v2q-25 152 51 238q25 33 82 48.5t115 13t96 -18.5q91 -48 101 -172q4 -62 2 -92q-3 -42 -24 -73.5t-53 -51t-65.5 -35.5t-68 -36.5t-53.5 -43.5q-22 -52 -11 -59q52 -1 137 0.5t115 1.5q5 -11 7 -24.5t2 -23.5t-0.5 -27t-0.5 -24q0 -4 -1 -14.5 t-0.5 -17.5t3.5 -13q0 -2 -4 -2l-389 -4h-47z" />
<glyph unicode="&#xbe;" horiz-adv-x="1271" d="M34 1147.5q-1 21.5 0 37t5 29.5q17 59 75.5 92.5t125 36.5t129 -20t88.5 -66q18 -29 14 -73q4 -228 -2 -340q0 -4 -1 -28t-2 -33t-4 -26.5t-9 -31.5q-26 -69 -103 -94q-69 -19 -168 -8q-19 2 -55 14q-14 4 -24.5 10t-16.5 11t-8 6q-30 39 -33 73q-3 16 -5 50.5t-5 54.5 q0 2 2 2q20 -1 64 4t69 4h2q8 -26 33.5 -45.5t53.5 -20t50 26.5q13 19 9.5 45.5t-25.5 42.5q-37 27 -113 14q-7 15 -7.5 41t2 57t1.5 44q13 4 55.5 4.5t65.5 13.5t20 51q0 43 -32 52t-67.5 -10.5t-47.5 -47.5q-14 0 -74 -1t-61 -1v2q0 6 -1 27.5zM311 2q43 131 229.5 649.5 t262.5 800.5q11 -4 94.5 0.5t93.5 -8.5v-2q-37 -110 -148.5 -445.5t-189 -556.5t-155.5 -424q-1 -1 -2 -3t-2 -3l-5 -8q-11 -3 -88 0t-90 0zM780 379v2q4 4 6 8q25 42 220 338q5 0 78.5 1t84.5 1h2q1 -14 0.5 -87t0.5 -165t4 -104q5 5 29.5 0.5t27.5 -4.5l-6 -156h-2 q-9 -3 -27 -2t-27 -2h-2q1 1 -2.5 -45t-8 -95t-5.5 -57q-1 -1 -4 -2t-8 -2t-10 -1.5t-14 -0.5h-17h-20.5h-23h-27h-30.5q0 1 1 107t1 112q-7 3 -61 3t-96.5 -0.5t-52.5 1.5v2q-13 53 -11 148zM934 371q0 -1 44 -1t58 1h2v2l4 143q0 10 -25.5 -24.5t-53.5 -77t-29 -43.5z" />
<glyph unicode="&#xbf;" horiz-adv-x="919" d="M49 215q13 113 96 217q22 30 62.5 72.5t60.5 68.5q73 103 101 250q13 50 8 70v2q46 5 126 3.5t126 0.5h2q8 -8 8 -45l-4 -78q-13 -82 -29.5 -137.5t-50.5 -106.5q-11 -21 -34.5 -54t-46 -63.5t-46.5 -66t-37 -66.5t-15.5 -60t17 -52t60.5 -37q41 -22 71.5 -9t44.5 35 t35 50.5t43 36.5q59 3 84 3t83 -3t83 -4v-2q-5 -105 -55.5 -199.5t-143 -158t-204.5 -68.5q-124 -13 -232 37.5t-167 148.5t-46 215zM383 1018q0 2 3 53t6 109.5t3 76.5v3v2h4l232 -2h6q4 -27 4.5 -75t-1 -102.5t-1.5 -60.5q-43 -15 -135.5 -15.5t-120.5 11.5z" />
<glyph unicode="&#xc0;" horiz-adv-x="946" d="M39 4q15 100 41 256t105 519t167 655q29 3 42.5 1.5t72.5 0t137 8.5q14 -45 48 -193t71 -316t49 -216l154 -717v-2q-121 -24 -275 8h-2q-14 38 -45 164.5t-51 169.5q-31 4 -47.5 4.5t-37.5 -1t-42 -1.5q-16 -38 -40.5 -166t-49.5 -176q-1 0 -3 -1t-3 -1q-26 -3 -43.5 -2 t-92 3t-151.5 1q-2 0 -4 2zM141 1735l142 143q56 -44 186 -177t156 -157q-32 -8 -120 -11.5t-155 3.5q-12 18 -54 57.5t-91 83t-62 56.5zM412 586q21 -1 46 -1t56.5 0.5t48.5 0.5q-50 428 -77 429q-13 1 -27 -82q-3 -14 -44 -321q-1 -14 -3 -26z" />
<glyph unicode="&#xc1;" horiz-adv-x="948" d="M25 4q15 100 41 256t105 519t167 655q29 3 42.5 1.5t72.5 0t137 8.5q14 -45 48 -193t71 -316t49 -216l153 -717v-2q-120 -23 -274 8h-2q-14 38 -45 164.5t-51 169.5q-31 4 -47.5 4.5t-37.5 -1t-42 -1.5q-16 -38 -40.5 -166t-49.5 -176q-1 0 -3.5 -1t-3.5 -1 q-26 -3 -43 -2t-91.5 3t-151.5 1q-2 0 -4 2zM287 1544q26 24 156 157t186 177l141 -143l-2 -2q-12 -12 -62.5 -55.5t-93 -83.5t-51.5 -58q-69 -7 -156.5 -3.5t-117.5 11.5zM397 586q21 -1 46 -1t57 0.5t49 0.5q-49 425 -77 429q-12 2 -25 -63q-6 -33 -45 -329q-3 -19 -5 -37 z" />
<glyph unicode="&#xc2;" d="M33 4q1 5 40 231.5t112.5 567.5t160.5 631q29 3 42.5 1.5t72.5 0t137 8.5q8 -34 78.5 -340t89.5 -385l154 -717v-2q-121 -24 -275 8h-2q-14 38 -45 164.5t-51 169.5q-31 4 -47.5 4.5t-37.5 -1t-42 -1.5q-16 -38 -40.5 -166t-49.5 -176q-1 0 -3 -1t-3 -1q-26 -3 -43.5 -2 t-92 3t-151.5 1q-2 0 -4 2zM145 1546q32 44 76.5 91.5t76 77.5t92.5 85.5t87 79.5l334 -332q-2 2 -35 -3.5t-83 -10t-118 3.5q-11 0 -51.5 46.5t-52.5 53.5q-9 -5 -52 -51t-54 -49q-15 -2 -23.5 -2.5t-24 0t-30.5 1.5t-55.5 3.5t-86.5 5.5zM406 586h151q-50 428 -77 429 q-13 1 -27 -82q-3 -14 -44 -321q-1 -14 -3 -26z" />
<glyph unicode="&#xc3;" horiz-adv-x="976" d="M43 4q1 5 40 231.5t112.5 567.5t160.5 631q29 3 42.5 1.5t72.5 0t137 8.5q14 -45 48 -193t71 -316t49 -216l154 -717v-2q-121 -24 -275 8h-2q-14 38 -45 164.5t-51 169.5q-31 4 -47.5 4.5t-37.5 -1t-42 -1.5q-16 -38 -40.5 -166t-49.5 -176q-1 0 -3 -1t-3 -1 q-26 -3 -43.5 -2t-92 3t-151.5 1q-2 0 -4 2zM70 1550q16 57 52.5 142t70.5 123q57 57 132.5 69t143.5 -31q23 -14 51.5 -50.5t44.5 -47.5q23 -20 46 -20t40.5 13.5t33 36t24 42t14.5 37.5q24 3 52 4t62.5 1t53.5 1l2 -2q0 -2 2 -2v-2q8 -66 -11 -135.5t-67.5 -124.5 t-116.5 -66q-67 -11 -125 14.5t-83 85.5q-27 45 -72 48q-28 0 -58.5 -11t-46.5 -35l-6 -12q-13 -40 0 -82v-2q-36 8 -139 8q-65 0 -100 -2zM416 586q21 -1 46 -1t56.5 0.5t48.5 0.5q-50 428 -77 429q-13 1 -27 -82q-3 -14 -44 -321q-1 -14 -3 -26z" />
<glyph unicode="&#xc4;" horiz-adv-x="948" d="M33 4q1 5 40 231.5t112.5 567.5t160.5 631q29 3 42.5 1.5t72.5 0t137 8.5q8 -34 78.5 -340t89.5 -385l154 -717v-2q-121 -24 -275 8h-2q-14 38 -45 164.5t-51 169.5q-31 4 -47.5 4.5t-37.5 -1t-42 -1.5q-16 -38 -40.5 -166t-49.5 -176q-1 0 -3 -1t-3 -1q-26 -3 -43.5 -2 t-92 3t-151.5 1q-2 0 -4 2zM161.5 1619.5q-0.5 41.5 1 88.5t1.5 53q39 12 116 13t107 -11q0 -1 -3 -45t-6 -95t-3 -67v-2v-2h-4l-199 2h-6q-4 24 -4.5 65.5zM406 586h151q-50 428 -77 429q-13 1 -27 -82q-3 -14 -44 -321q-1 -14 -3 -26zM517.5 1619.5q-0.5 41.5 1 88.5 t1.5 53q39 12 116 13t107 -11q0 -1 -3 -45t-6 -95t-3 -67v-2v-2h-4l-199 2h-6q-4 24 -4.5 65.5z" />
<glyph unicode="&#xc5;" d="M33 4q1 5 40 231.5t112.5 567.5t160.5 631q29 3 42.5 1.5t72.5 0t137 8.5q8 -34 78.5 -340t89.5 -385l154 -717v-2q-121 -24 -275 8h-2q-14 38 -45 164.5t-51 169.5q-31 4 -47.5 4.5t-37.5 -1t-42 -1.5q-16 -38 -40.5 -166t-49.5 -176q-1 0 -3 -1t-3 -1q-26 -3 -43.5 -2 t-92 3t-151.5 1q-2 0 -4 2zM291 1833q5 17 22 41q57 51 160 41q122 -4 162 -60q40 -135 -12 -264q-29 -45 -123 -49q-38 -6 -115 -2q-30 2 -56 17.5t-36 41.5q-25 138 -2 234zM371 1713q0 -4 0.5 -12t1 -12.5t2 -11t3.5 -11t5.5 -10t7.5 -9.5q22 -19 51 -19h21q3 0 13.5 0.5 t15.5 1t14 1.5t14.5 3t12 5.5t11 8.5t7.5 11q12 56 10 92q-3 27 -14 45q-29 29 -80 29q-32 0 -61 -13q-26 -16 -31 -40q-4 -28 -4 -35v-11.5v-12.5zM406 586h151q-50 428 -77 429q-13 1 -27 -82q-3 -14 -44 -321q-1 -14 -3 -26z" />
<glyph unicode="&#xc6;" horiz-adv-x="1546" d="M53 -2q18 99 32 182.5t17 106t13.5 76.5t13.5 69t25 109.5t41 173t68 284.5t99 420q394 17 1111 17v-2v-2q4 -43 4 -91.5t-2 -108t-2 -91.5v-4q-93 -21 -272 -18t-275 -9q2 -28 -2 -76t-4 -90t12 -74q38 -7 122.5 -6t125.5 -6q8 -39 9 -85.5t-2 -108.5t-3 -91 q-32 -6 -91.5 -6.5t-103 -2t-53.5 -11.5q-15 -207 12 -260h2q72 -3 255 -3.5t274 -8.5v-7q9 -132 -13 -262l-4 -4q-89 0 -267 -3t-316 -2.5t-256 7.5q-8 34 -29 109t-29 117v2q-28 0 -50.5 2t-90.5 2h-4q0 -2 -2 -4q-55 -183 -66 -232q-1 -1 -3 -2t-3 -2q-27 0 -85 1.5 t-104.5 1t-90.5 -4.5q-3 0 -6.5 -1t-6.5 -1zM430 582h2h2q17 5 71.5 -1t63.5 7q-6 39 -18 84.5t-28.5 99.5t-24.5 84l-2 6q-38 -104 -48.5 -147.5t-17.5 -132.5z" />
<glyph unicode="&#xc7;" horiz-adv-x="1005" d="M57 377v20q-11 399 6 676q0 14 3 23q17 190 131 288q62 39 192 35q51 1 95.5 0.5t92.5 -7t87 -21.5q148 -61 217.5 -229t19.5 -326q-1 0 -3 -1t-3 -1q-43 -11 -93 -12t-81 2.5t-96 13.5h-4q-10 25 -14.5 72.5t-8 83t-25 68.5t-63.5 42q-4 2 -21 2q-55 4 -92.5 -31.5 t-42.5 -91.5q-15 -330 4 -537q26 -124 109 -147q45 -5 83.5 12.5t57.5 57.5q12 25 16 57.5t5 73t4 61.5q13 0 75 3t109.5 1t81.5 -12q22 -78 22.5 -156t-29 -151.5t-75 -130.5t-116.5 -93.5t-154 -41.5h-4l-2 2q-41 -171 -62 -238v-4q-31 3 -94 -1.5t-88 -0.5q-2 0 -2 6 q0 13 24 103.5t29 132.5v6q-64 -8 -114.5 11.5t-82 56.5t-53 92t-30.5 111t-11 120z" />
<glyph unicode="&#xc8;" horiz-adv-x="964" d="M65.5 971.5q0.5 230.5 12.5 439.5q240 12 543 16.5t305 -4.5q6 -43 6 -91.5t-3 -107.5t-3 -91v-3q-76 -17 -176.5 -20t-180 0.5t-180.5 -4.5h-6l-2 -2q1 -28 -2.5 -77t-3.5 -89.5t8 -73.5l2 -2q36 -3 78 -4t94 -1t80 -1v-2q6 -41 6.5 -87.5t-1.5 -104.5t-1 -93 q-35 -10 -92 -10.5t-100.5 -1t-55.5 -10.5q-15 -88 0 -256l2 -2q69 0 251 -6.5t286 -3.5v-5q11 -167 -17 -268q-96 1 -268 -3t-313 -3.5t-258 10.5q0 155 -5.5 443t-5 518.5zM211 1735l141 143q56 -44 186 -177t156 -157q-32 -8 -119.5 -11.5t-154.5 3.5q-12 18 -54 57.5 t-91 83t-62 56.5z" />
<glyph unicode="&#xc9;" horiz-adv-x="970" d="M57.5 971.5q0.5 230.5 12.5 439.5q240 12 543 16.5t305 -4.5q6 -43 6 -91.5t-3 -107.5t-3 -91v-3q-76 -17 -176.5 -20t-180 0.5t-180.5 -4.5h-6l-2 -2q1 -28 -2.5 -77t-3.5 -89.5t8 -73.5l2 -2q36 -3 78 -4t94 -1t80 -1v-2q6 -41 6.5 -87.5t-1.5 -104.5t-1 -93 q-35 -10 -92 -10.5t-100.5 -1t-55.5 -10.5q-15 -88 0 -256l2 -2q69 0 251 -6.5t286 -3.5v-5q11 -167 -17 -268q-96 1 -268 -3t-313 -3.5t-258 10.5q0 155 -5.5 443t-5 518.5zM303 1544q26 24 156 157t186 177l141 -143l-2 -2q-11 -11 -62 -55t-93 -84t-51 -58 q-69 -7 -157 -3.5t-118 11.5z" />
<glyph unicode="&#xca;" horiz-adv-x="972" d="M63.5 971.5q0.5 230.5 12.5 439.5q240 12 543 16.5t305 -4.5q6 -43 6 -91.5t-3 -107.5t-3 -91v-3q-76 -17 -176.5 -20t-180 0.5t-180.5 -4.5h-6l-2 -2q1 -28 -2.5 -77t-3.5 -89.5t8 -73.5l2 -2q36 -3 78 -4t94 -1t80 -1v-2q6 -41 6.5 -87.5t-1.5 -104.5t-1 -93 q-35 -10 -92 -10.5t-100.5 -1t-55.5 -10.5q-15 -88 0 -256l2 -2q69 0 251 -6.5t286 -3.5v-5q11 -167 -17 -268q-96 1 -268 -3t-313 -3.5t-258 10.5q0 155 -5.5 443t-5 518.5zM166 1546q32 44 76.5 91.5t76 77.5t92.5 85.5t87 79.5l333 -332q-2 2 -34.5 -3.5t-82.5 -10 t-118 3.5q-11 0 -51.5 46.5t-52.5 53.5q-9 -5 -52.5 -51t-54.5 -49q-19 -2 -32 -2.5t-26 0.5t-60 4t-101 6z" />
<glyph unicode="&#xcb;" horiz-adv-x="978" d="M67.5 971.5q0.5 230.5 12.5 439.5q240 12 543 16.5t305 -4.5q6 -43 6 -91.5t-3 -107.5t-3 -91v-3q-76 -17 -176.5 -20t-180 0.5t-180.5 -4.5h-6l-2 -2q1 -28 -2.5 -77t-3.5 -89.5t8 -73.5l2 -2q36 -3 78 -4t94 -1t80 -1v-2q6 -41 6.5 -87.5t-1.5 -104.5t-1 -93 q-35 -10 -92 -10.5t-100.5 -1t-55.5 -10.5q-15 -88 0 -256l2 -2q69 0 251 -6.5t286 -3.5v-5q12 -170 -16 -268q-96 1 -268.5 -3t-313.5 -3.5t-258 10.5q0 155 -5.5 443t-5 518.5zM202.5 1619.5q-0.5 41.5 1 88.5t1.5 53q39 12 116 13t107 -11q0 -1 -3 -45t-6 -95t-3 -67v-2 v-2h-4l-199 2h-6q-4 24 -4.5 65.5zM558.5 1619.5q-0.5 41.5 1 88.5t1.5 53q39 12 116 13t107 -11q0 -1 -3 -45t-6 -95t-3 -67v-2v-2h-4l-199 2h-6q-4 24 -4.5 65.5z" />
<glyph unicode="&#xcc;" horiz-adv-x="561" d="M25 1735l141 143q56 -44 186 -177t156 -157q-32 -8 -120 -11.5t-155 3.5q-12 18 -53.5 57.5t-90.5 83t-62 56.5zM137 -8q19 236 5 740t12 714v4q8 1 43 -1.5t41 -2.5q169 -7 225 -6h49v-8q0 -159 -6.5 -473.5t-7 -477.5t11.5 -471q-20 -20 -104 -21.5t-156.5 5 t-112.5 -1.5z" />
<glyph unicode="&#xcd;" horiz-adv-x="616" d="M70 -8q19 237 4.5 740.5t11.5 713.5v4q8 1 43 -1.5t41 -2.5q169 -7 225 -6h49v-8q0 -159 -6.5 -473.5t-7 -477.5t11.5 -471q-20 -20 -104 -21.5t-156 5t-112 -1.5zM111 1544q26 24 156 157t186 177l141 -143l-2 -2q-12 -12 -62.5 -55.5t-93 -83.5t-51.5 -58 q-69 -7 -156.5 -3.5t-117.5 11.5z" />
<glyph unicode="&#xce;" horiz-adv-x="712" d="M29 1546q32 44 76.5 92t75 77t93 86t86.5 79l334 -332q-2 2 -34.5 -3.5t-82.5 -10t-118 3.5q-11 0 -52 46.5t-53 53.5q-9 -5 -52 -51t-54 -49q-19 -2 -32 -2.5t-26 0.5t-60 4t-101 6zM145 -8q19 236 5 740t12 714v4q8 1 43 -1.5t41 -2.5q169 -7 225 -6h49v-8 q0 -159 -6.5 -473.5t-7 -477.5t11.5 -471q-20 -20 -104 -21.5t-156.5 5t-112.5 -1.5z" />
<glyph unicode="&#xcf;" horiz-adv-x="647" d="M40.5 1619.5q-0.5 41.5 1 88.5t1.5 53q39 12 116 13t107 -11q0 -1 -3 -45t-6 -95t-3 -67v-2v-2h-4l-199 2h-6q-4 24 -4.5 65.5zM121 -8q19 237 4.5 740.5t11.5 713.5v4q8 1 43 -1.5t41 -2.5q169 -7 225 -6h50v-8q0 -159 -6.5 -473.5t-7 -477.5t11.5 -471 q-20 -20 -104 -21.5t-156.5 5t-112.5 -1.5zM396.5 1619.5q-0.5 41.5 1 88.5t1.5 53q39 12 116.5 13t107.5 -11q0 -1 -3.5 -45t-6.5 -95t-3 -67v-2v-2h-4l-198 2h-7q-4 24 -4.5 65.5z" />
<glyph unicode="&#xd0;" horiz-adv-x="1046" d="M43 840l117 -2q4 372 -2 569q21 3 71 10.5t77 11.5t76 9.5t80 6t76 -1t76 -9t69.5 -20.5t66.5 -33t56 -49t50 -66q63 -102 86 -193q41 -132 49 -237q22 -202 -24 -387q-89 -397 -260 -433q-78 -15 -172 -15.5t-200.5 4.5t-166.5 3q-8 263 -8 547q-39 2 -109 2 q0 29 -4.5 120.5t-3.5 162.5zM395 569q0 -178 4 -215q0 -8 13 -12.5t33.5 -5t39 0t36.5 2t20 1.5q47 5 80 23.5t59 56.5q32 52 45.5 159.5t1.5 198.5q-1 4 -5.5 34.5t-6 38.5t-6.5 35t-9 38t-11 33.5t-15 35t-18.5 29.5t-24 29.5t-29.5 23.5q-25 15 -67.5 17t-78 -4 t-61.5 -15q6 -54 2 -242l121 -2q0 -12 3 -113.5t3 -148.5z" />
<glyph unicode="&#xd1;" horiz-adv-x="1026" d="M71.5 978q1.5 242 18.5 445q59 18 143 12t156 -26v-2q4 -24 46 -97t114 -191t90 -148q13 48 2 206t2 248v7q88 15 185 14t135 -8l-2 -656q3 -114 2.5 -374t3.5 -373l-2 -29q-9 -20 -69 -21t-122 6t-110 -1h-2q-76 168 -246 612q-21 -308 -10 -602q0 -2 -3 -2 q-34 -17 -157 -4t-166 6q-2 0 -2 2q2 161 -3 447.5t-3.5 528.5zM113 1546q15 57 52 141.5t71 122.5q57 57 132.5 69.5t143.5 -30.5q23 -14 51.5 -50.5t44.5 -47.5q23 -20 46 -20t40.5 13.5t33 36t24 42t14.5 37.5q24 3 52 4t62.5 1t53.5 1l2 -2q0 -2 2 -2q24 -116 -74 -260 q-38 -44 -82 -58q-47 -14 -94.5 -12.5t-90.5 28.5t-62 74q-27 47 -80 47q-23 0 -72 -18q-22 -16 -31 -39q-13 -40 0 -82v-2q-36 8 -139 8q-65 0 -100 -2z" />
<glyph unicode="&#xd2;" horiz-adv-x="966" d="M56 831q0 91 5 166q4 231 109 351q22 22 47 36q132 68 304.5 60t287.5 -96q60 -54 84 -125q22 -51 33 -127q7 -85 4 -203q-4 -68 -4.5 -207t-5.5 -213l-7 -67q-11 -168 -77 -277q-59 -84 -211 -125q-99 -30 -234 -20q-102 9 -169.5 39t-100.5 104q-45 79 -49 227 q-2 46 -7 155.5t-7 170t-2 151.5zM131 1735l141 143q56 -44 186 -177t156 -157q-32 -8 -119.5 -11.5t-154.5 3.5q-12 18 -54 57.5t-91 83t-62 56.5zM281 647q3 -18 12.5 -127t25.5 -162q26 -53 84 -76t121.5 -9.5t104.5 59.5q19 25 26.5 43t9 29t2 46t3.5 68q1 22 2 49 t1.5 41t0.5 17v98l-4 139l-2 20q-1 19 -3 47.5t-3 49.5q-5 58 -33 104.5t-74 69.5q-44 15 -84.5 6.5t-75.5 -35.5q-72 -57 -96 -141q-29 -130 -18 -336z" />
<glyph unicode="&#xd3;" horiz-adv-x="966" d="M44 830q0 91 5 167q4 231 109 351q22 22 47 36q132 68 304.5 60t287.5 -96q60 -54 84 -125q21 -48 32 -127q8 -93 5 -203q-4 -67 -5 -206.5t-6 -213.5l-6 -67q-10 -167 -78 -277q-59 -84 -211 -125q-99 -30 -233 -20q-102 9 -169.5 39t-100.5 104q-46 81 -50 227 q-2 40 -7 154.5t-6.5 172.5t-1.5 149zM268 647q2 -15 12.5 -125.5t26.5 -163.5q26 -53 83.5 -76t121 -9.5t104.5 59.5q19 25 26.5 43t9 29t2 46t3.5 68q1 24 2 49.5t2 40.5t1 17v98l-5 139l-1 20q-2 19 -4 47.5t-3 49.5q-5 58 -32.5 104.5t-73.5 69.5q-44 15 -84.5 6.5 t-75.5 -35.5q-72 -57 -96 -141q-30 -134 -19 -336zM324 1544q26 24 156 157t186 177l141 -143l-2 -2q-12 -12 -62.5 -55.5t-93 -83.5t-51.5 -58q-69 -7 -156.5 -3.5t-117.5 11.5z" />
<glyph unicode="&#xd4;" horiz-adv-x="970" d="M50 831q0 91 5 166q4 231 109 351q22 22 47 36q132 68 304.5 60t287.5 -96q60 -54 84 -125q22 -51 33 -127q7 -85 4 -203q-4 -67 -5 -206.5t-6 -213.5l-6 -67q-10 -167 -78 -277q-59 -84 -211 -125q-99 -30 -233 -20q-102 9 -169.5 39t-100.5 104q-45 79 -49 227 q-2 46 -7 155.5t-7 170t-2 151.5zM166 1546q32 44 76.5 91.5t76 77.5t92.5 85.5t87 79.5l333 -332q-2 2 -34.5 -3.5t-82.5 -10t-118 3.5q-11 0 -51.5 46.5t-52.5 53.5q-9 -5 -52.5 -51t-54.5 -49q-19 -2 -32 -2.5t-26 0.5t-60 4t-101 6zM274 647q2 -15 12.5 -125.5 t26.5 -163.5q26 -53 84 -76t121.5 -9.5t104.5 59.5q19 25 26.5 43t9 29t2 46t3.5 68q1 22 2 49t1.5 41t0.5 17v98l-4 139l-2 20q-2 19 -4 47.5t-3 49.5q-5 58 -32.5 104.5t-73.5 69.5q-44 15 -84.5 6.5t-75.5 -35.5q-72 -57 -96 -141q-30 -134 -19 -336z" />
<glyph unicode="&#xd5;" horiz-adv-x="987" d="M58 831q0 91 5 166q4 231 109 351q22 22 47 36q132 68 304.5 60t287.5 -96q60 -54 84 -125q22 -51 33 -127q7 -85 4 -203q-4 -68 -4.5 -207t-5.5 -213l-7 -67q-11 -168 -77 -277q-59 -84 -211 -125q-99 -30 -234 -20q-102 9 -169.5 39t-100.5 104q-45 79 -49 227 q-2 46 -7 155.5t-7 170t-2 151.5zM80 1528q15 57 52 141.5t71 122.5q57 57 132.5 69.5t143.5 -30.5q23 -14 51.5 -50.5t44.5 -47.5q23 -20 46 -20t40.5 13.5t32.5 35.5t24 41.5t15 37.5q24 3 52 4t62.5 1t53.5 1l2 -2q0 -2 2 -2q24 -116 -74 -260q-37 -43 -81 -57 q-47 -14 -94.5 -12.5t-91 28.5t-62.5 74q-27 47 -80 47q-23 0 -72 -18q-22 -16 -31 -39q-13 -40 0 -82v-2q-36 8 -139 8q-65 0 -100 -2zM283 647q2 -15 12.5 -125.5t26.5 -163.5q26 -53 83.5 -76t121 -9.5t104.5 59.5q19 25 26.5 43t9 29t2 46t3.5 68q1 22 2 49t1.5 41 t0.5 17v98l-4 139l-2 20q-1 19 -3 47.5t-3 49.5q-5 58 -33 104.5t-74 69.5q-44 15 -84.5 6.5t-75.5 -35.5q-72 -57 -96 -141q-29 -130 -18 -336z" />
<glyph unicode="&#xd6;" horiz-adv-x="976" d="M54 831q0 91 5 166q4 231 109 351q22 22 47 36q132 68 304.5 60t287.5 -96q60 -54 84 -125q22 -51 33 -127q7 -85 4 -203q-4 -68 -4.5 -207t-5.5 -213l-7 -67q-11 -168 -77 -277q-59 -84 -211 -125q-99 -30 -234 -20q-102 9 -169.5 39t-100.5 104q-45 79 -49 227 q-2 46 -7 155.5t-7 170t-2 151.5zM208.5 1619.5q-0.5 41.5 1 88.5t1.5 53q39 12 116 13t107 -11q0 -1 -3 -45t-6 -95t-3 -67v-2v-2h-4l-199 2h-6q-4 24 -4.5 65.5zM279 647q3 -18 12.5 -127t25.5 -162q26 -53 84 -76t121.5 -9.5t104.5 59.5q19 25 26.5 43t9 29t2 46t3.5 68 q1 22 2 49t1.5 41t0.5 17v98l-4 139l-2 20q-2 19 -4 47.5t-3 49.5q-5 58 -32.5 104.5t-73.5 69.5q-44 15 -84.5 6.5t-75.5 -35.5q-72 -57 -96 -141q-29 -130 -18 -336zM564.5 1619.5q-0.5 41.5 1 88.5t1.5 53q39 12 116.5 13t107.5 -11q0 -1 -3.5 -45t-6.5 -95t-3 -67v-2v-2 h-4l-199 2h-6q-4 24 -4.5 65.5z" />
<glyph unicode="&#xd7;" horiz-adv-x="1579" d="M63 1487l1326 -4q0 -56 -0.5 -320t-0.5 -422.5t2.5 -373t8.5 -340.5q-2 -3 -2 -8q-1 -18 -45.5 -25.5t-352 -7t-925.5 17.5q12 329 9.5 501.5t-11.5 481t-9 500.5zM276 207q77 161 118.5 266t62.5 170.5t45 118.5q-10 30 -31 105.5t-36 119t-54.5 133.5t-97.5 197 q-7 -370 -7 -1110zM510 199q101 -7 239.5 -1.5t178.5 13.5l-219 461q-9 -23 -92.5 -211t-106.5 -262zM526 1311q22 -76 62.5 -177.5t78 -187t44.5 -106.5q10 27 50.5 109t86.5 183t72 181q-47 0 -197 -1t-197 -1zM932 758q10 -66 57.5 -165t107 -207.5t81.5 -166.5 q4 143 4 338t-2 426t-2 324q-21 -52 -81.5 -166.5t-107.5 -216.5t-57 -166z" />
<glyph unicode="&#xd8;" horiz-adv-x="987" d="M70 -23q3 15 11 40t14 43t16.5 46t11.5 31q0 1 1 2t1 2t-1 2t-1 2q-82 321 -53 807q2 23 4.5 92t11 115.5t29.5 87.5q37 76 82 121l6 6q47 36 113 53t128 15t127 -6q4 2 7 23.5t14 21.5h2q49 -5 99.5 -1.5t103 2t73.5 -15.5q-1 -26 -20 -73t-16 -72q48 -56 71.5 -131.5 t24 -148t-3.5 -152.5q0 -22 -0.5 -120.5t-1.5 -135.5t-4.5 -113t-10.5 -134.5t-18 -117.5q-25 -111 -104 -181.5t-191 -80.5q-38 -4 -115 -5t-110 -5h-2h-2q0 -12 -27 -31l-2 -2h2q-29 -5 -123.5 -4.5t-146.5 -1.5q-3 5 0 20zM291 571q22 68 89.5 269.5t100.5 310.5v2h-2 h-14q-41 -4 -81.5 -36t-57.5 -73q-7 -44 -12.5 -130t-12.5 -130q-1 -8 -3 -23.5t-3 -23.5q-16 -128 -4 -166zM471 268q1 0 2 -1t2 -1q33 6 67 19t68 39.5t43 58.5q19 80 21.5 160t-5 159t-7.5 99v8q-45 -120 -191 -541z" />
<glyph unicode="&#xd9;" horiz-adv-x="985" d="M49 301q0 130 5.5 508t2.5 582l-2 2h2q12 0 85 2.5t120 -0.5t84 -13v-2q-21 -499 19 -1005q14 -48 52 -71.5t78 -21t75.5 30t45.5 72.5q8 188 12 538t7 453q10 1 50 5.5t68.5 6.5t66.5 3t67 -4t47 -15v-2q27 -591 -25 -1061q-18 -140 -105.5 -232.5t-230.5 -105.5 q-89 -9 -178.5 7t-166 54.5t-126 108.5t-53.5 160zM168 1735l141 143q56 -44 186 -177t156 -157q-32 -8 -119.5 -11.5t-154.5 3.5q-12 18 -54 57.5t-91 83t-62 56.5z" />
<glyph unicode="&#xda;" horiz-adv-x="987" d="M39 301q0 130 5.5 508t2.5 582l-2 2h2q12 0 85 2.5t120 -0.5t84 -13v-2q-22 -507 18 -1005q19 -63 75 -84t110 6.5t67 87.5q8 188 12 538t7 453q10 1 50 5.5t68.5 6.5t66.5 3t67 -4t47 -15v-2q27 -591 -25 -1061q-18 -140 -105.5 -232.5t-230.5 -105.5q-89 -9 -178.5 7 t-166 54.5t-126 108.5t-53.5 160zM338 1544q26 24 156 157t186 177l141 -143l-2 -2q-12 -12 -62.5 -55.5t-93 -83.5t-51.5 -58q-69 -7 -156.5 -3.5t-117.5 11.5z" />
<glyph unicode="&#xdb;" horiz-adv-x="991" d="M47 301q0 130 5.5 508t2.5 582l-2 2h2q12 0 85 2.5t120 -0.5t84 -13v-2q-22 -507 18 -1005q19 -63 75 -84t110 6.5t67 87.5q8 188 12 538t7 453q10 1 50 5.5t68.5 6.5t66.5 3t67 -4t47 -15v-2q27 -591 -25 -1061q-18 -140 -105.5 -232.5t-230.5 -105.5q-89 -9 -178.5 7 t-166 54.5t-126 108.5t-53.5 160zM147 1546q32 44 76.5 91.5t76 77.5t92.5 85.5t87 79.5l334 -332q-2 2 -34.5 -3.5t-82.5 -10t-118 3.5q-11 0 -52 46.5t-53 53.5q-9 -5 -52 -51t-54 -49q-15 -2 -23.5 -2.5t-24 0t-30.5 1.5t-55.5 3.5t-86.5 5.5z" />
<glyph unicode="&#xdc;" horiz-adv-x="995" d="M49 301q0 130 5.5 508t2.5 582l-2 2h2q12 0 85 2.5t120 -0.5t84 -13v-2q-21 -499 19 -1005q14 -48 52 -71.5t78 -21t75.5 30t45.5 72.5q8 188 12 538t7 453q10 1 50 5.5t68.5 6.5t66.5 3t67 -4t47 -15v-2q27 -591 -25 -1061q-18 -140 -105.5 -232.5t-230.5 -105.5 q-89 -9 -178.5 7t-166 54.5t-126 108.5t-53.5 160zM198.5 1619.5q-0.5 41.5 1 88.5t1.5 53q39 12 116 13t107 -11q0 -1 -3 -45t-6 -95t-3 -67v-2v-2h-4l-199 2h-6q-4 24 -4.5 65.5zM554.5 1619.5q-0.5 41.5 1 88.5t1.5 53q39 12 116 13t107 -11q0 -1 -3 -45t-6 -95t-3 -67 v-2v-2h-4l-199 2h-6q-4 24 -4.5 65.5z" />
<glyph unicode="&#xdd;" horiz-adv-x="931" d="M25 -4q33 100 73 207.5t107 277.5t86 219v5q-29 120 -128.5 354t-127.5 350q25 0 94 6.5t124.5 5.5t92.5 -16q56 -221 121 -354q63 113 162 350q2 0 4 2q61 8 153 11.5t134 -3.5v-2q-65 -206 -180 -456t-234.5 -504.5t-186.5 -450.5q-38 4 -140.5 -0.5t-149.5 -1.5h-4z M307 1544q26 24 156 157t186 177l142 -143l-3 -2q-11 -11 -62 -55t-93 -84t-51 -58q-69 -7 -157 -3.5t-118 11.5z" />
<glyph unicode="&#xde;" horiz-adv-x="952" d="M72 -8q17 251 15 536t-8 476t7 491l279 -6q0 -41 2 -97.5t2 -191.5q9 23 22 39.5t31.5 26.5t34 16t42 8.5t43 3t48.5 0.5q146 -5 245 -138t99 -335q0 -68 -10.5 -141t-35 -146.5t-58.5 -131.5t-85 -94t-112 -36q-67 0 -139 31t-123 80q0 -135 -3.5 -234t-4 -101t3.5 -40 q-12 -14 -80.5 -16t-127.5 1.5t-87 -1.5zM373 783q0 -45 0.5 -66t4 -53t11 -46.5t21.5 -30.5t36.5 -22t53.5 -6q84 0 133 63t49 158q0 67 -12 109q-11 55 -61 93t-130 38q-77 0 -91.5 -28t-14.5 -154v-10v-10v-11v-24z" />
<glyph unicode="&#xdf;" horiz-adv-x="925" d="M27 711.5q3 511.5 0 705.5l2 2q73 20 148.5 31.5t156 12.5t153.5 -10.5t138.5 -42.5t113 -78t75.5 -122t28 -170q0 -150 -101 -319q-6 -15 -3.5 -22t14.5 -21q29 -36 37.5 -46.5t32.5 -43.5t32 -50t22.5 -49.5t17.5 -58.5t3.5 -61t-6.5 -72q-32 -181 -174 -250 q-69 -34 -128.5 -44t-164.5 -3q-24 88 -6 250q9 38 65 41q61 9 79 65t-0.5 116.5t-53.5 92.5q-72 75 -66 162q14 90 72 145q102 96 61 172q-32 60 -100 76q-134 24 -188 -6q-1 -21 -4 -62t-4 -61q-2 -34 2 -157q6 -99 6 -156q1 -33 3 -117t3 -123q0 -5 4 -245 q3 -196 -18 -193q-152 0 -201 2q-36 0 -45 4q-9 194 -6 705.5z" />
<glyph unicode="&#xe0;" horiz-adv-x="956" d="M37 545q0 202 99 335t245 138q47 0 70 -1.5t54.5 -10t51 -28.5t33.5 -54q-1 24 3.5 57.5t4.5 46.5q0 3 19.5 3.5t48.5 -0.5t30 -1q145 -6 201 -10q4 -32 4 -49v-21q-3 -118 2 -434.5t-6 -433.5v-15.5v-16t-0.5 -14.5t-2 -14t-4.5 -10.5t-8 -9t-12 -4.5h-24q-22 0 -67 3 t-66 3q-15 0 -44 -3t-44 -3q-25 8 -25 45q0 16 4 37.5t4 34.5q-51 -51 -125.5 -85t-144.5 -34q-61 0 -112 36t-85 94t-58.5 131.5t-35 146.5t-10.5 141zM231 1401l142 143q56 -44 186 -177t156 -157q-32 -8 -120 -11.5t-155 3.5q-12 18 -54 57.5t-91 83t-62 56.5zM289 504 q0 -95 49 -158t133 -63q19 0 34.5 2.5t27.5 7.5t21.5 12t16.5 16.5t11.5 20.5t7.5 25t5 29.5t2.5 32.5t0.5 36.5v40.5v24v31v55t-1.5 41.5t-3.5 33t-8 21.5t-12.5 16.5t-19 8.5t-26.5 5.5t-35 0.5q-80 0 -130 -38t-61 -93q-12 -42 -12 -108z" />
<glyph unicode="&#xe1;" horiz-adv-x="958" d="M27 545q0 202 99 335t245 138q47 0 70 -1.5t54.5 -10t51 -28.5t33.5 -54q-1 24 3.5 57.5t4.5 46.5q0 3 19.5 3.5t48.5 -0.5t30 -1q145 -6 201 -10q4 -32 4 -49v-21q-3 -118 2 -434.5t-6 -433.5v-15.5v-16t-0.5 -14.5t-2 -14t-4.5 -10.5t-8 -9t-12 -4.5h-24q-22 0 -67 3 t-67 3q-16 0 -44 -3t-44 -3q-24 8 -24 45q0 16 4 37.5t4 34.5q-51 -51 -125.5 -85t-144.5 -34q-61 0 -112 36t-85 94t-58.5 131.5t-35 146.5t-10.5 141zM279 504q0 -95 49 -158t133 -63q19 0 34.5 2.5t27.5 7.5t21.5 12t16.5 16.5t11.5 20.5t7.5 25t5 29.5t2.5 32.5 t0.5 36.5v40.5v24v27v56t-1.5 42.5t-4 34t-8 22t-12.5 16.5t-19 8.5t-26.5 6t-35.5 0.5q-80 0 -129.5 -38t-60.5 -93q-12 -42 -12 -108zM313 1210q26 24 156 157t186 177l142 -143l-2 -2q-12 -12 -62.5 -55.5t-93 -83.5t-51.5 -58q-69 -7 -157 -3.5t-118 11.5z" />
<glyph unicode="&#xe2;" horiz-adv-x="962" d="M35 545q0 202 99 335t245 138q47 0 70 -1.5t54.5 -10t51 -28.5t33.5 -54q-1 24 3.5 57.5t4.5 46.5q0 3 19.5 3.5t48.5 -0.5t30 -1q145 -6 201 -10q4 -32 4 -49v-21q-3 -118 2 -434.5t-6 -433.5v-15.5v-16t-0.5 -14.5t-2 -14t-4.5 -10.5t-8 -9t-12 -4.5h-24q-22 0 -67 3 t-66 3q-15 0 -44 -3t-44 -3q-25 8 -25 45q0 16 4 37.5t4 34.5q-51 -51 -125.5 -85t-144.5 -34q-61 0 -112 36t-85 94t-58.5 131.5t-35 146.5t-10.5 141zM180 1217q32 44 76 91t76.5 77.5t92.5 85t87 79.5l334 -331q-2 2 -35 -3.5t-83 -10.5t-118 3q-11 0 -51.5 47t-52.5 54 q-9 -5 -52.5 -51.5t-54.5 -49.5q-18 -2 -31.5 -2.5t-27 0.5t-59.5 4.5t-101 6.5zM287 504q0 -95 49 -158t133 -63q19 0 34.5 2.5t27.5 7.5t21.5 12t16.5 16.5t11.5 20.5t7.5 25t5 29.5t2.5 32.5t0.5 36.5v40.5v24v27v56t-1.5 42.5t-4 34t-8 22t-12.5 16.5t-19 8.5t-26.5 6 t-35.5 0.5q-80 0 -129.5 -38t-60.5 -93q-12 -42 -12 -108z" />
<glyph unicode="&#xe3;" horiz-adv-x="997" d="M43 545q0 202 99 335t245 138q47 0 70 -1.5t54.5 -10t51 -28.5t33.5 -54q-1 24 3.5 57.5t4.5 46.5q0 3 19.5 3.5t48.5 -0.5t30 -1q145 -6 201 -10q4 -32 4 -49v-21q-3 -118 2 -434.5t-6 -433.5q0 -3 0.5 -20.5t0 -23.5t-3 -17t-8.5 -16t-15 -7h-25q-22 0 -67 3t-66 3 q-15 0 -44 -3t-44 -3q-25 8 -25 45q0 16 4 37.5t4 34.5q-51 -51 -125.5 -85t-144.5 -34q-61 0 -112 36t-85 94t-58.5 131.5t-35 146.5t-10.5 141zM100 1212q16 57 52.5 142t70.5 123q57 57 133 69.5t144 -30.5q23 -14 51.5 -51t44.5 -48q23 -20 46 -20t40.5 13.5t33 36 t24 42t14.5 37.5q24 3 52 4t62.5 1t53.5 1l2 -2q0 -2 2 -2v-2q8 -66 -11 -135.5t-67.5 -124.5t-116.5 -66q-67 -11 -125.5 14.5t-83.5 85.5q-27 45 -71 48q-75 0 -105 -45l-6 -13q-13 -40 0 -82v-2q-36 8 -139 8q-66 0 -101 -2zM295 504q0 -95 49 -158t133 -63 q19 0 34.5 2.5t27.5 7.5t21.5 12t16.5 16.5t11.5 20.5t7.5 25t5 29.5t2.5 32.5t0.5 36.5v40.5v24v31v55t-1.5 41.5t-3.5 33t-8 21.5t-12.5 16.5t-19 8.5t-26.5 5.5t-35 0.5q-80 0 -130 -38t-61 -93q-12 -42 -12 -108z" />
<glyph unicode="&#xe4;" horiz-adv-x="983" d="M41 545q0 202 99 335t245 138q47 0 70 -1.5t54.5 -10t51 -28.5t33.5 -54q-1 24 3.5 57.5t4.5 46.5q0 3 19.5 3.5t48.5 -0.5t30 -1q145 -6 201 -10q4 -32 4 -49v-21q-3 -118 2 -434.5t-6 -433.5v-15.5v-16t-0.5 -14.5t-2 -14t-4.5 -10.5t-8 -9t-12 -4.5h-24q-22 0 -67 3 t-66 3q-15 0 -44 -3t-44 -3q-25 8 -25 45q0 16 4 37.5t4 34.5q-51 -51 -125.5 -85t-144.5 -34q-61 0 -112 36t-85 94t-58.5 131.5t-35 146.5t-10.5 141zM238 1556l278 -6q0 -12 3 -113.5t3 -148.5q-11 -16 -54 -18.5t-114 2t-108 2.5q0 29 -4.5 120t-3.5 162zM293 504 q0 -95 49 -158t133 -63q19 0 34.5 2.5t27.5 7.5t21.5 12t16.5 16.5t11.5 20.5t7.5 25t5 29.5t2.5 32.5t0.5 36.5v40.5v24v31v55t-1.5 41.5t-3.5 33t-8 21.5t-12.5 16.5t-19 8.5t-26.5 5.5t-35 0.5q-80 0 -130 -38t-61 -93q-12 -42 -12 -108zM614 1556l279 -6q0 -12 3 -113.5 t3 -148.5q-11 -16 -54 -18.5t-114 2t-108 2.5q0 30 -5 121t-4 161z" />
<glyph unicode="&#xe5;" horiz-adv-x="962" d="M35 545q0 202 99 335t245 138q47 0 70 -1.5t54.5 -10t51 -28.5t33.5 -54q-1 24 3.5 57.5t4.5 46.5q0 3 19.5 3.5t48.5 -0.5t30 -1q145 -6 201 -10q4 -32 4 -49v-21q-3 -118 2 -434.5t-6 -433.5v-15.5v-16t-0.5 -14.5t-2 -14t-4.5 -10.5t-8 -9t-12 -4.5h-24q-22 0 -67 3 t-66 3q-15 0 -44 -3t-44 -3q-25 8 -25 45q0 16 4 37.5t4 34.5q-51 -51 -125.5 -85t-144.5 -34q-61 0 -112 36t-85 94t-58.5 131.5t-35 146.5t-10.5 141zM287 504q0 -95 49 -158t133 -63q19 0 34.5 2.5t27.5 7.5t21.5 12t16.5 16.5t11.5 20.5t7.5 25t5 29.5t2.5 32.5 t0.5 36.5v40.5v24v27v56t-1.5 42.5t-4 34t-8 22t-12.5 16.5t-19 8.5t-26.5 6t-35.5 0.5q-80 0 -129.5 -38t-60.5 -93q-12 -42 -12 -108zM334 1458q5 17 22 41q57 51 160 41q123 -4 162 -59q40 -135 -12 -264q-30 -46 -123 -50q-38 -6 -115 -2q-30 2 -56 18t-36 42 q-25 137 -2 233zM414 1338q0 -4 0.5 -12t1 -12.5t2 -11t3.5 -11t5.5 -10t7.5 -9.5q22 -19 51 -19h21q3 0 13.5 0.5t15.5 1t14 1.5t14.5 3t12 5.5t11 8.5t7.5 11q12 56 10 92q-3 27 -14 45q-29 29 -80 29q-34 0 -61 -12q-25 -16 -31 -41q-4 -28 -4 -35v-11.5v-12.5z" />
<glyph unicode="&#xe6;" horiz-adv-x="1603" d="M173.5 308.5q4.5 82.5 55.5 168.5q42 65 136.5 95.5t194 22.5t167.5 -46q-3 60 -2 90.5t0.5 48.5t-4.5 31q-9 42 -38 67t-64 27.5t-68 -8.5t-55.5 -41t-22.5 -70q-193 -29 -254 2q-8 67 15.5 122t70.5 90t108 59t129 30.5t131.5 1.5t118.5 -25t87 -50q75 66 189 87.5 t226 -7.5q70 -12 121 -45.5t79 -79.5t44 -104t16.5 -120.5t-2.5 -128.5q-44 -13 -249 -20t-269 4v-35q0 -6 0.5 -25t0.5 -23.5t1 -19.5t1.5 -20t2.5 -16.5t4 -17t5 -15t7 -16.5t9 -15q24 -42 66.5 -63t83 -15.5t68.5 48.5t24 118q17 -2 119.5 2t121.5 -6q-1 -13 -3 -44 t-3.5 -45t-3.5 -41t-4 -41t-5 -35.5t-6 -33.5t-7.5 -26t-9.5 -23t-11 -14q-25 -34 -63.5 -54.5t-91 -26.5t-93.5 -6.5t-105 2.5t-91 3q-114 20 -183 115q-64 -52 -106 -78q-77 -44 -164 -55t-163 7.5t-138 63.5t-95 106t-28.5 143.5zM390 288.5q0 -30.5 28 -56t82 -33.5 q118 -20 171 26t43.5 104.5t-46.5 80.5q-142 67 -236 -15q-19 -19 -30.5 -47.5t-11.5 -59zM1040 700q-6 -30 2 -36q10 -7 95 -6q51 1 86 1q43 0 88 -3q25 -2 29 0t3 15v11q0 40 -19.5 75t-53.5 52q-41 18 -68 18q-44 0 -75 -9.5t-48 -28t-25.5 -38.5t-13.5 -49v-2z" />
<glyph unicode="&#xe7;" horiz-adv-x="935" d="M76 662q0 74 12 147q1 14 7 36t15.5 52t10.5 33q27 59 114 89t193 30q27 -3 79 -1t81 -1q148 -10 227 -86q12 -8 21.5 -19.5t16.5 -22.5t12.5 -28.5t9.5 -30.5t7 -37t4.5 -38.5t3 -44.5t2 -45.5t1.5 -50.5t2 -52q-73 -17 -260 10q-11 75 -61.5 113t-127.5 18 q-43 -12 -69 -45q-14 -10 -19 -41q-6 -48 -8 -139.5t-4 -126.5q-4 -45 23.5 -73.5t67 -36.5t80.5 -3t65 21q29 19 49 108q19 -2 129.5 2t130.5 -6q-5 -71 -8 -107.5t-10 -89t-16.5 -82t-22.5 -42.5q-34 -50 -91 -71t-139 -26q-7 -26 -48 -138t-46 -138v-2q-223 0 -223 2 q38 100 52.5 140.5t26 78t19.5 62.5l-27 2q-104 18 -176 90q-42 37 -65 93t-29.5 121.5t-6.5 127t0.5 133t-5.5 115.5zM897 -180l2 -4q-2 0 -2 2v2z" />
<glyph unicode="&#xe8;" horiz-adv-x="913" d="M45 582q1 7 3.5 41t3.5 44.5t3.5 39t5.5 43t7 37.5t9.5 41.5t12.5 37.5q26 59 82 102t125 63t148 23.5t151 -16.5q74 -12 128 -47t83 -84.5t46.5 -111.5t18.5 -128.5t-2 -136.5q-45 -13 -263 -20t-285 4v-37q0 -7 0.5 -32t1 -31t1.5 -24.5t3 -25.5t5 -20t7.5 -23 t11.5 -20q24 -47 69 -69.5t87.5 -16t73 53t26.5 124.5q19 -2 127.5 2t130.5 -6q-15 -205 -29 -262q-12 -43 -28 -57q-22 -31 -57 -52t-70.5 -30t-85 -12t-86.5 -2t-90.5 3.5t-81.5 2.5q-57 9 -107 36q-102 72 -148 228.5t-38 337.5zM190 1401l142 143q56 -44 186 -177 t156 -157q-32 -8 -120 -11.5t-155 3.5q-12 18 -53.5 57.5t-90.5 83t-62 56.5zM328 719q-6 -32 1 -38q10 -9 91 -8q67 1 100 1q42 0 90 -3q30 -1 34.5 1t4.5 17v9q0 42 -21.5 78t-58.5 55q-35 21 -71 21q-89 0 -125 -34.5t-45 -98.5z" />
<glyph unicode="&#xe9;" horiz-adv-x="917" d="M35 582q1 7 3.5 41t3.5 44.5t3.5 39t5.5 43t7 37.5t9.5 41.5t12.5 37.5q26 59 82 102t125 63t148 23.5t151 -16.5q74 -12 128 -47t83 -84.5t46.5 -111.5t18.5 -128.5t-2 -136.5q-47 -13 -263.5 -20t-285.5 4v-37q0 -6 0.5 -25.5t0.5 -24.5t1 -20.5t1.5 -21t2 -17.5t4 -18 t5.5 -16t7 -17.5t9 -15.5q24 -47 69 -69.5t87.5 -16t73 53t26.5 124.5q19 -2 127.5 2t130.5 -6q-15 -205 -29 -262q-12 -43 -28 -57q-22 -31 -57 -52t-70.5 -30t-85 -12t-86.5 -2t-90.5 3.5t-81.5 2.5q-57 9 -107 36q-102 72 -148 228.5t-38 337.5zM287 1210q26 24 156 157 t186 177l141 -143l-2 -2q-12 -12 -62.5 -55.5t-93 -83.5t-51.5 -58q-69 -7 -156.5 -3.5t-117.5 11.5zM317 719q-6 -32 2 -38q10 -9 93 -8q64 1 98 1q42 0 90 -3q30 -1 34.5 1t4.5 17v9q0 42 -21.5 78t-58.5 55q-34 21 -72 21q-89 0 -125 -34.5t-45 -98.5z" />
<glyph unicode="&#xea;" horiz-adv-x="919" d="M43 582q1 7 3.5 41t3.5 44.5t3.5 39t5.5 43t7 37.5t9.5 41.5t12.5 37.5q26 59 82 102t125 63t148 23.5t151 -16.5q74 -12 128 -47t83 -84.5t46.5 -111.5t18.5 -128.5t-2 -136.5q-47 -13 -263.5 -20t-285.5 4v-37q0 -6 0.5 -25.5t0.5 -24.5t1 -20.5t1.5 -21t2 -17.5t4 -18 t5.5 -16t7 -17.5t9 -15.5q24 -47 69 -69.5t87.5 -16t73 53t26.5 124.5q19 -2 127.5 2t130.5 -6q-15 -205 -29 -262q-12 -43 -28 -57q-22 -31 -57 -52t-70.5 -30t-85 -12t-86.5 -2t-90.5 3.5t-81.5 2.5q-57 9 -107 36q-102 72 -148 228.5t-38 337.5zM147 1217q32 44 76 91 t76.5 77.5t92.5 85t87 79.5l334 -331q-2 2 -34.5 -3.5t-82.5 -10.5t-118 3q-11 0 -52 47t-53 54q-9 -5 -52 -51.5t-54 -49.5q-18 -2 -31.5 -2.5t-27.5 0.5t-60 4.5t-101 6.5zM326 719q-6 -32 1 -38q10 -9 91 -8q67 1 100 1q42 0 90 -3q30 -1 34.5 1t4.5 17v9q0 42 -21.5 78 t-58.5 55q-35 21 -71 21q-89 0 -125 -34.5t-45 -98.5z" />
<glyph unicode="&#xeb;" horiz-adv-x="940" d="M53 582q1 7 3.5 41t3.5 44.5t3.5 39t5.5 43t7 37.5t9.5 41.5t12.5 37.5q26 59 82 102t125 63t148 23.5t151 -16.5q91 -15 151.5 -63.5t87.5 -122.5t35 -150.5t1 -171.5q-45 -13 -263.5 -20t-285.5 4v-37q0 -7 0.5 -32t1 -31t1.5 -24.5t3 -25.5t5 -20t7.5 -23t11.5 -20 q24 -47 69 -69.5t87.5 -16t73 53t26.5 124.5q19 -2 127.5 2t130.5 -6q-15 -205 -29 -262q-12 -43 -28 -57q-22 -31 -57 -52t-70.5 -30t-85 -12t-86.5 -2t-90.5 3.5t-81.5 2.5q-56 9 -106 36q-69 49 -114.5 143t-61.5 200.5t-11 222.5zM137 1556l279 -6q0 -12 3 -113.5 t3 -148.5q-11 -16 -54.5 -18.5t-114.5 2t-108 2.5q0 29 -4.5 120t-3.5 162zM336 719q-6 -32 1 -38q10 -9 91 -8q67 1 100 1q42 0 90 -3q30 -1 34.5 1t4.5 17v9q0 42 -21.5 78t-57.5 55q-34 21 -72 21q-89 0 -125 -34.5t-45 -98.5zM514 1556l279 -6q0 -12 3 -113.5t3 -148.5 q-11 -16 -54.5 -18.5t-114.5 2t-108 2.5q0 29 -4.5 120t-3.5 162z" />
<glyph unicode="&#xec;" horiz-adv-x="538" d="M16 1401l142 143q56 -44 186 -177t156 -157q-32 -8 -120 -11.5t-155 3.5q-12 18 -54 57.5t-91 83t-62 56.5zM199 0q13 167 4 526t8 508v2q6 1 29.5 -0.5t27.5 -1.5q103 -6 187 -4h34v-6q-1 -98 -5.5 -335.5t-4.5 -341t8 -335.5q-12 -14 -78.5 -15t-124.5 3.5t-85 -0.5z " />
<glyph unicode="&#xed;" horiz-adv-x="540" d="M41 1210q26 24 156 157t186 177l141 -143l-2 -2q-12 -12 -62.5 -55.5t-93 -83.5t-51.5 -58q-69 -7 -156.5 -3.5t-117.5 11.5zM51 1024v6h35q83 -2 186 4q4 0 28 1.5t30 0.5v-2q17 -166 8 -508t4 -526q-27 5 -85 0.5t-125 -3.5t-79 15q8 232 8 335.5t-4.5 341t-5.5 335.5z " />
<glyph unicode="&#xee;" horiz-adv-x="698" d="M18 1217q32 44 76 91t76.5 77.5t92.5 85t87 79.5l334 -331q-2 2 -34.5 -3.5t-82.5 -10.5t-118 3q-11 0 -52 47t-53 54q-9 -5 -52 -51.5t-54 -49.5q-18 -2 -31.5 -2.5t-27.5 0.5t-60 4.5t-101 6.5zM197 0q13 167 4 526t8 508v2q6 1 29.5 -0.5t27.5 -1.5q103 -6 187 -4h34 v-6q-1 -98 -5.5 -335.5t-4.5 -341t8 -335.5q-12 -14 -78.5 -15t-124.5 3.5t-85 -0.5z" />
<glyph unicode="&#xef;" horiz-adv-x="727" d="M35 1556l278 -6q0 -12 3 -113.5t3 -148.5q-11 -16 -54 -18.5t-114 2t-108 2.5q0 29 -4.5 120t-3.5 162zM215 0q13 167 4 526t8 508v2q6 1 30 -0.5t28 -1.5q103 -6 186 -4h35v-6q-1 -98 -5.5 -335.5t-4.5 -341t8 -335.5q-12 -14 -79 -15t-125 3.5t-85 -0.5zM412 1556 l278 -6q0 -12 3 -113.5t3 -148.5q-11 -16 -54 -18.5t-114 2t-108 2.5q0 29 -4.5 120t-3.5 162z" />
<glyph unicode="&#xf0;" horiz-adv-x="1136" d="M55 422q-8 226 60 347.5t252 145.5q49 6 91.5 6.5t76 -3.5t58.5 -8t48 -13t34 -14t27 -13q-7 33 -11 94t-11 93q-30 155 -133 243q-204 -138 -324 -213q-23 32 -85.5 82t-65.5 54l247 178q-39 9 -118 54t-125 65q-3 3 55.5 55t126 101t86.5 42q43 -17 116.5 -61 t129.5 -62q30 22 73.5 53.5t67 48.5t46.5 32.5t34 21.5q29 -37 57.5 -56t60.5 -38t64 -53q-182 -113 -192 -119q81 -69 127 -160q33 -65 58 -167.5t33 -162t25 -200.5q11 -93 15 -173t-0.5 -163.5t-19.5 -150.5t-45.5 -129t-75 -106.5t-110 -75t-149.5 -40.5 q-109 -13 -209 2t-183.5 56t-138.5 119t-67 183q-4 28 -4 48zM319 426l5 -33q23 -74 101 -106.5t165 -24.5q92 11 136 56t34 122q-7 72 -63 120t-121 64.5t-125 10.5q-81 -10 -112 -67t-20 -142z" />
<glyph unicode="&#xf1;" horiz-adv-x="946" d="M53 1212q16 57 52.5 142t70.5 123q57 57 133 69.5t144 -30.5q23 -14 51.5 -51t44.5 -48q23 -20 46 -20t40.5 13.5t33 36t24 42t14.5 37.5q24 3 51.5 4t62 1t53.5 1l3 -2q0 -2 2 -2v-2q8 -66 -11 -135.5t-67.5 -124.5t-116.5 -66q-67 -11 -125.5 14.5t-83.5 85.5 q-27 45 -72 48q-74 0 -104 -45l-6 -13q-13 -40 0 -82v-2q-36 8 -139 8q-66 0 -101 -2zM74.5 668.5q-0.5 121.5 3.5 351.5q49 -4 71.5 -4t71.5 4q6 0 21.5 2t32 4t32.5 3t26.5 -0.5t10.5 -6.5q4 -27 4 -63v-46q38 22 51 31q89 65 206 70t206 -64q30 -27 41 -141t7 -255 t-6 -293.5t1 -256.5q-34 -5 -69 -7t-57.5 -2t-64.5 0.5t-65 0.5q-5 62 -4 229t-4 246q-1 8 -2.5 30.5t-2.5 33.5t-3.5 31.5t-6 33t-8.5 27.5t-12 25.5t-16 17.5q-1 1 -4.5 2t-4.5 2q-19 10 -48 12.5t-61.5 -4t-57 -37.5t-27.5 -82q-4 -77 4 -277.5t-6 -271.5v-8 q-41 -12 -78.5 -13t-72.5 2.5t-103 -1.5q0 117 -2.5 335t-3 339.5z" />
<glyph unicode="&#xf2;" horiz-adv-x="929" d="M76 666q0 83 10 147q1 19 17 69.5t16 51.5q27 59 114 89t193 30q27 -3 79 -1t81 -1q146 -10 227 -88q26 -17 42.5 -52t24.5 -91t11 -103t5 -124v-12.5t0.5 -11t0.5 -12.5q-11 -287 -30 -384q-14 -75 -36 -97q-27 -38 -68 -60.5t-97 -29t-99.5 -7t-112 3t-98.5 3.5 q-104 18 -176 90q-42 37 -66 94.5t-29.5 118.5t-7 130t1.5 129.5t-3 117.5zM188 1401l142 143q56 -44 186 -177t156 -157q-32 -8 -120 -11.5t-155 3.5q-12 18 -54 57.5t-91 83t-62 56.5zM344 385q-3 -58 42 -87t100.5 -27.5t93.5 22.5q35 15 47 67q1 5 2 16q18 155 7 226 q-1 8 -3 16q-11 73 -60.5 105.5t-128.5 13.5q-43 -12 -69 -45q-14 -10 -19 -41q-6 -50 -8 -140.5t-4 -125.5z" />
<glyph unicode="&#xf3;" horiz-adv-x="933" d="M66 666q0 83 10 147q1 19 17 69.5t16 51.5q27 59 114 89t193 30q27 -3 78.5 -1t80.5 -1q147 -10 228 -88q26 -17 42.5 -52t24.5 -91t11 -103t5 -124v-12.5t0.5 -11t0.5 -12.5q-11 -287 -30 -384q-14 -75 -36 -97q-27 -38 -68 -60.5t-97 -29t-99.5 -7t-112 3t-98.5 3.5 q-104 18 -176 90q-42 37 -66 94.5t-29.5 118.5t-7 130t1.5 129.5t-3 117.5zM311 1210q26 24 156 157t186 177l142 -143l-2 -2q-12 -12 -62.5 -55.5t-93 -83.5t-51.5 -58q-69 -7 -157 -3.5t-118 11.5zM334 385q-3 -58 41.5 -87t100 -27.5t93.5 22.5q35 15 47 67q0 4 3.5 32 t4 35t3 31.5t3 34.5t1 30.5t-0.5 33.5t-2.5 29.5t-4.5 31.5q-11 73 -60.5 105.5t-128.5 13.5q-43 -12 -69 -45q-14 -10 -19 -41q-6 -50 -8 -140.5t-4 -125.5z" />
<glyph unicode="&#xf4;" horiz-adv-x="937" d="M74 666q0 83 10 147q1 19 17 69.5t16 51.5q27 59 114 89t193 30q27 -3 79 -1t81 -1q146 -10 227 -88q26 -17 42.5 -52t24.5 -91t11 -103t5 -124v-12.5t0.5 -11t0.5 -12.5q-11 -287 -30 -384q-14 -75 -36 -97q-27 -38 -68 -60.5t-97 -29t-99.5 -7t-112 3t-98.5 3.5 q-104 18 -176 90q-42 37 -66 94.5t-29.5 118.5t-7 130t1.5 129.5t-3 117.5zM168 1217q32 44 76 91t76.5 77.5t92.5 85t87 79.5l334 -331q-2 2 -35 -3.5t-83 -10.5t-118 3q-11 0 -51.5 47t-52.5 54q-9 -5 -52.5 -51.5t-54.5 -49.5q-18 -2 -31.5 -2.5t-27 0.5t-59.5 4.5 t-101 6.5zM342 385q-3 -58 42 -87t100.5 -27.5t93.5 22.5q35 15 47 67q1 5 2 16q18 155 7 226q-1 8 -3 16q-11 73 -60.5 105.5t-128.5 13.5q-43 -12 -69 -45q-14 -10 -19 -41q-6 -50 -8 -140.5t-4 -125.5z" />
<glyph unicode="&#xf5;" horiz-adv-x="970" d="M80 1212q16 57 52.5 142t70.5 123q57 57 132.5 69.5t143.5 -30.5q23 -14 51.5 -51t44.5 -48q23 -20 46 -20t40.5 13.5t33 36t24 42t14.5 37.5q24 3 52 4t62.5 1t53.5 1l2 -2q0 -2 2 -2v-2q8 -66 -10.5 -135.5t-67 -124.5t-116.5 -66q-67 -11 -125.5 14.5t-83.5 85.5 q-27 45 -72 48q-74 0 -104 -45l-7 -13q-13 -40 0 -82v-2q-36 8 -139 8q-65 0 -100 -2zM82 666q0 83 10 147q1 19 17 69.5t16 51.5q27 59 114 89t193 30q27 -3 79 -1t81 -1q146 -10 227 -88q26 -17 42.5 -52t24.5 -91t11 -103t5 -124v-12.5t0.5 -11t0.5 -12.5 q-10 -276 -26 -370q-15 -87 -39 -111q-23 -32 -58 -53t-71 -30t-86 -12t-87.5 -1.5t-91 4t-82.5 2.5q-104 18 -176 90q-42 37 -66 94.5t-29.5 118.5t-7 130t1.5 129.5t-3 117.5zM350 385q-3 -58 42 -87t100.5 -27.5t93.5 22.5q35 15 47 67q1 5 2 16q18 155 7 226q-1 8 -3 16 q-11 73 -60.5 105.5t-127.5 13.5q-44 -12 -70 -45q-14 -10 -19 -41q-6 -50 -8 -140.5t-4 -125.5z" />
<glyph unicode="&#xf6;" horiz-adv-x="954" d="M82 666q0 83 10 147q1 19 17 69.5t16 51.5q27 59 114 89t193 30q27 -3 79 -1t81 -1q146 -10 227 -88q26 -17 42.5 -52t24.5 -91t11 -103t5 -124v-12.5t0.5 -11t0.5 -12.5q-10 -276 -26 -370q-15 -87 -39 -111q-23 -32 -58 -53t-71 -30t-86 -12t-87.5 -1.5t-91 4 t-82.5 2.5q-104 18 -176 90q-42 37 -66 94.5t-29.5 118.5t-7 130t1.5 129.5t-3 117.5zM152 1556l278 -6q0 -12 3 -113.5t3 -148.5q-11 -16 -54 -18.5t-114 2t-108 2.5q0 29 -4.5 120t-3.5 162zM350 385q-3 -58 42 -87t100.5 -27.5t93.5 22.5q35 15 47 67q1 5 2 16 q18 155 7 226q-1 8 -3 16q-11 73 -60.5 105.5t-127.5 13.5q-44 -12 -70 -45q-14 -10 -19 -41q-6 -50 -8 -140.5t-4 -125.5zM528 1556l279 -6q0 -12 3 -113.5t3 -148.5q-11 -16 -54 -18.5t-114 2t-108 2.5q0 30 -5 121t-4 161z" />
<glyph unicode="&#xf7;" horiz-adv-x="901" d="M18 350q0 28 2.5 132t2.5 106h858q1 -29 -1 -79t-1.5 -92t6.5 -77h-2q-17 0 -432.5 5t-432.5 5zM312.5 77q-0.5 48 1 102.5t1.5 60.5q39 16 134.5 16.5t121.5 -12.5q0 -1 -3 -53t-6 -111t-3 -76v-2v-2h-4l-231 2h-7q-4 27 -4.5 75zM312.5 765q-0.5 48 1 102.5t1.5 60.5 q39 16 134.5 16.5t121.5 -12.5q0 -1 -3 -53t-6 -111t-3 -76v-2v-2h-4l-231 2h-7q-4 27 -4.5 75z" />
<glyph unicode="&#xf8;" horiz-adv-x="733" d="M66 -38.5q2 11.5 7 28t10 31t11 32t8 23.5l2 2q0 1 -1 2t-1 2q-60 239 -36 573q2 20 3.5 66t6.5 80.5t20 62.5q24 52 58 86l6 6q83 64 264 43q2 2 3 17.5t9 15.5h2q36 -6 71.5 -3.5t73 2t52.5 -10.5q-1 -18 -14.5 -51t-10.5 -51q49 -57 60 -133t4 -175v-62v-67 t-0.5 -60.5t-2 -66t-4 -59.5t-6.5 -65.5t-10 -61.5q-19 -78 -76 -128t-135 -58q-27 -3 -82 -4.5t-79 -4.5h-3q0 -2 -18 -20l-2 -2h2q-17 -4 -48 -5t-81.5 0t-62.5 1q-2 3 0 14.5zM218.5 417.5q0.5 -9.5 4.5 -32.5q16 52 63.5 194t71.5 218v2h-2h-8q-31 -5 -59.5 -27 t-40.5 -51q-6 -37 -11 -106.5t-6 -77.5q-3 -18 -6 -35q0 -7 -3.5 -41t-3 -43.5zM350 168q2 0 2 -2q40 8 79 29.5t50 54.5q15 58 16.5 114.5t-4.5 112.5t-6 72v4q-19 -45 -42.5 -111t-52 -150.5t-42.5 -123.5z" />
<glyph unicode="&#xf9;" horiz-adv-x="907" d="M78.5 470q4.5 142 6.5 295t-1 255q34 5 69 7t57.5 2t64.5 -0.5t65 -0.5q5 -62 4 -229t4 -246q1 -8 2.5 -30.5t2.5 -33.5t3.5 -31.5t6 -33t8.5 -27.5t12 -25.5t16 -17.5q1 -1 4.5 -2t4.5 -2q19 -10 48 -12.5t61.5 4t57 37.5t27.5 82q4 73 -1 185.5t-7.5 183.5t10.5 180v8 q41 12 78.5 13t72.5 -2.5t103 1.5q0 -117 2.5 -335t3 -339.5t-3.5 -351.5q-50 4 -72 4t-71 -4q-6 0 -21.5 -2t-32 -4t-32.5 -3t-26.5 0.5t-10.5 6.5q-4 27 -4 63v46q-38 -22 -51 -31q-89 -65 -206 -70t-206 64q-30 26 -41.5 140t-7 256zM174 1401l141 143q56 -44 186 -177 t156 -157q-32 -8 -119.5 -11.5t-154.5 3.5q-12 18 -54 57.5t-91 83t-62 56.5z" />
<glyph unicode="&#xfa;" horiz-adv-x="909" d="M64.5 470q4.5 142 6.5 295t-1 255q34 5 69 7t57.5 2t64.5 -0.5t65 -0.5q5 -62 4 -229t4 -246q1 -8 2.5 -30.5t2.5 -33.5t3.5 -31.5t6 -33t8.5 -27.5t12 -25.5t16 -17.5q1 -1 4 -2t4 -2q19 -10 48.5 -12.5t62 4t57 37.5t27.5 82q4 73 -1 185.5t-7.5 183.5t10.5 180v8 q41 12 78.5 13t72.5 -2.5t103 1.5q0 -117 2.5 -335t3 -339.5t-3.5 -351.5q-72 7 -144 0q-6 0 -21.5 -2t-31.5 -4t-32.5 -3t-26.5 0.5t-10 6.5q-3 21 -3.5 38.5t-0.5 37t-1 33.5q-38 -22 -51 -31q-89 -65 -205.5 -70t-205.5 64q-30 26 -41.5 140t-7 256zM293 1210 q26 24 156 157t186 177l141 -143l-2 -2q-12 -12 -62.5 -55.5t-93 -83.5t-51.5 -58q-69 -7 -156.5 -3.5t-117.5 11.5z" />
<glyph unicode="&#xfb;" horiz-adv-x="913" d="M74.5 470q4.5 142 6.5 295t-1 255q34 5 69 7t57.5 2t64.5 -0.5t65 -0.5q5 -62 4 -229t4 -246q1 -8 2.5 -30.5t2.5 -33.5t3.5 -31.5t6 -33t8.5 -27.5t12 -25.5t16 -17.5q1 -1 4 -2t4 -2q19 -10 48.5 -12.5t62 4t57 37.5t27.5 82q4 73 -1 185.5t-7.5 183.5t10.5 180v8 q41 12 78.5 13t72.5 -2.5t103 1.5q0 -117 2.5 -335t3 -339.5t-3.5 -351.5q-49 4 -71.5 4t-71.5 -4q-6 0 -21.5 -2t-32 -4t-32.5 -3t-26.5 0.5t-10.5 6.5q-4 27 -4 63v46q-38 -22 -51 -31q-89 -65 -206 -70t-206 64q-30 26 -41.5 140t-7 256zM152 1217q32 44 76 91.5t75.5 77 t92.5 85t87 79.5l334 -331q-2 2 -34.5 -3.5t-82.5 -10.5t-118 3q-11 0 -52 47t-53 54q-9 -5 -52 -51.5t-54 -49.5q-18 -2 -31.5 -2.5t-27 0.5t-59.5 4.5t-101 6.5z" />
<glyph unicode="&#xfc;" horiz-adv-x="933" d="M84.5 470q4.5 142 6.5 295t-1 255q34 5 69 7t57.5 2t64.5 -0.5t65 -0.5q5 -62 4 -229t4 -246q0 -5 2 -30t3.5 -34.5t4 -31.5t6 -33.5t8.5 -27t12 -25.5t16 -17q1 -1 4 -2t4 -2q19 -10 48 -12.5t61.5 4t57 37.5t27.5 82q4 73 -1 185.5t-7.5 183.5t10.5 180v8 q41 12 78.5 13t72.5 -2.5t103 1.5q0 -117 2.5 -335t3 -339.5t-3.5 -351.5q-50 4 -72 4t-71 -4q-6 0 -21.5 -2t-32 -4t-32.5 -3t-26.5 0.5t-10.5 6.5q-4 27 -4 63v46q-38 -22 -51 -31q-89 -65 -206 -70t-206 64q-30 26 -41.5 140t-7 256zM137 1556l279 -6q0 -12 3 -113.5 t3 -148.5q-11 -16 -54.5 -18.5t-114.5 2t-108 2.5q0 29 -4.5 120t-3.5 162zM514 1556l279 -6q0 -12 3 -113.5t3 -148.5q-11 -16 -54.5 -18.5t-114.5 2t-108 2.5q0 29 -4.5 120t-3.5 162z" />
<glyph unicode="&#xfd;" horiz-adv-x="989" d="M29.5 -223.5q-2.5 80.5 9.5 133.5q21 0 66 -2q43 -5 83 -2t69.5 13t43.5 42.5t6 87.5q-12 69 -26 138.5t-32.5 149t-31.5 134t-37.5 147.5t-35 132t-39 144t-35.5 130q49 -5 155 -3t148 -3q3 -16 40.5 -217.5t64.5 -323.5t54 -196q28 78 65 367t71 374q29 -1 141 2 t158 -2q-28 -106 -109 -453q-13 -49 -29.5 -123.5t-28.5 -131t-31.5 -129.5t-40 -128.5t-53 -117.5t-70.5 -106.5t-93 -86.5t-120 -66t-152 -36t-189 -6q-19 58 -21.5 138.5zM322 1210q26 24 156 157t186 177l141 -143l-2 -2q-12 -12 -62.5 -55.5t-93 -83.5t-51.5 -58 q-69 -7 -156.5 -3.5t-117.5 11.5z" />
<glyph unicode="&#xfe;" horiz-adv-x="935" d="M63 -352q11 284 11 936t12 903l279 -6q0 -50 -1 -133t-2 -207.5t-2 -216.5q14 34 35.5 54t55.5 28.5t58.5 10t72.5 1.5q146 -5 245 -138t99 -335q0 -68 -10.5 -141t-35 -146.5t-58.5 -131.5t-85 -94t-112 -36q-68 0 -140 31t-123 79v-159.5t-0.5 -102.5t0.5 -57.5 t2.5 -57t4.5 -69.5q-12 -14 -83 -15t-132.5 3.5t-90.5 -0.5zM365 455.5q0 -16.5 1.5 -43t5 -39t9 -31t15 -26.5t22.5 -17t31.5 -12.5t42.5 -3.5q84 0 133 63t49 158q0 66 -12 108q-11 55 -61 93t-130 38q-77 0 -91.5 -28t-14.5 -154v-10v-10v-11v-24v-50.5z" />
<glyph unicode="&#xff;" horiz-adv-x="1001" d="M39.5 -223.5q-2.5 80.5 9.5 133.5q21 0 66 -2q43 -5 83 -2t69.5 13t43.5 42.5t6 87.5q-12 69 -26 138.5t-32.5 149t-31.5 134t-37.5 147.5t-35 132t-39 144t-35.5 130q49 -5 155 -3t148 -3q8 -42 32 -170.5t41 -215t41.5 -190.5t45.5 -161q28 78 64.5 367t70.5 374 q29 -1 141 2t158 -2q-28 -106 -109 -453q-13 -49 -29.5 -123.5t-28.5 -131t-31.5 -129.5t-40 -128.5t-53 -117.5t-70.5 -106.5t-93 -86.5t-120 -66t-152 -36t-189 -6q-19 58 -21.5 138.5zM209 1556l278 -6q0 -12 3.5 -113.5t3.5 -148.5q-11 -16 -54.5 -18.5t-114.5 2 t-108 2.5q0 29 -4.5 120t-3.5 162zM586 1556l278 -6q0 -12 3 -113.5t3 -148.5q-11 -16 -54 -18.5t-114 2t-108 2.5q0 29 -4.5 120t-3.5 162z" />
<glyph unicode="&#x152;" horiz-adv-x="1746" d="M80.5 468q-3.5 127 8.5 315t13 249q2 117 58.5 214.5t154.5 148.5q50 30 105.5 36t133.5 0t116 -4q252 -3 433.5 -2.5t381.5 3t203 2.5q4 -174 -7 -302q-92 -17 -273.5 -14.5t-268.5 -11.5l-2 -2q2 -26 -2 -76t-3 -91t15 -69q37 -4 122.5 -4.5t127.5 -5.5q0 -1 1 -3t1 -3 q4 -43 4 -89.5t-2 -105t-2 -92.5v-2h-2q-22 5 -124.5 2.5t-113.5 -2.5h-2q-13 -9 -15.5 -119t19.5 -149h4q79 -3 257 -4.5t268 -5.5v-5q12 -178 -19 -270h-2q-81 -2 -373.5 -1.5t-377.5 -8.5q-59 -2 -135.5 -8t-128 -11t-119 -5t-129.5 8q-214 22 -295 243 q-27 118 -30.5 245zM348 844q8 -66 3 -192t3 -187q5 -49 26 -103t56 -86q38 -30 82.5 -24.5t85.5 37.5q49 43 69.5 98.5t33.5 140.5q26 258 20 398q-4 55 -16 94q-3 5 -7.5 15.5t-7.5 15.5q-24 49 -61 73q-45 30 -109 31.5t-106 -27.5q-55 -44 -68 -137q-4 -37 -4 -147z" />
<glyph unicode="&#x153;" horiz-adv-x="1492" d="M53 545q0 203 99 337.5t245 139.5q12 0 47.5 1t60 1t61 -2t64 -9t55.5 -19t47.5 -33t29.5 -50q44 49 103 76t112.5 30.5t110 4.5t94.5 0q72 -12 124 -58.5t78.5 -116.5t36.5 -151t4 -170q-45 -13 -263 -20t-285 4v-37q0 -7 0.5 -32t1 -31t1.5 -24.5t3 -25.5t5 -20 t7.5 -23t11.5 -20q24 -47 69 -69.5t87.5 -16t73 53t26.5 124.5q19 -2 127.5 2t130.5 -6q-15 -205 -29 -262q-12 -43 -28 -57q-28 -37 -127 -61.5t-221 -6.5l-29 4q-51 8 -93 27t-66 40.5t-41 41.5t-25.5 33.5t-11.5 13.5q-13 -34 -36 -60.5t-47 -43.5t-60.5 -29t-61.5 -17.5 t-65.5 -8.5t-57 -3h-51.5h-17q-61 0 -112 36t-85 94t-58.5 131.5t-35 146.5t-10.5 141zM266 562q0 -34 0.5 -53t2 -56.5t5.5 -61.5t11 -56.5t18.5 -53.5t27.5 -42t39 -31.5t52 -12.5q31 -2 56.5 4.5t44 17.5t32.5 32t23 41t15 50.5t9 53.5t4 57.5t1 56t-0.5 55.5t-0.5 49 q0 96 -13.5 143.5t-42.5 64t-89 16.5q-147 0 -172 -121q-23 -81 -23 -137v-16zM883 715q-6 -32 1 -38q10 -9 91 -8q67 1 100 1q42 0 90 -3q30 -1 34.5 1t4.5 17v9q0 42 -21.5 78t-58.5 55q-34 21 -71 21q-89 0 -125 -34.5t-45 -98.5z" />
<glyph unicode="&#x178;" horiz-adv-x="942" d="M35 -4q33 100 73 207.5t107 277.5t86 219v5q-29 120 -128.5 354t-127.5 350q25 0 94 6.5t124.5 5.5t92.5 -16q56 -221 121 -354q63 113 162 350q2 0 4 2q61 8 153 11.5t134 -3.5v-2q-52 -164 -136 -359t-160 -349t-163 -349.5t-141 -353.5q-38 4 -141 -0.5t-150 -1.5h-4z M192.5 1619.5q-0.5 41.5 1 88.5t1.5 53q39 12 116 13t107 -11q0 -1 -3 -45t-6 -95t-3 -67v-2v-2h-5l-198 2h-6q-4 24 -4.5 65.5zM548.5 1619.5q-0.5 41.5 1 88.5t1.5 53q39 12 116 13t107 -11q0 -1 -3 -45t-6 -95t-3 -67v-2v-2h-4l-199 2h-6q-4 24 -4.5 65.5z" />
<glyph unicode="&#x2c6;" horiz-adv-x="710" d="M23 1081q32 44 76.5 92t75 77t93 86t86.5 79l334 -332q-2 2 -34.5 -3.5t-82.5 -10t-118 3.5q-11 0 -52 47t-53 54q-9 -5 -52 -51.5t-54 -49.5q-19 -2 -32 -2.5t-26 0.5t-60 4t-101 6z" />
<glyph unicode="&#x2dc;" horiz-adv-x="919" d="M35 1024q14 54 51.5 139t71.5 125q56 56 134.5 69t143.5 -30q21 -15 51 -49t50 -47q21 -21 43 -22t39 12.5t33 35.5t25 41.5t15 36.5q25 3 52.5 4t62 1t53.5 1q4 0 4 -4q16 -57 -8.5 -127.5t-69.5 -126.5q-32 -43 -77 -61q-71 -27 -145 -3.5t-105 91.5q-15 18 -23 25.5 t-24.5 15t-36.5 6.5q-27 0 -66 -20q-25 -16 -35 -39q-12 -27 0 -78q-27 6 -139 6q-65 0 -100 -2z" />
<glyph unicode="&#x2000;" horiz-adv-x="958" />
<glyph unicode="&#x2001;" horiz-adv-x="1916" />
<glyph unicode="&#x2002;" horiz-adv-x="958" />
<glyph unicode="&#x2003;" horiz-adv-x="1916" />
<glyph unicode="&#x2004;" horiz-adv-x="638" />
<glyph unicode="&#x2005;" horiz-adv-x="479" />
<glyph unicode="&#x2006;" horiz-adv-x="319" />
<glyph unicode="&#x2007;" horiz-adv-x="319" />
<glyph unicode="&#x2008;" horiz-adv-x="239" />
<glyph unicode="&#x2009;" horiz-adv-x="383" />
<glyph unicode="&#x200a;" horiz-adv-x="106" />
<glyph unicode="&#x2010;" horiz-adv-x="1048" d="M63 414q0 37 3.5 181t3.5 146h907q1 -38 -1.5 -108t-1.5 -127t9 -107h-2q-22 0 -459.5 7.5t-458.5 7.5z" />
<glyph unicode="&#x2011;" horiz-adv-x="1048" d="M63 414q0 37 3.5 181t3.5 146h907q1 -38 -1.5 -108t-1.5 -127t9 -107h-2q-22 0 -459.5 7.5t-458.5 7.5z" />
<glyph unicode="&#x2012;" horiz-adv-x="1048" d="M63 414q0 37 3.5 181t3.5 146h907q1 -38 -1.5 -108t-1.5 -127t9 -107h-2q-22 0 -459.5 7.5t-458.5 7.5z" />
<glyph unicode="&#x2013;" horiz-adv-x="909" d="M63 340q0 39 3.5 212.5t3.5 176.5h768q0 -163 6 -403h-2q-22 0 -389 7t-390 7z" />
<glyph unicode="&#x2014;" horiz-adv-x="1396" d="M66 328q0 39 3 218t3 183h1054h199q0 -22 -2 -122.5t-0.5 -172t8.5 -121.5h-2q-23 0 -631.5 7.5t-631.5 7.5z" />
<glyph unicode="&#x2018;" horiz-adv-x="421" d="M33 946q20 72 72.5 274t58.5 230q-1 -1 44.5 0t104.5 2t82 0v-2q-23 -84 -47.5 -185.5t-42 -163.5t-47.5 -147q0 -2 -2 -4h-2q-5 0 -31 -3t-56 -6t-60.5 -4.5t-51.5 0.5t-22 9z" />
<glyph unicode="&#x2019;" horiz-adv-x="421" d="M33 946q20 72 72.5 274t58.5 230q-1 -1 44.5 0t104.5 2t82 0v-2q-23 -84 -47.5 -185.5t-42 -163.5t-47.5 -147q0 -2 -2 -4h-2q-5 0 -31 -3t-56 -6t-60.5 -4.5t-51.5 0.5t-22 9z" />
<glyph unicode="&#x201a;" horiz-adv-x="421" d="M33 -193q20 72 72.5 274t58.5 230q-1 -1 44.5 0t104.5 2t82 0v-2q-22 -84 -47 -185.5t-42.5 -163t-47.5 -146.5q0 -2 -2 -4h-2q-5 0 -31 -3t-56 -6t-60.5 -5t-51.5 0t-22 9z" />
<glyph unicode="&#x201c;" horiz-adv-x="778" d="M43 936v2q23 84 47.5 185.5t42 163.5t47.5 147q0 2 2 4h2q5 0 31 3t56 6t60.5 4.5t51.5 -0.5t23 -9q-20 -88 -132 -504q1 1 -44.5 0t-104.5 -2t-82 0zM371 936v2q23 84 47.5 185.5t42 163.5t47.5 147q0 2 2 4h2q5 0 30.5 3t55.5 6t60.5 4.5t51.5 -0.5t23 -9 q-24 -109 -131 -504q1 1 -44.5 0t-104.5 -2t-82 0z" />
<glyph unicode="&#x201d;" horiz-adv-x="778" d="M45 946q20 72 72.5 274t58.5 230q-1 -1 44.5 0t105 2t82.5 0v-2q-22 -81 -47.5 -185t-43 -165t-47.5 -146q0 -2 -2 -4h-2q-5 0 -31 -3t-56 -6t-60.5 -4.5t-51.5 0.5t-22 9zM373 946q20 72 72.5 274t58.5 230q-1 -1 44.5 0t104.5 2t82 0v-2q-23 -84 -47.5 -185.5 t-42 -163.5t-47.5 -147q0 -2 -2 -4h-2q-5 0 -31 -3t-56 -6t-60.5 -4.5t-51.5 0.5t-22 9z" />
<glyph unicode="&#x201e;" horiz-adv-x="778" d="M43 -201q23 84 47.5 185.5t42 163.5t47.5 147q0 2 2 4h2q5 0 31 3t56 6t60.5 4.5t51.5 -0.5t23 -9q-20 -88 -132 -504q1 1 -44.5 0t-104.5 -2t-82 0v2zM371 -201q23 84 47.5 185.5t42 163.5t47.5 147q0 2 2 4h2q5 0 30.5 3t55.5 6t60.5 4.5t51.5 -0.5t23 -9 q-24 -109 -131 -504q1 1 -44.5 0t-104.5 -2t-82 0v2z" />
<glyph unicode="&#x2022;" horiz-adv-x="499" d="M59 571q0 57 9 107q5 15 6 16q11 25 24 33q22 13 29 16q24 8 31 9q3 0 9 1t9 1h96q55 0 72 -6q38 -11 65 -36t31 -59q7 -52 -6 -180q-14 -70 -63 -90q-23 -10 -74 -14q-106 -5 -117 -7h-2q-55 -8 -98 50q-11 19 -14 37q-10 66 -7 122z" />
<glyph unicode="&#x2026;" horiz-adv-x="1069" d="M69.5 77q-0.5 48 1 102.5t1.5 60.5q39 16 134.5 16.5t121.5 -12.5q0 -1 -3 -53t-6.5 -111t-3.5 -76v-2v-2h-4l-231 2h-6q-4 27 -4.5 75zM407.5 78.5q-0.5 47.5 1 100.5t1.5 61q39 16 134.5 16.5t121.5 -12.5q0 -1 -3 -53t-6.5 -111t-3.5 -76v-2v-2h-4l-231 2h-6 q-4 29 -4.5 76.5zM747.5 77q-0.5 48 1 102.5t1.5 60.5q39 16 134.5 16.5t121.5 -12.5q0 -1 -3 -53t-6.5 -111t-3.5 -76v-2v-2h-4l-231 2h-6q-4 27 -4.5 75z" />
<glyph unicode="&#x202f;" horiz-adv-x="383" />
<glyph unicode="&#x2039;" horiz-adv-x="817" d="M55 537q46 58 110 125.5t150.5 154.5t124.5 127q82 86 117 121q26 -14 80 -70t76 -71q-41 -50 -173.5 -189t-187.5 -205q55 -48 181 -173t198 -183l-22 -20l-33 -33q-48 -48 -105 -98l-2 2q-60 62 -163 154t-192.5 179.5t-158.5 178.5z" />
<glyph unicode="&#x203a;" horiz-adv-x="817" d="M78 174q72 58 198 183t181 173q-55 66 -187.5 205t-173.5 189q22 15 76 71t80 70q35 -35 117 -121q38 -40 124.5 -127t150.5 -154.5t110 -125.5q-69 -91 -158.5 -178.5t-192.5 -179.5t-163 -154l-2 -2q-57 50 -105 98l-33 33z" />
<glyph unicode="&#x205f;" horiz-adv-x="479" />
<glyph unicode="&#x20ac;" horiz-adv-x="1015" d="M64 693v88.5t2 95t2 88.5q5 89 23.5 161.5t62.5 141.5q44 64 113.5 104.5t147 54.5t168 20.5t176 3t171.5 1.5h2v-2q19 -165 4 -301q0 -4 -2 -6q-14 1 -54.5 4t-59.5 4t-57 2t-60.5 -1.5t-55 -6t-54.5 -12.5t-46.5 -21.5t-43 -31t-32.5 -42.5h8q5 0 42.5 0.5t51.5 0 t38.5 -3t41.5 -7.5v-2q11 -96 0 -203v-2q-41 -14 -127 -13.5t-133 -0.5h-2q0 -43 6 -68q192 0 256 -4q20 -82 2 -203q-46 -8 -128.5 -9t-108.5 -3q10 -53 42 -88.5t73 -51.5t98 -24.5t107 -9.5t110.5 -4t99.5 -10v-2q-2 -37 1.5 -102.5t4.5 -107t-10 -106.5 q-104 -17 -219.5 -18t-220.5 6l-37 4q-104 19 -193 72q-47 27 -75 65q-23 27 -42 61.5t-33 64.5t-24 78t-17 77.5t-11 89t-6 85t-2 94.5z" />
<glyph unicode="&#x2122;" horiz-adv-x="1107" d="M48.5 1217q-1.5 54 2.5 106l-2 2q13 0 104.5 0.5t126.5 0t101.5 -3t118.5 -7.5q4 -97 -4 -166q-38 8 -131 0h-3l-2 -2q-2 -7 -2.5 -21t0.5 -54.5t2 -92.5t3 -161t4 -234v-2q-27 -4 -89 -4.5t-88 -4.5q0 1 0.5 13.5t1 35t1 55t0.5 79.5t-1 102t-3 129t-5 154l-2 2 q-20 10 -72.5 11t-54.5 1q-5 8 -6.5 62zM594 1307q2 6 69.5 5t75.5 -1h2q15 -17 33 -51.5t27 -47.5q2 -2 6 -2q14 16 37.5 52t36.5 51q19 0 75 2.5t82 1.5q-3 -65 -0.5 -201t-1.5 -201l-2 -340q-19 3 -45 3t-56 -1.5t-40 -1.5q-2 31 -4 168t-10 209q-14 -15 -35 -44t-23 -31 q-9 3 -18 15.5t-15.5 24.5t-17.5 20.5t-25 6.5q-4 -253 3 -364q-29 -5 -150 -5q0 3 -2 5q-9 25 -2 727z" />
<glyph unicode="&#xe000;" horiz-adv-x="1024" d="M0 0v1024h1024v-1024h-1024z" />
<glyph unicode="&#xfb01;" horiz-adv-x="1142" d="M37 1006q106 0 153 -2q-4 60 3.5 120.5t30 123.5t71 113.5t117.5 74.5q154 52 403 41q12 -40 13 -101.5t-2 -92t-11 -97.5q-10 4 -58.5 0t-70.5 -6.5t-72.5 -9.5t-66.5 -9q-46 -7 -60.5 -55t-1.5 -107h316v84v2q6 1 30.5 -0.5t28.5 -1.5q113 -6 195 -4h37v-6 q0 -117 -5.5 -351t-6 -357t9.5 -351q-11 -20 -150 -14t-154 0q4 60 7 128.5t4.5 117t2.5 134.5t1 119v135.5v123.5q-83 5 -201.5 5.5t-122.5 0.5v-754q-48 5 -144.5 -4t-131.5 -4q-7 49 -8.5 197.5t0.5 354.5t2 208q-95 0 -152 -2z" />
<glyph unicode="&#xfb02;" horiz-adv-x="1173" d="M37 1022q111 0 158 -2q-6 58 1.5 120.5t30.5 126.5t72.5 116t118.5 75q154 52 399 41q7 0 28.5 -1t28.5 -1q114 -6 199 -4h37v-8q0 -102 -4 -325t-7.5 -414t-2.5 -402t10 -330q-7 -19 -150.5 -13.5t-156.5 1.5q6 89 9 198t3.5 175t0 208.5t-0.5 186.5q-83 5 -203.5 5.5 t-124.5 0.5v-766q-49 5 -146 -3t-134 -3q-7 49 -8 202.5t1.5 352.5t2.5 215q-97 0 -156 -2zM492 1016h319v188q-200 6 -256 -2q-46 -7 -61.5 -66t-1.5 -120z" />
<glyph unicode="&#xfb03;" horiz-adv-x="1976" d="M49 1024q107 0 154 -2q-4 59 3.5 117t29.5 119t70.5 109.5t117.5 72.5q154 52 405 41q12 -40 13 -101.5t-2 -92t-11 -97.5q-97 9 -270 -27q-87 -13 -61 -145l516 2q-4 57 5 117t32 122t71 111t115 70q154 52 405 41q12 -40 13 -101.5t-2 -92t-11 -97.5q-97 9 -270 -27 q-46 -7 -59.5 -52.5t-1.5 -106.5h315v83v3q6 1 32 -1t30 -2q105 -6 194 -4h37v-8q-1 -103 -5.5 -352t-4.5 -357t8 -352q-11 -20 -149.5 -14t-153.5 0q5 71 7.5 144.5t3.5 161.5t1.5 142t0 164t-0.5 148q-83 5 -201 5.5t-122 0.5v-756q-50 5 -145.5 -4t-133.5 -4 q0 123 -1 227t-3.5 187t-4.5 133t-5 119t-4 90q-257 8 -517 8v-756q-48 5 -144.5 -4t-133.5 -4q-3 38 -4 151.5t-1 219t0.5 239t0.5 152.5q-95 0 -152 -2z" />
<glyph unicode="&#xfb04;" horiz-adv-x="2101" d="M49 1026q109 0 156 -2q-6 56 1.5 117t30.5 122.5t72.5 110.5t118.5 70q149 52 406 41q5 -14 8 -29.5t4.5 -33.5t2.5 -32t0 -36.5t-1.5 -33.5t-3 -35.5t-3 -31.5t-4 -33t-3.5 -28q-97 9 -271 -27q-90 -14 -61 -145l518 2q-4 58 4.5 118.5t31.5 122.5t71 111t116 70 q154 52 406 41q37 -106 0 -293q-46 4 -126.5 -5t-142.5 -22q-46 -7 -61 -53.5t-2 -107.5h317q3 -26 3 -73.5t-1.5 -102t-1.5 -68.5q-83 5 -202 5.5t-123 0.5v-762q-48 5 -146 -3t-133 -3q0 150 -2.5 286t-4 192t-6.5 167.5t-5 114.5q-253 8 -518 8v-762q-49 5 -147.5 -3 t-133.5 -3q-7 49 -8 201.5t1.5 351t2.5 213.5q-95 0 -154 -2zM1717.5 1104.5q-1.5 206.5 15.5 380.5l295 -6q0 -52 -3 -422t-0.5 -631.5t13.5 -417.5q-6 -19 -149 -13.5t-156 1.5q13 174 9.5 380.5t-13.5 364t-11.5 364z" />
</font>
</defs>
</svg>
